<svg width="130" height="130" viewBox="0 0 130 130" fill="none" xmlns="http://www.w3.org/2000/svg">
<path d="M63.3209 130C62.8014 129.992 62.3872 129.563 62.4023 129.044C62.4098 128.524 62.839 128.11 63.3661 128.117C63.8782 128.132 64.2923 128.562 64.2848 129.081C64.2697 129.593 63.8481 130 63.3435 130C63.336 130 63.3285 130 63.3209 130ZM67.6959 129.036C67.6658 128.516 68.0649 128.072 68.5845 128.042C69.104 128.012 69.5483 128.411 69.5785 128.931C69.6086 129.45 69.2095 129.895 68.6899 129.925C68.6749 129.925 68.6523 129.925 68.6372 129.925C68.1402 129.925 67.7261 129.533 67.6959 129.036ZM57.9595 129.646C57.4399 129.593 57.071 129.126 57.1237 128.607C57.1764 128.095 57.6433 127.718 58.1628 127.771C58.6749 127.831 59.0514 128.291 58.9987 128.81C58.946 129.292 58.5394 129.654 58.065 129.654C58.0273 129.654 57.9896 129.646 57.9595 129.646ZM72.9745 128.599C72.8992 128.087 73.2607 127.605 73.7803 127.538C74.2923 127.47 74.7667 127.824 74.8345 128.343C74.9098 128.855 74.5483 129.33 74.0363 129.405C73.9911 129.405 73.9459 129.413 73.9007 129.413C73.4414 129.413 73.0423 129.066 72.9745 128.599ZM52.6433 128.848C52.1388 128.75 51.7999 128.26 51.8978 127.748C51.9957 127.236 52.4927 126.905 53.0047 127.003C53.5093 127.101 53.8481 127.59 53.7502 128.102C53.6598 128.554 53.2683 128.87 52.824 128.87C52.7638 128.87 52.7035 128.863 52.6433 128.848ZM78.1929 127.726C78.0799 127.221 78.3962 126.717 78.9082 126.604C79.4128 126.491 79.9173 126.807 80.0302 127.319C80.1432 127.824 79.8269 128.328 79.3224 128.441C79.2471 128.456 79.1793 128.464 79.1115 128.464C78.6823 128.464 78.2908 128.17 78.1929 127.726ZM47.4174 127.62C46.9204 127.477 46.6267 126.958 46.7623 126.461C46.9053 125.956 47.4249 125.662 47.9219 125.805C48.4264 125.949 48.7126 126.461 48.577 126.965C48.4641 127.379 48.08 127.65 47.6734 127.65C47.5831 127.65 47.5002 127.643 47.4174 127.62ZM83.3284 126.431C83.1703 125.934 83.4489 125.406 83.9459 125.248C84.4429 125.09 84.97 125.369 85.1281 125.866C85.2787 126.363 85.0076 126.89 84.5106 127.048C84.4127 127.078 84.3224 127.086 84.2245 127.086C83.8254 127.086 83.4564 126.83 83.3284 126.431ZM42.312 125.956C41.8225 125.775 41.5741 125.233 41.7548 124.744C41.9355 124.254 42.4777 124.006 42.9671 124.194C43.449 124.375 43.6975 124.917 43.5168 125.399C43.3737 125.783 43.0198 126.016 42.6358 126.016C42.5304 126.016 42.4174 125.994 42.312 125.956ZM88.3359 124.706C88.1326 124.224 88.366 123.674 88.848 123.479C89.3299 123.283 89.8796 123.516 90.0754 123.998C90.2711 124.48 90.0452 125.022 89.5633 125.226C89.4428 125.271 89.3224 125.293 89.2019 125.293C88.8329 125.293 88.479 125.075 88.3359 124.706ZM37.3497 123.87C36.8828 123.652 36.6795 123.087 36.8979 122.62C37.1238 122.146 37.681 121.95 38.1554 122.168C38.6223 122.387 38.8256 122.951 38.6072 123.418C38.4415 123.757 38.1027 123.961 37.7488 123.961C37.6208 123.961 37.4777 123.93 37.3497 123.87ZM93.1778 122.575C92.9443 122.108 93.1251 121.543 93.5919 121.31C94.0513 121.069 94.616 121.257 94.857 121.724C95.0904 122.183 94.9097 122.748 94.4428 122.989C94.3073 123.057 94.1642 123.087 94.0211 123.087C93.6748 123.087 93.3434 122.899 93.1778 122.575ZM32.5831 121.385C32.1388 121.121 31.9807 120.549 32.2443 120.097C32.5003 119.646 33.0726 119.495 33.5244 119.751C33.9762 120.015 34.1343 120.587 33.8708 121.039C33.6976 121.34 33.3813 121.506 33.0575 121.506C32.8994 121.506 32.7337 121.468 32.5831 121.385ZM97.8314 120.052C97.5528 119.608 97.6958 119.028 98.1326 118.757C98.5768 118.478 99.1567 118.614 99.4277 119.058C99.7064 119.502 99.5708 120.082 99.1265 120.353C98.9684 120.451 98.8027 120.496 98.6296 120.496C98.3133 120.496 98.0046 120.338 97.8314 120.052ZM28.0425 118.508C27.6208 118.215 27.5078 117.627 27.809 117.198C28.1027 116.776 28.6901 116.663 29.1193 116.965C29.541 117.258 29.6464 117.846 29.3527 118.275C29.172 118.539 28.8783 118.674 28.5771 118.674C28.3964 118.674 28.2081 118.621 28.0425 118.508ZM102.259 117.145C101.95 116.731 102.041 116.136 102.455 115.828C102.877 115.519 103.464 115.609 103.773 116.031C104.081 116.445 103.991 117.04 103.577 117.349C103.404 117.469 103.208 117.529 103.02 117.529C102.726 117.529 102.44 117.394 102.259 117.145ZM23.7578 115.27C23.3512 114.939 23.2985 114.352 23.6223 113.945C23.9536 113.546 24.5485 113.486 24.9476 113.817H24.9551C25.3542 114.148 25.4145 114.743 25.0831 115.142C24.8949 115.368 24.6238 115.489 24.3527 115.489C24.1419 115.489 23.931 115.413 23.7578 115.27ZM106.438 113.892C106.092 113.501 106.13 112.906 106.521 112.559C106.913 112.22 107.508 112.258 107.854 112.65C108.193 113.041 108.155 113.636 107.764 113.983C107.583 114.133 107.364 114.208 107.146 114.208C106.883 114.208 106.619 114.103 106.438 113.892ZM19.7443 111.693C19.3753 111.332 19.3678 110.737 19.7293 110.36C20.0907 109.991 20.6856 109.984 21.0621 110.345C21.431 110.707 21.4386 111.302 21.0771 111.671C20.8964 111.866 20.6479 111.957 20.3994 111.957C20.166 111.957 19.9326 111.874 19.7443 111.693ZM110.331 110.3C109.955 109.939 109.947 109.344 110.309 108.975V108.967C110.67 108.598 111.265 108.591 111.642 108.952C112.011 109.314 112.018 109.909 111.657 110.278C111.657 110.278 111.657 110.278 111.664 110.278C111.476 110.473 111.227 110.571 110.986 110.571C110.745 110.571 110.512 110.481 110.331 110.3ZM16.047 107.8C15.7082 107.408 15.7458 106.813 16.1374 106.467C16.529 106.128 17.1238 106.166 17.4627 106.557C17.8091 106.949 17.7639 107.544 17.3723 107.89C17.1991 108.041 16.9808 108.116 16.7549 108.116C16.4913 108.116 16.2353 108.011 16.047 107.8ZM113.916 106.407C113.517 106.076 113.456 105.481 113.788 105.081C114.119 104.675 114.706 104.622 115.113 104.953C115.512 105.277 115.572 105.872 115.241 106.279C115.053 106.505 114.782 106.618 114.511 106.618C114.3 106.618 114.089 106.55 113.916 106.407ZM12.6811 103.613C12.3723 103.191 12.4627 102.604 12.8769 102.295C13.291 101.986 13.8859 102.077 14.1946 102.491C14.5034 102.913 14.413 103.5 13.9988 103.809C13.8257 103.937 13.6299 103.997 13.4416 103.997C13.148 103.997 12.8618 103.862 12.6811 103.613ZM117.169 102.227C116.739 101.926 116.642 101.346 116.935 100.917C117.229 100.488 117.816 100.382 118.245 100.676C118.675 100.977 118.78 101.557 118.479 101.986C118.298 102.25 118.004 102.393 117.711 102.393C117.523 102.393 117.334 102.34 117.169 102.227ZM9.66904 99.1625C9.39796 98.7257 9.53349 98.1459 9.97024 97.8672C10.4145 97.5961 10.9943 97.7317 11.2654 98.176H11.273C11.544 98.6127 11.4085 99.2001 10.9642 99.4712C10.8061 99.5616 10.6404 99.6068 10.4672 99.6068C10.151 99.6068 9.84223 99.4486 9.66904 99.1625ZM120.068 97.7919C119.623 97.5359 119.465 96.956 119.729 96.5042V96.5117C119.985 96.0599 120.557 95.9017 121.009 96.1653C121.461 96.4213 121.619 96.9937 121.355 97.4455C121.182 97.7467 120.866 97.9199 120.542 97.9199C120.384 97.9199 120.218 97.8747 120.068 97.7919ZM7.03351 94.486C6.80008 94.0191 6.98081 93.4543 7.44768 93.2209C7.90701 92.9799 8.47176 93.1682 8.71273 93.6275C8.94616 94.0944 8.76542 94.6592 8.29856 94.8927C8.16302 94.9604 8.01243 94.9981 7.86936 94.9981C7.53051 94.9981 7.19917 94.8098 7.03351 94.486ZM122.598 93.138C122.123 92.9121 121.92 92.3549 122.146 91.8804C122.364 91.4135 122.922 91.2102 123.396 91.4286C123.863 91.6545 124.066 92.2118 123.848 92.6862C123.69 93.0251 123.343 93.2209 122.997 93.2209C122.861 93.2209 122.726 93.1983 122.598 93.138ZM4.79707 89.5987C4.59376 89.1167 4.82718 88.567 5.30911 88.3712C5.79104 88.1754 6.34074 88.4089 6.53652 88.8908C6.7323 89.3728 6.5064 89.9225 6.02448 90.1183C5.904 90.1635 5.78351 90.1861 5.66303 90.1861C5.29405 90.1861 4.94014 89.9677 4.79707 89.5987ZM124.721 88.2808C124.239 88.1001 123.991 87.5579 124.172 87.0684C124.352 86.5865 124.895 86.338 125.376 86.5187C125.866 86.6994 126.114 87.2416 125.934 87.7311C125.791 88.1076 125.429 88.3411 125.053 88.3411C124.94 88.3411 124.834 88.3185 124.721 88.2808ZM2.96726 84.5532C2.80913 84.0562 3.08775 83.5291 3.58474 83.3709C4.08172 83.2128 4.60881 83.4914 4.76694 83.9884C4.91754 84.4779 4.64648 85.0126 4.14949 85.1632C4.05913 85.1933 3.96124 85.2084 3.87088 85.2084C3.46426 85.2084 3.09527 84.9523 2.96726 84.5532ZM126.438 83.273C125.941 83.13 125.648 82.6104 125.791 82.1133C125.926 81.6088 126.446 81.3151 126.95 81.4582C127.447 81.6013 127.741 82.1209 127.598 82.6179C127.485 83.0321 127.108 83.3107 126.694 83.3107C126.611 83.3107 126.521 83.2956 126.438 83.273ZM1.56665 79.3647C1.4537 78.8526 1.76998 78.3556 2.28202 78.2351C2.78654 78.1222 3.29105 78.4384 3.404 78.9505C3.51695 79.455 3.20068 79.9596 2.69617 80.0726C2.6284 80.0876 2.5531 80.0952 2.48533 80.0952C2.05611 80.0952 1.66455 79.8015 1.56665 79.3647ZM127.733 78.1372C127.221 78.0393 126.89 77.5423 126.988 77.0378C127.086 76.5257 127.575 76.1868 128.087 76.2922C128.599 76.3901 128.931 76.8796 128.833 77.3917C128.75 77.8435 128.351 78.1523 127.914 78.1523C127.854 78.1523 127.794 78.1447 127.733 78.1372ZM0.602803 74.0782C0.535033 73.5662 0.896482 73.0842 1.40853 73.0165C1.92057 72.9412 2.39497 73.3026 2.47027 73.8147C2.54558 74.3343 2.18413 74.8087 1.67209 74.8765C1.62691 74.884 1.58173 74.8916 1.53655 74.8916C1.07721 74.8916 0.670574 74.5527 0.602803 74.0782ZM128.599 72.911C128.08 72.8583 127.703 72.3914 127.763 71.8793C127.816 71.3597 128.283 70.9832 128.795 71.0434C129.315 71.0962 129.691 71.563 129.631 72.0827C129.578 72.5646 129.172 72.9186 128.697 72.9186C128.667 72.9186 128.629 72.9186 128.599 72.911ZM0.0832481 68.7316C0.0531278 68.212 0.452217 67.7677 0.971794 67.7375C1.49137 67.715 1.93565 68.1065 1.96577 68.6261C1.98836 69.1458 1.59678 69.5901 1.0772 69.6202C1.05461 69.6202 1.03957 69.6202 1.02451 69.6202C0.527524 69.6202 0.113369 69.2361 0.0832481 68.7316ZM129.029 67.6396C128.509 67.6246 128.095 67.1878 128.11 66.6682C128.11 66.6456 128.117 66.623 128.117 66.6004C128.117 66.5778 128.117 66.5553 128.117 66.5327C128.125 66.0055 128.554 65.5989 129.074 65.6064C129.593 65.6215 130.007 66.0507 130 66.5703C129.992 66.5929 129.992 66.623 129.992 66.6456C129.992 66.6682 129.992 66.6908 129.992 66.7209C129.977 67.233 129.563 67.6396 129.051 67.6396C129.044 67.6396 129.036 67.6396 129.029 67.6396ZM0.91154 64.3262C0.391964 64.3112 -0.014655 63.8744 0.000405179 63.3548C0.0154654 62.8352 0.452217 62.4285 0.971794 62.4436C1.49137 62.4586 1.89799 62.8879 1.88293 63.415C1.86787 63.9196 1.44618 64.3262 0.941667 64.3262C0.934137 64.3262 0.9266 64.3262 0.91154 64.3262ZM128.027 61.3065C127.997 60.7869 128.396 60.3426 128.916 60.3124C129.435 60.2823 129.879 60.6814 129.91 61.201C129.94 61.7206 129.541 62.165 129.021 62.1951C129.006 62.1951 128.983 62.1951 128.968 62.1951C128.471 62.1951 128.057 61.811 128.027 61.3065ZM1.19015 59.0398C0.670573 58.9795 0.30161 58.5202 0.35432 58.0006C0.407031 57.481 0.8739 57.112 1.39348 57.1647C1.90552 57.2249 2.28202 57.6843 2.22931 58.2039C2.1766 58.6858 1.76998 59.0398 1.29558 59.0398C1.25793 59.0398 1.2278 59.0398 1.19015 59.0398ZM127.515 56.1179C127.44 55.6059 127.801 55.1239 128.313 55.0561C128.833 54.9808 129.307 55.3423 129.375 55.8544C129.45 56.374 129.089 56.8484 128.577 56.9162C128.532 56.9237 128.486 56.9312 128.441 56.9312C127.982 56.9312 127.583 56.5848 127.515 56.1179ZM1.89798 53.791C1.38593 53.6931 1.04708 53.1961 1.14497 52.6915C1.24286 52.1795 1.73985 51.8406 2.2519 51.9385C2.75641 52.0364 3.09528 52.5334 2.99739 53.0455C2.90703 53.4898 2.51546 53.8061 2.07118 53.8061C2.01094 53.8061 1.95069 53.7985 1.89798 53.791ZM126.574 50.9896C126.453 50.4776 126.777 49.973 127.282 49.8601C127.786 49.7471 128.291 50.0634 128.411 50.5679C128.524 51.08 128.208 51.5846 127.696 51.6975C127.628 51.7126 127.56 51.7201 127.492 51.7201C127.063 51.7201 126.672 51.4264 126.574 50.9896ZM3.02749 48.6175C2.53051 48.4744 2.23685 47.9548 2.37992 47.4578C2.37992 47.4578 2.37991 47.4578 2.37238 47.4578C2.51545 46.9533 3.03503 46.6671 3.53202 46.8027C4.03654 46.9458 4.33021 47.4654 4.18713 47.9624C4.07418 48.3765 3.69769 48.6552 3.28354 48.6552C3.20071 48.6552 3.11785 48.6401 3.02749 48.6175ZM125.211 45.9517C125.053 45.4547 125.324 44.9276 125.821 44.7694C126.318 44.6113 126.845 44.8899 127.003 45.3869C127.161 45.8839 126.882 46.4111 126.393 46.5692C126.295 46.5993 126.197 46.6069 126.107 46.6069C125.708 46.6069 125.331 46.3508 125.211 45.9517ZM4.59377 43.557C4.10431 43.3763 3.85582 42.8341 4.03655 42.3521C4.03655 42.3521 4.03655 42.3521 4.03655 42.3446C4.21727 41.8626 4.75942 41.6141 5.24888 41.7949C5.73081 41.9756 5.97931 42.5178 5.79858 42.9997C5.66304 43.3838 5.30159 43.6173 4.91755 43.6173C4.81213 43.6173 4.69919 43.5947 4.59377 43.557ZM123.434 41.0493C123.23 40.5674 123.464 40.0252 123.946 39.8219C124.428 39.6261 124.977 39.8595 125.173 40.3339C125.369 40.8159 125.135 41.3656 124.661 41.569C124.541 41.6141 124.42 41.6367 124.3 41.6367C123.931 41.6367 123.577 41.4183 123.434 41.0493ZM6.56665 38.6396C6.09978 38.4212 5.89646 37.8639 6.11484 37.3895C6.34074 36.9151 6.89798 36.7193 7.37237 36.9377C7.83924 37.1561 8.04255 37.7208 7.82418 38.1877C7.65852 38.5341 7.31965 38.7299 6.96574 38.7299C6.83773 38.7299 6.70219 38.6998 6.56665 38.6396ZM121.25 36.3126C121.017 35.8533 121.197 35.281 121.664 35.0475C122.123 34.8141 122.696 34.9948 122.929 35.4617C123.163 35.9211 122.982 36.4858 122.515 36.7268C122.379 36.7946 122.236 36.8247 122.093 36.8247C121.747 36.8247 121.416 36.644 121.25 36.3126ZM8.94616 33.9104C8.49435 33.6468 8.34376 33.0745 8.59978 32.6227C8.86333 32.1708 9.43561 32.0202 9.88742 32.2763C10.3392 32.5323 10.4898 33.1122 10.2338 33.564C10.0606 33.8652 9.74435 34.0384 9.42056 34.0384C9.2549 34.0384 9.09676 33.9932 8.94616 33.9104ZM118.69 31.7717C118.411 31.3274 118.547 30.7476 118.991 30.4765C119.435 30.1978 120.015 30.3334 120.286 30.7777C120.565 31.222 120.429 31.8018 119.985 32.0729C119.827 32.1708 119.661 32.216 119.488 32.216C119.172 32.216 118.87 32.0579 118.69 31.7717ZM11.7097 29.3921C11.2805 29.0909 11.1751 28.5035 11.4763 28.0818C11.7699 27.6525 12.3498 27.5471 12.779 27.8408C13.2082 28.1345 13.3136 28.7219 13.0199 29.1511C12.8392 29.4147 12.5455 29.5577 12.2443 29.5577C12.0636 29.5577 11.8754 29.505 11.7097 29.3921ZM115.761 27.4567C115.452 27.035 115.535 26.4476 115.956 26.1389C116.37 25.8301 116.958 25.9205 117.274 26.3347C117.583 26.7489 117.492 27.3438 117.078 27.6525C116.905 27.773 116.709 27.8333 116.514 27.8333C116.227 27.8333 115.941 27.7052 115.761 27.4567ZM14.8347 25.1147C14.4356 24.7834 14.3753 24.1885 14.7067 23.7894C15.038 23.3827 15.6329 23.33 16.032 23.6613C16.4311 23.9852 16.4913 24.5801 16.16 24.9792H16.1675C15.9793 25.2126 15.7082 25.3256 15.4371 25.3256C15.2263 25.3256 15.0154 25.2578 14.8347 25.1147ZM112.485 23.3902C112.139 23.0062 112.176 22.4113 112.568 22.0649C112.959 21.7185 113.554 21.7636 113.901 22.1552C114.239 22.5468 114.202 23.1342 113.81 23.4806C113.63 23.6387 113.411 23.7141 113.193 23.7141C112.929 23.7141 112.666 23.6086 112.485 23.3902ZM18.3061 21.1085C17.9296 20.747 17.922 20.1521 18.2835 19.7756C18.6449 19.4066 19.2398 19.3991 19.6163 19.7605C19.9853 20.1145 20.0003 20.7169 19.6389 21.0859C19.4506 21.2817 19.2021 21.3721 18.9612 21.3721C18.7202 21.3721 18.4868 21.2892 18.3061 21.1085ZM108.886 19.6174C108.509 19.256 108.502 18.6611 108.863 18.2845C109.224 17.908 109.819 17.9005 110.196 18.2619C110.565 18.6234 110.58 19.2183 110.218 19.5948C110.03 19.7831 109.789 19.881 109.541 19.881C109.3 19.881 109.066 19.7906 108.886 19.6174ZM22.0862 17.4035C21.7473 17.0119 21.785 16.417 22.1765 16.0706C22.5681 15.7317 23.163 15.7693 23.5094 16.1609C23.8482 16.5525 23.8106 17.1474 23.419 17.4938C23.2383 17.6444 23.0199 17.7273 22.8015 17.7273C22.538 17.7273 22.2744 17.6143 22.0862 17.4035ZM104.992 16.1459C104.586 15.8145 104.526 15.2196 104.857 14.8205C105.188 14.4138 105.783 14.3611 106.182 14.6849C106.581 15.0163 106.642 15.6112 106.31 16.0103C106.13 16.2362 105.858 16.3567 105.587 16.3567C105.377 16.3567 105.166 16.2889 104.992 16.1459ZM26.1599 14.0223C25.8512 13.6005 25.9416 13.0132 26.3633 12.7044C26.7774 12.3957 27.3648 12.486 27.6735 12.9002C27.9822 13.3219 27.8994 13.9093 27.4777 14.218C27.312 14.3461 27.1163 14.4063 26.9205 14.4063C26.6343 14.4063 26.3482 14.2708 26.1599 14.0223ZM100.821 13.0056C100.392 12.7119 100.286 12.1246 100.58 11.6953C100.874 11.2661 101.461 11.1607 101.89 11.4543C102.319 11.748 102.425 12.3354 102.131 12.7647C101.95 13.0282 101.657 13.1713 101.355 13.1713C101.167 13.1713 100.986 13.1186 100.821 13.0056ZM30.5048 10.9875C30.2262 10.5432 30.3617 9.9633 30.806 9.6922C31.2503 9.41357 31.8301 9.54912 32.1012 9.99342C32.3798 10.4377 32.2443 11.0176 31.8 11.2887C31.6419 11.3866 31.4762 11.4318 31.303 11.4318C30.9867 11.4318 30.678 11.2736 30.5048 10.9875ZM96.4082 10.2193C95.9564 9.95577 95.7982 9.38344 96.0618 8.93161C96.3178 8.47978 96.8901 8.32917 97.3419 8.58521C97.7937 8.84125 97.9518 9.42109 97.6958 9.87293C97.5151 10.1741 97.1988 10.3474 96.875 10.3474C96.7169 10.3474 96.5512 10.3022 96.4082 10.2193ZM35.0756 8.32164C34.8421 7.85475 35.0229 7.28995 35.4822 7.04898C35.9491 6.81553 36.5138 6.99627 36.7548 7.46316C36.9882 7.92252 36.8075 8.49485 36.3406 8.72829C36.2051 8.79607 36.062 8.83372 35.9114 8.83372C35.5726 8.83372 35.2412 8.64545 35.0756 8.32164ZM91.7772 7.80957C91.3028 7.59118 91.107 7.02639 91.3254 6.5595C91.5437 6.08507 92.1085 5.88174 92.5754 6.10766C92.5754 6.10766 92.5754 6.10767 92.5754 6.10013C93.0422 6.32605 93.2455 6.88331 93.0272 7.35773C92.869 7.69661 92.5302 7.89993 92.1763 7.89993C92.0407 7.89993 91.9052 7.86981 91.7772 7.80957ZM39.8497 6.03989C39.6539 5.55793 39.8873 5.00821 40.3692 4.81242C40.8436 4.61663 41.3933 4.84254 41.5966 5.32449C41.7924 5.80644 41.559 6.35618 41.077 6.55197C40.9641 6.59715 40.8436 6.62727 40.7231 6.62727C40.3542 6.62727 40.0003 6.40135 39.8497 6.03989ZM86.9654 5.79138C86.476 5.61065 86.2275 5.06845 86.4082 4.57896C86.5889 4.09701 87.1311 3.84851 87.6206 4.02924C88.1025 4.20997 88.351 4.74464 88.1702 5.23413C88.0347 5.61819 87.6733 5.85163 87.2892 5.85163C87.1838 5.85163 87.0709 5.82903 86.9654 5.79138ZM44.8045 4.16479C44.6463 3.66778 44.9174 3.14064 45.4144 2.98249C45.9114 2.82435 46.4385 3.10299 46.5966 3.6C46.7547 4.09702 46.4761 4.62415 45.9791 4.78229C45.8888 4.80488 45.7909 4.81995 45.7005 4.81995C45.3014 4.81995 44.9249 4.56391 44.8045 4.16479ZM82.0031 4.17985C81.4986 4.0443 81.2049 3.52469 81.348 3.02015C81.4835 2.52313 82.0031 2.22944 82.5076 2.37252C83.0046 2.50807 83.2983 3.02768 83.1627 3.52469C83.0423 3.9464 82.6658 4.2175 82.2516 4.2175C82.1688 4.2175 82.0859 4.20997 82.0031 4.17985ZM49.8948 2.70387C49.7743 2.19932 50.0981 1.69477 50.6026 1.58181C51.1072 1.46886 51.6117 1.78514 51.7246 2.28969C51.8451 2.80176 51.5213 3.29878 51.0168 3.41927C50.949 3.43433 50.8812 3.44186 50.8059 3.44186C50.3767 3.44186 49.9927 3.14064 49.8948 2.70387ZM76.9203 2.99002C76.4158 2.89212 76.0769 2.40265 76.1748 1.89057C76.2727 1.37849 76.7622 1.04715 77.2742 1.14504C77.7863 1.24294 78.1176 1.73243 78.0197 2.24451C77.9369 2.69634 77.5453 3.00508 77.101 3.00508C77.0408 3.00508 76.9805 3.00508 76.9203 2.99002ZM55.083 1.67972C55.0153 1.16011 55.3692 0.685686 55.8888 0.610381C56.4008 0.542606 56.8752 0.896535 56.9505 1.41614C57.0183 1.92822 56.6643 2.40264 56.1448 2.47795C56.0996 2.48548 56.062 2.48548 56.0168 2.48548C55.5499 2.48548 55.1508 2.14661 55.083 1.67972ZM71.7622 2.22944C71.2426 2.1692 70.8736 1.7023 70.9263 1.19022C70.9791 0.670617 71.4459 0.30162 71.9655 0.354334C72.4775 0.407048 72.854 0.873949 72.8013 1.38602C72.7486 1.87551 72.342 2.22944 71.8676 2.22944C71.83 2.22944 71.7998 2.22944 71.7622 2.22944ZM60.3466 1.07727C60.3165 0.557664 60.7155 0.120887 61.2351 0.0832344C61.7472 0.0606428 62.199 0.452237 62.2291 0.971843C62.2517 1.49145 61.8601 1.93575 61.3405 1.96587C61.3179 1.96587 61.3029 1.96587 61.2878 1.96587C60.7909 1.96587 60.3767 1.58182 60.3466 1.07727ZM66.5589 1.88303C66.0393 1.86797 65.6252 1.43873 65.6402 0.919124C65.6553 0.399517 66.0845 -0.014663 66.6041 0.000398109C67.1237 0.0154592 67.5378 0.452241 67.5228 0.964317C67.5077 1.47639 67.086 1.88303 66.5815 1.88303C66.574 1.88303 66.5664 1.88303 66.5589 1.88303Z" fill="#474747"/>
<path d="M53.2143 33.1296H53.7143V32.6296C53.7143 29.7824 56.0004 27.5 58.8571 27.5H64.5C67.3302 27.5 69.6429 29.7841 69.6429 32.6296V33.1296H70.1429H92.7143C95.5444 33.1296 97.8571 35.4137 97.8571 38.2593V61.3563C93.9036 58.9079 89.242 57.4905 84.2776 57.4905C75.4254 57.4905 67.5913 61.958 62.9404 68.7222H30.6429C27.7877 68.7222 25.5 66.4133 25.5 63.5926V38.2593C25.5 35.4121 27.7861 33.1296 30.6429 33.1296H53.2143ZM70.7984 69.5822L70.8003 69.5804C74.2668 66.2044 79.0262 64.0926 84.25 64.0926C88.7041 64.0926 92.8296 65.6284 96.1024 68.2075L96.1062 68.2105C100.615 71.694 103.5 77.1515 103.5 83.2963C103.5 93.8842 94.8657 102.5 84.25 102.5C75.5323 102.5 68.1651 96.7111 65.8282 88.7845L65.8283 88.7845L65.8251 88.7743C65.2774 87.0531 65 85.1905 65 83.2963C65 80.3598 65.6586 77.5648 66.8932 75.0739L66.897 75.0664L66.9005 75.0587C67.8322 73.0081 69.1767 71.1453 70.7984 69.5822ZM86.2415 88.5737L86.2409 88.573L81.9286 84.2443V74.8519C81.9286 73.5561 82.97 72.537 84.25 72.537C85.53 72.537 86.5714 73.5561 86.5714 74.8519V82.1143V82.3215L86.718 82.468L90.1015 85.849L90.1018 85.8493C90.8594 86.6051 90.9853 87.7489 90.484 88.6576C90.3457 88.8507 90.2336 89.0057 90.1062 89.1338C89.6331 89.58 89.0547 89.8058 88.4546 89.8058C87.8793 89.8058 87.2686 89.5777 86.798 89.1343L86.2415 88.5737ZM67.849 56.5281C67.849 53.9145 65.7337 51.8058 63.1168 51.8058C60.5 51.8058 58.3847 53.9145 58.3847 56.5281C58.3847 59.1416 60.5 61.2503 63.1168 61.2503C65.7337 61.2503 67.849 59.1416 67.849 56.5281ZM95.6453 74.2319C93.0137 70.8793 88.8639 68.7222 84.25 68.7222C79.4913 68.7222 75.2533 70.9936 72.6217 74.5488C70.721 76.9727 69.6429 80.0068 69.6429 83.2963C69.6429 85.3651 70.0807 87.3479 70.8702 89.1278C73.1196 94.2561 78.2604 97.8704 84.25 97.8704C92.0999 97.8704 98.4945 91.6779 98.8281 83.9621C98.8573 83.7404 98.8572 83.4996 98.8571 83.3213V83.2963C98.8571 79.8579 97.6607 76.7103 95.6453 74.2319ZM25.5 83.2963V74.1127C27.0483 74.8759 28.7876 75.3519 30.6429 75.3519H59.6483C58.8196 77.8607 58.3847 80.5329 58.3847 83.3238C58.3847 85.0627 58.5688 86.7772 58.8928 88.4259H30.6429C27.7877 88.4259 25.5 86.117 25.5 83.2963Z" fill="#4C5BD4" stroke="#474747"/>
</svg>
