<svg width="20" height="20" viewBox="0 0 20 20" fill="none" xmlns="http://www.w3.org/2000/svg">
<g clip-path="url(#clip0_105_2)">
<path d="M16.5625 3.125C12.5 3.125 10.625 1.875 10.625 1.875H9.375C9.375 1.875 7.5 3.125 3.4375 3.125L2.8125 3.75V10C2.8125 15.9375 10 18.125 10 18.125C10 18.125 17.1875 15.9375 17.1875 10V3.75L16.5625 3.125ZM12.2097 12.4684L10 10.6519L7.79031 12.4688L6.90656 11.585L8.72312 9.375L6.90625 7.16531L7.79 6.28156L10 8.09812L12.2097 6.28125L13.0934 7.165L11.2769 9.375L13.0938 11.5847L12.2097 12.4684Z" fill="#4C5BD4"/>
</g>
<defs>
<clipPath id="clip0_105_2">
<rect width="20" height="20" fill="white"/>
</clipPath>
</defs>
</svg>
