<svg width="820" height="613" viewBox="0 0 820 613" fill="none" xmlns="http://www.w3.org/2000/svg">
<g clip-path="url(#clip0_3119_214117)">
<path d="M820 0H0V613H820V0Z" fill="#B8D0FF"/>
<path d="M747.348 233.602H630.594V304.979H747.348V233.602Z" fill="#9EC0FF"/>
<path d="M734.543 320.611L726.63 315.67L718.717 320.611V294.89H734.543V320.611Z" fill="#5181DB"/>
<path d="M726.629 304.17C733.03 304.17 738.219 299.515 738.219 293.773C738.219 288.032 733.03 283.377 726.629 283.377C720.229 283.377 715.04 288.032 715.04 293.773C715.04 299.515 720.229 304.17 726.629 304.17Z" fill="#5181DB"/>
<path d="M738.086 293.878C739.111 288.211 734.821 282.87 728.503 281.95C722.185 281.031 716.232 284.879 715.206 290.547C714.181 296.215 718.471 301.555 724.789 302.475C731.107 303.395 737.061 299.546 738.086 293.878Z" fill="white"/>
<path d="M734.83 292.216C734.83 296.274 731.153 299.572 726.63 299.572C722.106 299.572 718.43 296.274 718.43 292.216C718.43 288.158 722.106 284.86 726.63 284.86C731.153 284.86 734.83 288.158 734.83 292.216Z" stroke="#9EC0FF" stroke-width="0.7631" stroke-miterlimit="10"/>
<path d="M639.982 258.195H734.829" stroke="#89A4D9" stroke-miterlimit="10"/>
<path d="M665.635 251.587H709.177" stroke="#89A4D9" stroke-miterlimit="10"/>
<path d="M639.982 264.804H734.829" stroke="#89A4D9" stroke-miterlimit="10"/>
<path d="M639.982 271.411H734.829" stroke="#89A4D9" stroke-miterlimit="10"/>
<path d="M639.982 278.02H734.829" stroke="#89A4D9" stroke-miterlimit="10"/>
<path d="M667.043 284.628H707.756" stroke="#89A4D9" stroke-miterlimit="10"/>
<path d="M696.549 347.963H677.688V429.602H696.549V347.963Z" fill="#2E6ADB"/>
<path d="M673.561 363.043H654.701V429.615H673.561V363.043Z" fill="#9EC0FF"/>
<path d="M650.588 354.08H631.728V429.614H650.588V354.08Z" fill="#89A4D9"/>
<path d="M627.6 387.967H608.74V429.614H627.6V387.967Z" fill="#5181DB"/>
<path d="M604.627 407.437H585.767V429.603H604.627V407.437Z" fill="white"/>
<path d="M706.854 433.93H581.571V345.266" stroke="white" stroke-width="1.1497" stroke-miterlimit="10"/>
<path d="M686.367 106.171C651.271 106.171 622.817 131.696 622.817 163.18C622.817 194.664 651.271 220.189 686.367 220.189C721.463 220.189 749.917 194.664 749.917 163.18C749.917 131.684 721.463 106.171 686.367 106.171ZM686.367 210.7C657.107 210.7 633.382 189.416 633.382 163.168C633.382 136.919 657.107 115.636 686.367 115.636C715.628 115.636 739.353 136.919 739.353 163.168C739.339 189.429 715.628 210.7 686.367 210.7Z" fill="#9EC0FF"/>
<path d="M688.554 121.594C688.554 122.881 687.392 123.911 685.971 123.911C684.549 123.911 683.388 122.869 683.388 121.594C683.388 120.306 684.549 119.276 685.971 119.276C687.392 119.276 688.554 120.306 688.554 121.594Z" fill="#9EC0FF"/>
<path d="M688.554 204.753C688.554 206.04 687.392 207.07 685.971 207.07C684.549 207.07 683.388 206.028 683.388 204.753C683.388 203.465 684.549 202.436 685.971 202.436C687.392 202.436 688.554 203.478 688.554 204.753Z" fill="#9EC0FF"/>
<path d="M665.129 126.117C665.84 127.233 665.416 128.643 664.186 129.292C662.943 129.93 661.371 129.55 660.647 128.447C659.936 127.331 660.36 125.921 661.59 125.271C662.833 124.634 664.405 125.014 665.129 126.117Z" fill="#9EC0FF"/>
<path d="M711.473 198.145C712.184 199.26 711.76 200.67 710.53 201.32C709.286 201.958 707.715 201.578 706.99 200.474C706.28 199.359 706.703 197.949 707.933 197.299C709.177 196.649 710.762 197.029 711.473 198.145Z" fill="#9EC0FF"/>
<path d="M647.349 140.56C648.592 141.197 649.016 142.619 648.292 143.735C647.567 144.851 645.996 145.231 644.752 144.581C643.508 143.943 643.085 142.521 643.809 141.406C644.533 140.29 646.119 139.91 647.349 140.56Z" fill="#9EC0FF"/>
<path d="M727.641 182.133C728.884 182.771 729.308 184.193 728.584 185.309C727.873 186.424 726.288 186.805 725.044 186.155C723.8 185.517 723.377 184.095 724.101 182.979C724.825 181.876 726.411 181.496 727.641 182.133Z" fill="#9EC0FF"/>
<path d="M640.01 161.021C641.445 161.021 642.593 162.064 642.593 163.339C642.593 164.614 641.431 165.656 640.01 165.656C638.575 165.656 637.427 164.614 637.427 163.339C637.427 162.064 638.575 161.021 640.01 161.021Z" fill="#9EC0FF"/>
<path d="M732.725 161.021C734.16 161.021 735.308 162.064 735.308 163.339C735.308 164.614 734.146 165.656 732.725 165.656C731.29 165.656 730.142 164.614 730.142 163.339C730.142 162.064 731.29 161.021 732.725 161.021Z" fill="#9EC0FF"/>
<path d="M645.066 182.048C646.31 181.41 647.882 181.79 648.606 182.893C649.317 184.009 648.893 185.419 647.663 186.069C646.419 186.706 644.848 186.326 644.123 185.223C643.399 184.107 643.823 182.685 645.066 182.048Z" fill="#9EC0FF"/>
<path d="M725.344 140.462C726.588 139.824 728.16 140.204 728.884 141.308C729.595 142.423 729.171 143.833 727.941 144.483C726.697 145.12 725.126 144.74 724.401 143.637C723.691 142.534 724.114 141.111 725.344 140.462Z" fill="#9EC0FF"/>
<path d="M661.152 197.986C661.863 196.87 663.448 196.49 664.692 197.14C665.936 197.777 666.359 199.199 665.635 200.315C664.924 201.431 663.339 201.811 662.095 201.161C660.865 200.523 660.442 199.101 661.152 197.986Z" fill="#9EC0FF"/>
<path d="M707.509 125.97C708.22 124.854 709.805 124.474 711.049 125.124C712.292 125.762 712.716 127.184 711.992 128.299C711.281 129.415 709.696 129.795 708.452 129.145C707.208 128.496 706.785 127.073 707.509 125.97Z" fill="#9EC0FF"/>
<path d="M686.367 127.123V163.18L662.888 176.702" stroke="white" stroke-miterlimit="10"/>
<path d="M686.367 167.09C688.775 167.09 690.727 165.339 690.727 163.179C690.727 161.02 688.775 159.269 686.367 159.269C683.96 159.269 682.008 161.02 682.008 163.179C682.008 165.339 683.96 167.09 686.367 167.09Z" fill="#9EC0FF"/>
<path d="M647.171 156.879H541.5V271.547H647.171V156.879Z" fill="white"/>
<path d="M556.287 171.628H588.185" stroke="#B8D0FF" stroke-miterlimit="10"/>
<path d="M556.287 179.781H632.397" stroke="#B8D0FF" stroke-miterlimit="10"/>
<path d="M556.287 187.946H632.397" stroke="#B8D0FF" stroke-miterlimit="10"/>
<path d="M556.287 196.111H632.397" stroke="#B8D0FF" stroke-miterlimit="10"/>
<path d="M556.287 204.264H632.397" stroke="#B8D0FF" stroke-miterlimit="10"/>
<path d="M556.287 212.43H632.397" stroke="#B8D0FF" stroke-miterlimit="10"/>
<path d="M556.287 220.582H632.397" stroke="#B8D0FF" stroke-miterlimit="10"/>
<path d="M556.287 228.747H632.397" stroke="#B8D0FF" stroke-miterlimit="10"/>
<path d="M556.287 236.912H632.397" stroke="#B8D0FF" stroke-miterlimit="10"/>
<path d="M556.287 245.065H632.397" stroke="#B8D0FF" stroke-miterlimit="10"/>
<path d="M556.287 253.23H588.185" stroke="#B8D0FF" stroke-miterlimit="10"/>
<path d="M623.104 151.362V179.548C623.104 183.066 619.92 185.923 615.997 185.923C612.075 185.923 608.891 183.066 608.891 179.548V150.148C608.891 144.766 613.756 140.401 619.756 140.401C625.755 140.401 630.621 144.766 630.621 150.148V156.879" stroke="#2E6ADB" stroke-width="2" stroke-miterlimit="10"/>
<path d="M268.085 123.777L298.794 126.523C300.775 108.611 291.646 90.3807 273.497 80.1436L257.083 103.56C264.996 108.023 268.946 115.967 268.085 123.777Z" fill="#9EC0FF"/>
<path d="M264.573 133.033C257.576 143.025 242.87 146.029 231.732 139.752C229.094 138.256 226.894 136.368 225.172 134.235L200.244 150.528C204.221 155.42 209.264 159.748 215.332 163.168C240.889 177.574 274.632 170.671 290.69 147.745C295.35 141.1 298.002 133.83 298.808 126.511L268.099 123.765C267.744 126.965 266.609 130.128 264.573 133.033Z" fill="#2E6ADB"/>
<path d="M200.23 150.528L225.158 134.234C223.039 131.623 221.645 128.644 221.003 125.518L190.663 130.52C192.125 137.692 195.364 144.545 200.23 150.528Z" fill="#5181DB"/>
<path d="M224.229 110.278C229.449 102.824 238.948 99.2689 248.063 100.532L252.819 73.1919C231.909 70.274 210.097 78.4514 198.112 95.5541C190.527 106.38 188.244 118.848 190.636 130.507L220.976 125.505C219.951 120.43 220.921 114.998 224.229 110.278Z" fill="#89A4D9"/>
<path d="M248.077 100.544C251.179 100.973 254.254 101.966 257.083 103.56L273.497 80.1433C266.992 76.4775 259.967 74.1972 252.833 73.2041L248.077 100.544Z" fill="white"/>
<path d="M230.242 306.5H112.312V446.313H230.242V306.5Z" fill="white"/>
<path d="M131.842 431.381C126.895 421.425 120.267 411.998 112.312 403.403V446.313H213.651C193.219 431.258 164.601 423.792 131.842 431.381Z" fill="#B8D0FF"/>
<path d="M122.262 385.834H220.279" stroke="#B8D0FF" stroke-miterlimit="10"/>
<path d="M122.262 393.423H220.279" stroke="#B8D0FF" stroke-miterlimit="10"/>
<path d="M122.262 401.012H220.279" stroke="#B8D0FF" stroke-miterlimit="10"/>
<path d="M122.262 408.589H220.279" stroke="#B8D0FF" stroke-miterlimit="10"/>
<path d="M122.262 416.178H220.279" stroke="#B8D0FF" stroke-miterlimit="10"/>
<path d="M122.262 423.767H220.279" stroke="#B8D0FF" stroke-miterlimit="10"/>
<path d="M143.021 322.364H122.262V332.908H143.021V322.364Z" fill="#B8D0FF"/>
<path d="M168.769 322.364H148.01V332.908H168.769V322.364Z" fill="#B8D0FF"/>
<path d="M194.531 322.364H173.771V332.908H194.531V322.364Z" fill="#B8D0FF"/>
<path d="M220.279 322.364H199.52V332.908H220.279V322.364Z" fill="#B8D0FF"/>
<path d="M143.021 336.99H122.262V347.534H143.021V336.99Z" fill="#B8D0FF"/>
<path d="M168.769 336.99H148.01V347.534H168.769V336.99Z" fill="#B8D0FF"/>
<path d="M194.531 336.99H173.771V347.534H194.531V336.99Z" fill="#B8D0FF"/>
<path d="M220.279 336.99H199.52V347.534H220.279V336.99Z" fill="#B8D0FF"/>
<path d="M143.021 351.604H122.262V362.148H143.021V351.604Z" fill="#B8D0FF"/>
<path d="M168.769 351.604H148.01V362.148H168.769V351.604Z" fill="#B8D0FF"/>
<path d="M194.531 351.604H173.771V362.148H194.531V351.604Z" fill="#B8D0FF"/>
<path d="M220.279 351.604H199.52V362.148H220.279V351.604Z" fill="#B8D0FF"/>
<path d="M143.021 366.219H122.262V376.762H143.021V366.219Z" fill="#B8D0FF"/>
<path d="M168.769 366.219H148.01V376.762H168.769V366.219Z" fill="#B8D0FF"/>
<path d="M194.531 366.219H173.771V376.762H194.531V366.219Z" fill="#B8D0FF"/>
<path d="M220.279 366.219H199.52V376.762H220.279V366.219Z" fill="#B8D0FF"/>
<path d="M310.738 252.862H142.078V258.6H310.738V252.862Z" fill="#89A4D9"/>
<path d="M248.077 258.6H126.307L109.073 185.874H230.83L248.077 258.6Z" fill="white"/>
<path d="M226.825 187.529L243.676 258.601" stroke="#89A4D9" stroke-width="0.8758" stroke-miterlimit="10"/>
<path d="M189.228 221.391C190.581 227.129 185.784 231.775 178.5 231.775C171.215 231.775 164.204 227.129 162.851 221.391C161.498 215.653 166.295 211.007 173.58 211.007C180.864 211.019 187.875 215.666 189.228 221.391Z" stroke="#89A4D9" stroke-width="0.759" stroke-miterlimit="10"/>
<path d="M158.095 128.693H86.4136C78.6509 128.693 72.3643 134.333 72.3643 141.297V169.985C72.3643 176.949 78.6509 182.588 86.4136 182.588H105.67C109.606 182.588 113.05 184.967 114.061 188.375L122.261 216.107L130.461 188.375C131.473 184.967 134.917 182.588 138.853 182.588H158.109C165.872 182.588 172.158 176.949 172.158 169.985V141.297C172.145 134.333 165.858 128.693 158.095 128.693Z" fill="#9EC0FF"/>
<path d="M149.485 142.143H98.6182V172.4H149.485V142.143Z" stroke="white" stroke-width="0.8758" stroke-miterlimit="10"/>
<path d="M102.254 145.343L124.066 160.104L145.878 145.343" stroke="white" stroke-width="0.8758" stroke-miterlimit="10"/>
<path d="M128.371 157.186L145.878 169.213" stroke="white" stroke-width="0.8758" stroke-miterlimit="10"/>
<path d="M102.254 169.213L119.884 157.271" stroke="white" stroke-width="0.8758" stroke-miterlimit="10"/>
<path d="M109.674 142.143C109.674 146.961 105.315 150.872 99.9299 150.872C94.5452 150.872 90.1855 146.961 90.1855 142.143C90.1855 137.312 94.5452 133.401 99.9299 133.401C105.315 133.414 109.674 137.325 109.674 142.143Z" fill="#2E6ADB"/>
<path d="M94.0664 141.285L98.7131 144.865L105.806 139.434" stroke="white" stroke-width="0.75" stroke-miterlimit="10" stroke-linecap="round" stroke-linejoin="round"/>
<path d="M524.185 96.2285L531.551 132.8H599.146L591.78 96.2285H524.185Z" fill="#5181DB"/>
<path d="M598.34 84.6426H531.77V132.8H598.34V84.6426Z" fill="white"/>
<path d="M573.494 91.0176L566.223 99.2073H538.138L531.77 132.8H599.365L607.278 91.0176H573.494Z" fill="#9EC0FF"/>
<path d="M95.0091 281.228C100.987 275.866 100.987 267.172 95.0091 261.809C89.0315 256.447 79.34 256.447 73.3624 261.809C67.3848 267.172 67.3848 275.866 73.3624 281.228C79.34 286.59 89.0315 286.59 95.0091 281.228Z" fill="#2E6ADB"/>
<path d="M648.317 89.0412C650.251 81.6587 645.147 74.268 636.917 72.5336C628.687 70.7993 620.449 75.378 618.515 82.7606C616.582 90.1432 621.686 97.5339 629.916 99.2683C638.145 101.003 646.384 96.4238 648.317 89.0412Z" fill="#2E6ADB"/>
<path d="M747.65 360.044C749.602 352.665 744.516 345.264 736.291 343.513C728.066 341.762 719.815 346.324 717.863 353.703C715.911 361.082 720.997 368.483 729.222 370.234C737.448 371.985 745.698 367.423 747.65 360.044Z" fill="#2E6ADB"/>
<path d="M285.327 207.574C291.305 202.211 291.305 193.517 285.327 188.155C279.35 182.793 269.658 182.793 263.681 188.155C257.703 193.517 257.703 202.211 263.681 207.574C269.658 212.936 279.35 212.936 285.327 207.574Z" fill="#2E6ADB"/>
<path d="M421.605 550.77C428.217 546.046 429.308 537.407 424.041 531.475C418.775 525.543 409.145 524.565 402.532 529.289C395.92 534.014 394.829 542.652 400.096 548.584C405.362 554.516 414.992 555.495 421.605 550.77Z" fill="#2E6ADB"/>
<path d="M0 612.999H379.892C379.373 563.456 317.627 515.655 246.137 515.888C243.403 471.862 195.392 429.921 131.856 444.633C110.413 401.477 57.5503 368.265 0 369.319V612.999Z" fill="white"/>
<path d="M0 612.999H299.942C299.177 585.414 252.929 558.111 202.267 558.111C180.701 512.884 137.733 500.587 82.3827 509.549C63.099 471.506 21.8393 466.737 0 467.093V612.999Z" fill="#E8F0FF"/>
<path d="M820 613H440.107C440.627 563.457 502.373 515.655 573.863 515.888C576.596 471.862 624.607 429.921 688.144 444.633C709.573 401.478 762.436 368.278 819.986 369.332V613H820Z" fill="white"/>
<path d="M820 613H520.058C520.823 585.415 567.071 558.112 617.733 558.112C639.299 512.885 682.267 500.588 737.617 509.55C756.901 471.495 798.161 466.738 820 467.094V613Z" fill="#E8F0FF"/>
<path d="M410.083 223.315C461.687 223.315 503.522 185.787 503.522 139.493C503.522 93.2001 461.687 55.6719 410.083 55.6719C358.478 55.6719 316.644 93.2001 316.644 139.493C316.644 185.787 358.478 223.315 410.083 223.315Z" stroke="white" stroke-miterlimit="10"/>
<path d="M467.944 191.408C499.903 162.739 499.903 116.257 467.944 87.5878C435.986 58.9186 384.171 58.9186 352.212 87.5878C320.253 116.257 320.253 162.739 352.212 191.408C384.171 220.078 435.986 220.078 467.944 191.408Z" stroke="white" stroke-miterlimit="10"/>
<path d="M410.055 326.238L252.957 354.547L410.055 443.162L567.14 354.547L410.055 326.238Z" fill="#141D30"/>
<path d="M487.313 329.229L481.669 318.857L511.913 198.66L433.507 177.512H410.055H386.603L308.198 198.66L338.428 318.857L332.784 329.229L301.528 344.603L374.317 391.253C385.127 397.052 399.122 391.988 402.416 381.077L410.055 355.846L417.695 381.077C420.989 391.976 434.983 397.039 445.794 391.253L518.582 344.603L487.313 329.229Z" fill="#26395E"/>
<path d="M386.645 180.307H433.453L410.056 281.868L386.645 180.307Z" fill="#DEDEDE"/>
<path d="M387.19 182.648L418.35 279.809L404.274 288.33L387.19 182.648Z" fill="#ABABAB"/>
<path d="M469.424 214.291C469.424 214.291 454.759 190.801 433.453 180.307L410.056 281.881L386.658 180.307C365.352 190.801 350.688 214.291 350.688 214.291L371.83 225.325L350.688 224.982C350.688 224.982 369.534 263.221 415.071 299.327C426.619 287.606 455.21 256.723 469.424 224.982L448.281 225.325L469.424 214.291Z" fill="#141D30"/>
<path d="M388.448 172.399H431.553L410.001 190.789L388.448 172.399Z" fill="white"/>
<path d="M433.452 139.003C433.452 139.003 436.145 130.041 438.058 122.219C439.985 114.41 435.748 110.732 432.414 109.346C429.53 95.3821 418.87 89.5709 408.36 89.5586C407.431 89.5586 407.048 90.6497 407.827 91.1156C411.804 93.4573 413.444 96.8165 413.444 96.8165C413.444 96.8165 399.86 93.9477 386.535 100.96C373.21 107.973 375.642 113.147 381.915 116.359C381.915 116.359 382.435 127.503 385.892 138.66L433.452 139.003Z" fill="#142F61"/>
<path d="M410.055 281.869C413.717 298.42 421.603 316.357 421.603 316.357L411.039 352.793" stroke="#141D30" stroke-width="0.7631" stroke-miterlimit="10"/>
<path d="M410.192 319.912C412.562 319.912 414.483 318.189 414.483 316.063C414.483 313.936 412.562 312.213 410.192 312.213C407.822 312.213 405.9 313.936 405.9 316.063C405.9 318.189 407.822 319.912 410.192 319.912Z" fill="#DEDEDE"/>
<path d="M405.709 350.696C405.709 352.817 403.782 354.546 401.417 354.546C399.053 354.546 397.126 352.817 397.126 350.696C397.126 348.575 399.053 346.847 401.417 346.847C403.782 346.847 405.709 348.575 405.709 350.696Z" fill="#DEDEDE"/>
<path d="M391.811 294.056L412.434 310.374" stroke="#141D30" stroke-width="0.7631" stroke-miterlimit="10"/>
<path d="M407.95 321.983L393.341 330.492" stroke="#141D30" stroke-width="0.7631" stroke-miterlimit="10"/>
<path d="M384.069 339.984L344.435 330.572L342.994 335.455L382.628 344.867L384.069 339.984Z" fill="#496EB5"/>
<path d="M437.491 344.877L477.126 335.465L475.685 330.582L436.05 339.994L437.491 344.877Z" fill="#496EB5"/>
<path d="M468.795 454.307L498.479 469.472L492.821 501.471L455.251 481.414L468.795 454.307Z" fill="white"/>
<path d="M489.308 463.231L491.263 488.487L484.402 483.681L470.749 494.298L485.359 502.954L496.729 529.84L501.731 546.477C502.401 548.684 505.462 549.419 507.28 547.813C511.462 544.135 517.298 537.012 517.762 525.733C518.5 507.392 514.291 492.521 514.291 492.521L519.635 493.317L521.616 471.728L515.945 471.372C515.931 471.372 505.558 461.576 489.308 463.231Z" fill="#141D30"/>
<path d="M218.476 380.967C224.12 354.816 264.082 344.138 302.007 362.393C339.932 380.648 477.787 449.415 477.787 449.415L454.472 504.119C439.425 499.582 437.881 493.367 425.84 489.407C415.905 486.133 412.966 490.277 397.209 485.447C381.451 480.616 376.312 475.344 367.224 472.512C352.806 468.025 339.399 469.313 326.046 465.242C303.537 458.401 284.172 452.48 274.332 449.402C234.398 436.934 212.832 407.118 218.476 380.967Z" fill="#26395E"/>
<path d="M443.197 492.055L457.069 439.092C461.524 441.311 465.419 443.248 468.576 444.829L443.197 492.055Z" fill="#141D30"/>
<path d="M468.59 455.851L324.447 373.329" stroke="#141D30" stroke-width="0.7631" stroke-miterlimit="10"/>
<path d="M515.083 473.641L513.416 489.64" stroke="#496EB5" stroke-width="0.6883" stroke-miterlimit="10"/>
<path d="M454.486 504.131C448.035 502.182 444.058 499.926 440.683 497.67L465.255 443.162C473.127 447.085 477.815 449.415 477.815 449.415L454.486 504.131Z" fill="#496EB5"/>
<path d="M519.894 490.302L521.602 471.716L515.931 471.36C515.931 471.36 505.558 461.564 489.308 463.219L489.431 464.85L474.466 457.2L477.787 449.402C477.787 449.402 433.821 427.469 388.721 405.095L298.152 456.746C306.434 459.272 315.905 462.165 326.046 465.242C339.398 469.3 352.805 468.025 367.224 472.512C376.298 475.332 381.451 480.616 397.208 485.447C412.966 490.277 415.918 486.133 425.84 489.407C437.88 493.379 439.438 499.583 454.472 504.119L462.508 485.275L474.261 491.552L470.735 494.286L485.345 502.942L485.741 503.874L514.277 492.533V492.521H514.304L519.894 490.302Z" fill="#141D30"/>
<path d="M601.621 380.967C595.977 354.816 556.015 344.138 518.09 362.393C480.165 380.648 342.31 449.415 342.31 449.415L365.625 504.119C380.672 499.582 382.216 493.367 394.257 489.407C404.192 486.133 407.131 490.277 422.888 485.447C438.646 480.616 443.785 475.344 452.873 472.512C467.291 468.025 480.698 469.313 494.051 465.242C516.56 458.401 535.925 452.48 545.765 449.402C585.713 436.934 607.265 407.118 601.621 380.967Z" fill="#26395E"/>
<path d="M376.9 492.055L363.029 439.092C358.574 441.311 354.678 443.248 351.521 444.829L376.9 492.055Z" fill="#141D30"/>
<path d="M351.508 455.851L495.65 373.329" stroke="#141D30" stroke-width="0.7631" stroke-miterlimit="10"/>
<path d="M351.302 454.307L321.618 469.472L327.276 501.471L364.846 481.414L351.302 454.307Z" fill="white"/>
<path d="M330.788 463.231L328.834 488.487L335.695 483.681L349.348 494.298L334.738 502.954L323.367 529.84L318.365 546.477C317.696 548.684 314.634 549.419 312.817 547.813C308.635 544.135 302.799 537.012 302.334 525.733C301.596 507.392 305.806 492.521 305.806 492.521L300.462 493.317L298.48 471.728L304.152 471.372C304.166 471.372 314.539 461.576 330.788 463.231Z" fill="#141D30"/>
<path d="M305.014 473.641L306.681 489.64" stroke="#496EB5" stroke-width="0.6883" stroke-miterlimit="10"/>
<path d="M365.611 504.131C372.062 502.182 376.039 499.926 379.415 497.67L354.842 443.162C346.97 447.085 342.282 449.415 342.282 449.415L365.611 504.131Z" fill="#496EB5"/>
<path d="M172.323 318.073C164.492 314.223 180.646 280.373 180.646 280.373L194.245 285.633C194.245 285.645 180.209 321.959 172.323 318.073Z" fill="#ABABAB"/>
<path d="M199.944 287.839L170.123 276.315C170.123 276.315 172.036 268.505 165.121 262.608C161.185 259.249 156.183 255.951 156.183 255.951L153.122 258.501L158.411 264.141L158.247 271.276L143.787 271.313L126.977 266.654L125.734 270.271L123.807 269.413L121.688 274.672L125.255 276.572L123.602 280.361L130.9 285.105L138.977 286.662L129.847 286.748L124.654 283.904L123.602 286.748L130.134 290.108C130.134 290.108 144.84 295.306 161.458 291.75L188.655 312.384L199.944 287.839Z" fill="#FF8C8C"/>
<path d="M188.669 312.371L199.944 287.839L176.752 278.877C178.761 286.074 178.734 294.214 177.326 303.777L188.669 312.371Z" fill="#D45151"/>
<path d="M175.016 337.738C168.197 334.403 178.693 316.111 178.693 316.111L200.833 324.595C200.846 324.583 182.533 341.404 175.016 337.738Z" fill="#141D30"/>
<path d="M205 289.114L188.477 283.303C188.477 283.303 183.735 314.284 172.337 318.084L205 336.523V289.114Z" fill="white"/>
<path d="M286.426 359.107C287.219 358.347 287.684 357.624 287.889 356.913C258.164 348.049 229.956 355.981 220.854 374.199C238.579 386.3 272.254 372.728 286.426 359.107Z" fill="#141D30"/>
<path d="M308.184 198.66L328.178 278.129L303.387 338.718C293.287 363.386 261.731 374.91 235.299 363.582L175.029 337.738C175.029 337.738 189.639 341.183 205.014 289.114L246.137 304.979L290.731 229.47C290.718 229.457 290.69 216.131 308.184 198.66Z" fill="#26395E"/>
<path d="M191.184 323.553L235.108 342.899" stroke="#141D30" stroke-width="0.7631" stroke-miterlimit="10"/>
<path d="M205.574 323.247C207.219 323.247 208.553 322.05 208.553 320.574C208.553 319.098 207.219 317.901 205.574 317.901C203.929 317.901 202.595 319.098 202.595 320.574C202.595 322.05 203.929 323.247 205.574 323.247Z" fill="#DEDEDE"/>
<path d="M225.76 328.91C225.76 330.381 224.421 331.583 222.781 331.583C221.141 331.583 219.802 330.381 219.802 328.91C219.802 327.439 221.141 326.237 222.781 326.237C224.435 326.237 225.76 327.439 225.76 328.91Z" fill="#DEDEDE"/>
<path d="M246.123 304.979L272.527 315.547" stroke="#141D30" stroke-width="0.7631" stroke-miterlimit="10"/>
<path d="M252.957 303.937L280.14 304.979" stroke="#141D30" stroke-width="0.7631" stroke-miterlimit="10"/>
<path d="M314.389 223.315C312.626 228.514 308.567 243.986 312.188 268.163C312.639 271.154 312.393 274.219 311.314 277.076C305 293.982 309.592 309.883 312.325 316.859L328.178 278.118L314.389 223.315Z" fill="#141D30"/>
<path d="M125.72 270.283L142.543 275.665L148.434 276.131" stroke="#D45151" stroke-miterlimit="10"/>
<path d="M125.256 276.572L136.517 281.01L146.453 281.82" stroke="#D45151" stroke-miterlimit="10"/>
<path d="M149.268 274.01L145.674 285.264" stroke="#D45151" stroke-miterlimit="10"/>
<path d="M148.435 284.162C152.152 281.587 158.999 278.718 165.286 282.445" stroke="#D45151" stroke-miterlimit="10"/>
<path d="M647.773 318.073C655.604 314.223 639.45 280.373 639.45 280.373L625.852 285.633C625.852 285.645 639.901 321.959 647.773 318.073Z" fill="#ABABAB"/>
<path d="M620.166 287.839L649.987 276.315C649.987 276.315 648.073 268.505 654.989 262.608C658.925 259.249 663.927 255.951 663.927 255.951L666.988 258.501L661.699 264.141L661.863 271.276L676.322 271.313L693.132 266.654L694.376 270.271L696.303 269.413L698.421 274.672L694.854 276.572L696.508 280.361L689.21 285.105L681.133 286.662L690.262 286.748L695.456 283.904L696.508 286.748L689.975 290.108C689.975 290.108 675.27 295.306 658.651 291.75L631.455 312.384L620.166 287.839Z" fill="#FF8C8C"/>
<path d="M631.441 312.371L620.166 287.839L643.358 278.877C641.349 286.074 641.377 294.214 642.771 303.777L631.441 312.371Z" fill="#D45151"/>
<path d="M645.08 337.738C651.9 334.403 641.404 316.111 641.404 316.111L619.264 324.595C619.264 324.583 637.577 341.404 645.08 337.738Z" fill="#141D30"/>
<path d="M615.109 289.114L631.632 283.303C631.632 283.303 636.375 314.284 647.773 318.084L615.096 336.536V289.114H615.109Z" fill="white"/>
<path d="M533.683 359.107C532.89 358.347 532.426 357.624 532.221 356.913C561.946 348.049 590.154 355.981 599.256 374.199C581.53 386.3 547.855 372.728 533.683 359.107Z" fill="#141D30"/>
<path d="M511.912 198.66L491.918 278.129L516.709 338.718C526.809 363.386 558.365 374.91 584.797 363.582L645.067 337.738C645.067 337.738 630.457 341.183 615.082 289.114L573.959 304.979L529.365 229.47C529.392 229.457 529.419 216.131 511.912 198.66Z" fill="#26395E"/>
<path d="M628.927 323.553L585.002 342.899" stroke="#141D30" stroke-width="0.7631" stroke-miterlimit="10"/>
<path d="M614.535 323.247C616.18 323.247 617.514 322.05 617.514 320.574C617.514 319.098 616.18 317.901 614.535 317.901C612.89 317.901 611.556 319.098 611.556 320.574C611.556 322.05 612.89 323.247 614.535 323.247Z" fill="#DEDEDE"/>
<path d="M594.336 328.91C594.336 330.381 595.675 331.583 597.315 331.583C598.955 331.583 600.295 330.381 600.295 328.91C600.295 327.439 598.955 326.237 597.315 326.237C595.675 326.237 594.336 327.439 594.336 328.91Z" fill="#DEDEDE"/>
<path d="M573.972 304.979L547.582 315.547" stroke="#141D30" stroke-width="0.7631" stroke-miterlimit="10"/>
<path d="M567.153 303.937L539.956 304.979" stroke="#141D30" stroke-width="0.7631" stroke-miterlimit="10"/>
<path d="M505.721 223.315C507.484 228.514 511.543 243.986 507.922 268.163C507.471 271.154 507.717 274.219 508.796 277.076C515.11 293.982 510.518 309.883 507.785 316.859L491.932 278.118L505.721 223.315Z" fill="#141D30"/>
<path d="M694.376 270.283L677.566 275.665L671.676 276.131" stroke="#D45151" stroke-miterlimit="10"/>
<path d="M694.854 276.572L683.593 281.01L673.657 281.82" stroke="#D45151" stroke-miterlimit="10"/>
<path d="M670.842 274.01L674.422 285.264" stroke="#D45151" stroke-miterlimit="10"/>
<path d="M671.675 284.162C667.958 281.587 661.111 278.718 654.824 282.445" stroke="#D45151" stroke-miterlimit="10"/>
<path d="M426.017 150.381H410H393.983L392.315 177.279L410 186.597L427.685 177.279L426.017 150.381Z" fill="#FF8C8C"/>
<path d="M414.292 194.174H405.709L401.65 181.815H418.351L414.292 194.174Z" fill="#125EC9"/>
<path d="M416.082 169.101C418.829 169.101 422.834 168.513 427.029 166.845L426.004 150.393H410.001H393.983L393.478 158.57C400.407 166.833 410.698 169.101 416.082 169.101Z" fill="#D45151"/>
<path d="M389.356 146.761C392.742 145.19 393.843 141.069 391.818 137.557C389.792 134.045 385.405 132.473 382.02 134.044C378.635 135.616 377.533 139.737 379.559 143.248C381.585 146.76 385.971 148.333 389.356 146.761Z" fill="#D45151"/>
<path d="M381.766 139.383C382.736 135.558 387.369 135.178 391.223 139.579" stroke="#FF8C8C" stroke-width="0.7091" stroke-miterlimit="10"/>
<path d="M428.163 137.569C426.141 141.075 427.248 145.194 430.637 146.776C434.026 148.357 438.413 146.776 440.436 143.27C442.459 139.763 441.352 135.644 437.962 134.062C434.573 132.481 430.2 134.062 428.163 137.569Z" fill="#D45151"/>
<path d="M438.236 139.383C437.265 135.558 432.632 135.178 428.778 139.579" stroke="#FF8C8C" stroke-width="0.7091" stroke-miterlimit="10"/>
<path d="M431.553 129.833C428.751 126.977 427.508 123.164 428.15 119.4C428.424 117.806 427.043 116.359 425.239 116.359H410.001H394.749C392.945 116.359 391.564 117.806 391.838 119.4C392.48 123.151 391.237 126.977 388.435 129.833L386.535 131.77C387.82 155.677 403.454 160.961 409.987 160.961C416.52 160.961 432.154 155.677 433.439 131.77L431.553 129.833Z" fill="#FF8C8C"/>
<path d="M395.719 132.689C397.769 135.104 402.183 135.043 405.067 132.456" stroke="#142F61" stroke-width="0.75" stroke-miterlimit="10"/>
<path d="M394.188 127.049C397.837 125.272 401.937 124.977 405.586 127.049" stroke="#142F61" stroke-miterlimit="10"/>
<path d="M424.283 132.689C422.233 135.104 417.818 135.043 414.935 132.456" stroke="#142F61" stroke-width="0.75" stroke-miterlimit="10"/>
<path d="M425.813 127.049C422.164 125.272 418.064 124.977 414.415 127.049" stroke="#142F61" stroke-miterlimit="10"/>
<path d="M408.907 129.979V138.819L413.376 137.998" stroke="#D45151" stroke-miterlimit="10"/>
<path d="M402.347 141.664C402.347 141.664 408.374 145.403 417.653 141.664" stroke="#142F61" stroke-miterlimit="10"/>
<path d="M407.35 147.046H412.652" stroke="#D45151" stroke-miterlimit="10"/>
<path d="M407.923 181.815L402.211 192.788L383.665 180.27L388.448 172.399L407.923 181.815Z" fill="white"/>
<path d="M412.078 181.815L417.791 192.788L436.336 180.27L431.553 172.399L412.078 181.815Z" fill="white"/>
<path d="M414.292 194.173H405.709C405.709 194.173 406.42 215.088 413.198 226.122C425.321 245.812 452.025 241.754 458.804 250.839C465.596 259.923 472.894 273.826 505.189 269.572L524.923 252.212L504.423 243.703C504.423 243.703 490.456 248.987 481.231 239.559C472.006 230.131 464.066 227.14 451.123 227.496C438.181 227.851 416.916 221.415 414.292 194.173Z" fill="#125EC9"/>
<path d="M415.576 201.553C414.989 199.285 414.551 196.833 414.305 194.173H405.723C405.723 194.173 405.736 194.418 405.75 194.847C408.634 196.392 412.734 198.832 415.576 201.553Z" fill="#0E4899"/>
</g>
<defs>
<clipPath id="clip0_3119_214117">
<rect width="820" height="613" fill="white"/>
</clipPath>
</defs>
</svg>
