<svg width="820" height="625" viewBox="0 0 820 625" fill="none" xmlns="http://www.w3.org/2000/svg">
<path d="M368.076 597.178C563.588 597.178 722.081 587.466 722.081 575.486C722.081 563.505 563.588 553.793 368.076 553.793C172.565 553.793 14.0723 563.505 14.0723 575.486C14.0723 587.466 172.565 597.178 368.076 597.178Z" fill="#E5E5E6"/>
<path d="M96.3232 157.296L702.919 106.657C725.294 104.796 743.488 123.27 739.678 144.006L682.347 455.582C679.466 471.239 664.767 482.563 647.8 482.163L146.165 470.751C129.904 470.386 116.171 459.357 113.309 444.362L65.6784 194.836C62.1289 176.327 76.3084 158.966 96.3232 157.296Z" fill="#F2D23B"/>
<path d="M120.24 458.659C126.391 465.895 135.758 470.523 146.165 470.749L647.799 482.16C664.766 482.543 679.466 471.236 682.347 455.58L738.34 151.188L120.24 458.659Z" fill="#E8AE29"/>
<path d="M146.166 470.75L328.158 535.358C337.561 538.698 347.095 530.748 344.642 521.615L332.098 474.977L146.166 470.75Z" fill="#DA5113"/>
<path d="M507.063 505.176L646.312 508.933L667.294 553.727L507.063 505.176Z" fill="#E8AE29"/>
<path d="M495.616 537.516L549.026 581.266L522.321 624.999L495.616 537.516Z" fill="#DA5113"/>
<path d="M255.253 121.354L482.255 83.7791L428.845 44.6211L255.253 121.354Z" fill="#F2D23B"/>
<path d="M230.444 108.915L308.664 55.2839L289.578 0L230.444 108.915Z" fill="#DA5113"/>
<path d="M701.266 79.6216L740.18 30.8438L767.071 62.5389L701.266 79.6216Z" fill="#F2D23B"/>
<path d="M711.747 86.9455L819.998 72.0547L803.31 96.1479L711.747 86.9455Z" fill="#E8AE29"/>
<path d="M81.4022 498.812L55.3848 511.407L72.2775 541.989C76.9421 550.443 88.0738 553.766 97.1056 549.382C102.439 546.808 104.521 540.667 101.77 535.692L81.4022 498.812Z" fill="#9099D5"/>
<path d="M75.8633 506.657L65.0847 511.876C58.5989 515.007 50.6264 512.642 47.2813 506.57L45.1999 502.813C44.4566 501.456 45.0141 499.803 46.4636 499.09L75.4916 485.034C76.9412 484.339 78.7066 484.86 79.4686 486.217L81.55 489.975C84.8765 496.063 82.3491 503.526 75.8633 506.657Z" fill="#222C72"/>
<path d="M10.6891 464.888L29.8862 499.645C31.8004 503.089 36.0932 504.707 40.033 503.472C83.0732 489.955 125.63 483.919 167.704 485.276L102.846 367.906C79.7281 400.837 49.8639 429.853 13.1979 454.92C9.87139 457.216 8.79353 461.444 10.6891 464.888Z" fill="#BFC7FC"/>
<path d="M25.4062 491.52L29.9036 499.644C31.8177 503.089 36.1106 504.706 40.0503 503.471C83.0906 489.955 125.648 483.918 167.722 485.275L157.11 466.07C114.423 468.053 70.8996 476.403 26.5584 491.19C26.1682 491.346 25.7965 491.433 25.4062 491.52Z" fill="#9099D5"/>
<path d="M13.4583 469.828L8.64507 472.159C0.802681 475.951 -2.26366 484.98 1.78763 492.338C5.83891 499.679 15.4839 502.55 23.3449 498.757L28.1581 496.426L13.4583 469.828Z" fill="#4C5BD4"/>
<path d="M4.79883 496.147C9.59347 500.549 17.0456 501.801 23.3269 498.757L28.1402 496.426L23.0854 487.293L4.79883 496.147Z" fill="#222C72"/>
<path d="M167.725 485.252C178.09 480.233 171.976 449.892 154.068 417.482C136.16 385.073 113.24 362.868 102.875 367.886C92.5099 372.904 98.6247 403.246 116.533 435.655C134.44 468.065 157.36 490.27 167.725 485.252Z" fill="#1B2252"/>
<path d="M145.143 429.713L138.286 417.292C137.598 416.057 136.056 415.483 134.662 415.918C126.169 418.579 117.75 420.423 109.369 421.467C111.488 426.112 113.885 430.878 116.543 435.679C119.2 440.481 121.969 445.073 124.794 449.37C130.536 443.577 137.022 438.202 144.251 433.261C145.422 432.461 145.812 430.948 145.143 429.713Z" fill="#DA5113"/>
<path d="M136.744 431.329C127.118 433.834 118.904 428.285 114.276 420.77C112.622 421.03 110.987 421.274 109.352 421.483C111.47 426.127 113.867 430.894 116.525 435.695C119.182 440.496 121.951 445.089 124.776 449.386C130.519 443.593 137.004 438.218 144.233 433.277C145.423 432.46 145.813 430.946 145.144 429.711L144.141 427.884C141.892 429.398 139.457 430.616 136.744 431.329Z" fill="#A43F0F"/>
<path d="M158.45 484.493C153.916 482.441 148.657 478.37 143.119 472.716C134.347 463.758 124.888 450.85 116.525 435.698C108.162 420.546 102.364 405.847 99.6137 393.983C97.8854 386.485 97.3651 380.118 98.2014 375.474C98.8704 371.751 100.394 369.124 102.847 367.941L88.928 374.674C78.5582 379.684 84.6723 410.039 102.587 442.448C120.502 474.856 143.416 497.071 153.786 492.043L167.705 485.311C165.252 486.494 162.093 486.146 158.45 484.493Z" fill="#4C5BD4"/>
<path d="M158.45 484.495C153.916 482.443 148.657 478.372 143.119 472.719C140.61 470.161 138.064 467.274 135.481 464.125C130.667 466.143 125.854 468.161 121.078 470.283C134.105 486.444 146.798 495.437 153.786 492.045L167.705 485.313C165.252 486.496 162.093 486.148 158.45 484.495Z" fill="#222C72"/>
<path d="M160.141 409.759L203.943 378.898L207.585 399.391L160.141 409.759Z" fill="#DA5113"/>
<path d="M151.461 380.726L174.728 334.262L188.201 350.77L151.461 380.726Z" fill="#DA5113"/>
<path d="M181.086 435.49L234.106 422.426L229.2 442.692L181.086 435.49Z" fill="#DA5113"/>
<path d="M295.397 278.793L313.012 344.559L304.363 346.589L286.748 280.823L295.397 278.793ZM316.703 273.793L318.614 280.929L267.4 292.949L265.488 285.812L316.703 273.793Z" fill="#E8AE29"/>
<path d="M373.026 260.575L390.641 326.341L381.855 328.403L364.24 262.637L373.026 260.575Z" fill="#E8AE29"/>
<path d="M446.922 285.723L429.213 289.879L427.314 282.788L445.023 278.632C448.452 277.827 451.084 276.633 452.918 275.05C454.752 273.468 455.897 271.599 456.352 269.444C456.837 267.281 456.749 264.966 456.088 262.496C455.483 260.238 454.413 258.233 452.879 256.48C451.376 254.721 449.401 253.488 446.954 252.782C444.498 252.046 441.556 252.081 438.127 252.885L422.466 256.561L438.17 315.19L429.384 317.252L411.769 251.486L436.215 245.749C441.223 244.573 445.686 244.438 449.606 245.342C453.525 246.247 456.788 248.01 459.393 250.631C461.99 253.222 463.809 256.46 464.849 260.344C465.979 264.56 466.047 268.368 465.055 271.77C464.063 275.171 462.047 278.061 459.006 280.439C455.958 282.786 451.93 284.548 446.922 285.723Z" fill="#E8AE29"/>
<path d="M558.998 269.167C558.587 267.631 557.981 266.333 557.181 265.273C556.403 264.175 555.294 263.283 553.852 262.598C552.44 261.905 550.586 261.364 548.288 260.975C546.021 260.579 543.203 260.296 539.835 260.126C536.3 259.932 533.054 259.557 530.099 259.003C527.136 258.418 524.508 257.578 522.215 256.484C519.922 255.39 518.009 253.967 516.475 252.214C514.941 250.462 513.831 248.306 513.146 245.746C512.46 243.187 512.358 240.698 512.84 238.281C513.321 235.864 514.335 233.625 515.88 231.566C517.447 229.47 519.491 227.646 522.011 226.095C524.531 224.543 527.49 223.369 530.889 222.571C535.867 221.403 540.339 221.361 544.307 222.446C548.297 223.494 551.61 225.325 554.246 227.939C556.873 230.523 558.647 233.531 559.566 236.964L550.826 239.016C550.164 236.546 549.049 234.488 547.478 232.84C545.9 231.162 543.888 230.034 541.443 229.456C538.99 228.847 536.109 228.931 532.801 229.708C529.675 230.441 527.22 231.513 525.437 232.924C523.653 234.335 522.475 235.956 521.901 237.787C521.357 239.611 521.359 241.546 521.908 243.594C522.279 244.979 522.906 246.176 523.789 247.185C524.694 248.157 525.898 248.979 527.401 249.65C528.933 250.315 530.78 250.825 532.94 251.183C535.131 251.533 537.692 251.764 540.625 251.875C544.671 252.046 548.233 252.458 551.311 253.112C554.389 253.766 557.026 254.699 559.222 255.912C561.44 257.088 563.249 258.6 564.647 260.448C566.067 262.259 567.12 264.444 567.806 267.004C568.524 269.684 568.627 272.236 568.115 274.661C567.603 277.085 566.536 279.304 564.914 281.317C563.292 283.33 561.167 285.093 558.54 286.605C555.936 288.081 552.888 289.228 549.398 290.047C546.333 290.767 543.2 291.054 540 290.909C536.83 290.757 533.806 290.122 530.926 289.006C528.077 287.882 525.593 286.257 523.475 284.129C521.379 281.965 519.891 279.241 519.012 275.959L527.753 273.908C528.358 276.166 529.318 278.005 530.634 279.425C531.941 280.814 533.495 281.858 535.295 282.555C537.125 283.246 539.08 283.619 541.159 283.676C543.261 283.694 545.374 283.454 547.499 282.956C550.564 282.236 553.046 281.206 554.944 279.864C556.843 278.522 558.129 276.94 558.802 275.118C559.506 273.289 559.571 271.305 558.998 269.167Z" fill="#E8AE29"/>
<path d="M270.58 229.208L271.524 232.733L253.696 236.917L252.752 233.393L270.58 229.208ZM249.667 219.18L258.421 251.866L254.054 252.891L245.3 220.205L249.667 219.18ZM270.618 214.263L279.372 246.949L275.028 247.968L266.274 215.283L270.618 214.263ZM307.117 236.691L308.061 240.216L290.617 244.31L289.673 240.785L307.117 236.691ZM282.745 211.417L291.499 244.103L287.133 245.127L278.378 212.442L282.745 211.417ZM300.763 222.125L301.707 225.649L286.57 229.202L285.626 225.677L300.763 222.125ZM299.08 207.583L300.03 211.13L282.812 215.171L281.862 211.624L299.08 207.583ZM332.502 230.733L333.446 234.258L316.975 238.124L316.031 234.599L332.502 230.733ZM309.08 205.236L317.835 237.922L313.468 238.947L304.714 206.261L309.08 205.236ZM347.163 217.415L338.362 219.48L337.418 215.956L346.219 213.89C347.923 213.49 349.231 212.897 350.143 212.11C351.055 211.324 351.623 210.395 351.85 209.324C352.091 208.249 352.047 207.098 351.718 205.871C351.418 204.749 350.886 203.752 350.124 202.881C349.377 202.007 348.395 201.394 347.179 201.043C345.959 200.677 344.496 200.694 342.792 201.094L335.009 202.921L342.813 232.059L338.447 233.084L329.692 200.399L341.842 197.548C344.331 196.963 346.549 196.896 348.497 197.346C350.445 197.795 352.066 198.671 353.361 199.974C354.652 201.262 355.556 202.871 356.073 204.801C356.634 206.897 356.668 208.789 356.175 210.48C355.682 212.17 354.68 213.606 353.169 214.788C351.654 215.955 349.652 216.831 347.163 217.415ZM363.29 192.514L372.045 225.199L367.678 226.224L358.924 193.539L363.29 192.514ZM381.03 203.978L381.98 207.525L367.229 210.987L366.279 207.441L381.03 203.978ZM379.332 188.749L380.282 192.296L363.29 196.284L362.34 192.737L379.332 188.749ZM403.382 183.104L407.726 182.085L413.649 204.197C414.306 206.651 414.303 208.823 413.639 210.713C412.975 212.603 411.84 214.173 410.236 215.425C408.642 216.658 406.782 217.524 404.655 218.023C402.423 218.547 400.293 218.617 398.267 218.234C396.252 217.832 394.497 216.939 393.005 215.556C391.527 214.169 390.459 212.248 389.802 209.794L383.879 187.682L388.201 186.667L394.123 208.779C394.58 210.485 395.274 211.818 396.204 212.777C397.134 213.735 398.237 214.351 399.513 214.625C400.803 214.894 402.203 214.852 403.711 214.498C405.235 214.141 406.49 213.56 407.477 212.756C408.479 211.948 409.148 210.916 409.485 209.66C409.822 208.404 409.762 206.922 409.305 205.216L403.382 183.104ZM442.371 204.948L443.315 208.472L426.843 212.338L425.899 208.814L442.371 204.948ZM418.949 179.451L427.703 212.136L423.336 213.161L414.582 180.476L418.949 179.451Z" fill="#E8AE29"/>
<path d="M282.212 273.851L299.827 339.617L291.177 341.647L273.562 275.881L282.212 273.851ZM303.517 268.851L305.429 275.988L254.214 288.008L252.302 280.871L303.517 268.851Z" fill="#1B2252"/>
<path d="M359.841 255.634L377.456 321.4L368.669 323.462L351.054 257.696L359.841 255.634Z" fill="#1B2252"/>
<path d="M433.736 280.782L416.028 284.938L414.128 277.846L431.837 273.69C435.267 272.885 437.898 271.692 439.732 270.109C441.566 268.526 442.711 266.657 443.166 264.502C443.651 262.34 443.563 260.024 442.902 257.555C442.297 255.297 441.228 253.291 439.694 251.539C438.19 249.779 436.215 248.547 433.768 247.841C431.313 247.105 428.371 247.139 424.941 247.944L409.281 251.619L424.984 310.248L416.198 312.311L398.583 246.545L423.03 240.807C428.037 239.632 432.501 239.497 436.42 240.401C440.34 241.305 443.602 243.068 446.208 245.689C448.805 248.28 450.623 251.518 451.664 255.403C452.793 259.618 452.862 263.427 451.869 266.828C450.877 270.23 448.861 273.119 445.821 275.497C442.772 277.845 438.744 279.606 433.736 280.782Z" fill="#1B2252"/>
<path d="M545.813 264.226C545.402 262.69 544.796 261.392 543.996 260.331C543.218 259.234 542.108 258.342 540.666 257.656C539.255 256.963 537.4 256.422 535.103 256.033C532.835 255.637 530.018 255.354 526.65 255.185C523.114 254.99 519.869 254.616 516.914 254.061C513.951 253.476 511.323 252.637 509.03 251.543C506.737 250.449 504.823 249.025 503.289 247.273C501.756 245.521 500.646 243.365 499.96 240.805C499.275 238.245 499.173 235.757 499.654 233.34C500.136 230.922 501.149 228.684 502.694 226.625C504.262 224.529 506.306 222.705 508.825 221.153C511.345 219.602 514.305 218.427 517.704 217.63C522.681 216.461 527.154 216.42 531.122 217.505C535.112 218.553 538.425 220.384 541.06 222.998C543.688 225.582 545.461 228.59 546.381 232.023L537.64 234.074C536.979 231.605 535.863 229.546 534.293 227.899C532.714 226.221 530.702 225.093 528.257 224.514C525.804 223.906 522.923 223.99 519.615 224.766C516.489 225.5 514.035 226.572 512.251 227.983C510.468 229.393 509.289 231.014 508.715 232.845C508.171 234.669 508.174 236.605 508.722 238.653C509.093 240.038 509.72 241.235 510.603 242.244C511.509 243.216 512.713 244.037 514.215 244.709C515.748 245.373 517.594 245.884 519.755 246.241C521.945 246.591 524.507 246.822 527.44 246.934C531.485 247.105 535.047 247.517 538.126 248.171C541.204 248.824 543.841 249.758 546.037 250.971C548.255 252.147 550.063 253.658 551.461 255.507C552.882 257.318 553.935 259.503 554.62 262.063C555.338 264.743 555.441 267.295 554.929 269.719C554.417 272.144 553.35 274.363 551.728 276.376C550.106 278.389 547.982 280.151 545.355 281.664C542.75 283.14 539.703 284.287 536.212 285.106C533.147 285.825 530.014 286.112 526.814 285.967C523.645 285.815 520.62 285.181 517.74 284.064C514.891 282.941 512.407 281.315 510.289 279.188C508.193 277.023 506.706 274.3 505.827 271.018L514.567 268.966C515.172 271.225 516.133 273.064 517.448 274.483C518.756 275.873 520.31 276.916 522.109 277.614C523.939 278.305 525.894 278.678 527.974 278.734C530.075 278.753 532.189 278.513 534.313 278.014C537.378 277.295 539.86 276.264 541.759 274.923C543.657 273.581 544.943 271.999 545.617 270.177C546.32 268.347 546.386 266.364 545.813 264.226Z" fill="#1B2252"/>
<path d="M257.395 224.267L258.339 227.791L240.51 231.976L239.566 228.451L257.395 224.267ZM236.481 214.239L245.236 246.924L240.869 247.949L232.114 215.264L236.481 214.239ZM257.432 209.322L266.187 242.007L261.843 243.027L253.088 210.342L257.432 209.322ZM293.931 231.75L294.875 235.274L277.431 239.368L276.487 235.844L293.931 231.75ZM269.559 206.476L278.314 239.161L273.947 240.186L265.192 207.501L269.559 206.476ZM287.577 217.183L288.521 220.708L273.385 224.26L272.441 220.736L287.577 217.183ZM285.895 202.642L286.845 206.189L269.627 210.23L268.677 206.683L285.895 202.642ZM319.317 225.792L320.261 229.316L303.79 233.182L302.846 229.658L319.317 225.792ZM295.895 200.295L304.649 232.98L300.283 234.005L291.528 201.32L295.895 200.295ZM333.978 212.473L325.176 214.539L324.232 211.014L333.034 208.949C334.738 208.549 336.046 207.955 336.957 207.169C337.869 206.382 338.438 205.454 338.664 204.382C338.905 203.308 338.861 202.157 338.533 200.93C338.232 199.807 337.701 198.811 336.938 197.94C336.191 197.065 335.209 196.453 333.993 196.102C332.773 195.736 331.311 195.753 329.606 196.153L321.823 197.98L329.628 227.118L325.261 228.143L316.506 195.458L328.656 192.606C331.145 192.022 333.363 191.955 335.311 192.404C337.259 192.854 338.881 193.73 340.176 195.032C341.466 196.32 342.37 197.929 342.887 199.86C343.449 201.955 343.483 203.848 342.99 205.538C342.496 207.229 341.494 208.665 339.983 209.847C338.468 211.014 336.466 211.889 333.978 212.473ZM350.105 187.572L358.86 220.258L354.493 221.282L345.738 188.597L350.105 187.572ZM367.845 199.037L368.795 202.584L354.043 206.046L353.093 202.499L367.845 199.037ZM366.146 183.807L367.096 187.354L350.105 191.342L349.155 187.795L366.146 183.807ZM390.197 178.163L394.541 177.143L400.463 199.255C401.121 201.71 401.117 203.882 400.453 205.772C399.789 207.661 398.655 209.232 397.05 210.483C395.457 211.716 393.596 212.582 391.47 213.081C389.237 213.605 387.108 213.676 385.081 213.292C383.066 212.89 381.312 211.998 379.819 210.614C378.341 209.227 377.274 207.307 376.616 204.852L370.694 182.74L375.015 181.726L380.938 203.838C381.395 205.544 382.088 206.876 383.019 207.835C383.949 208.794 385.052 209.41 386.327 209.683C387.618 209.953 389.017 209.911 390.526 209.557C392.049 209.199 393.304 208.618 394.291 207.814C395.293 207.006 395.963 205.974 396.3 204.718C396.636 203.462 396.576 201.981 396.119 200.275L390.197 178.163ZM429.185 200.007L430.129 203.531L413.658 207.397L412.714 203.872L429.185 200.007ZM405.763 174.51L414.518 207.195L410.151 208.22L401.396 175.535L405.763 174.51Z" fill="#1B2252"/>
<path d="M773.446 139.202C783.035 139.202 783.035 125.285 773.446 125.285C763.875 125.285 763.875 139.202 773.446 139.202Z" fill="#DA5113"/>
<path d="M633.489 79.0104C643.078 79.0104 643.078 65.0938 633.489 65.0938C623.9 65.0938 623.9 79.0104 633.489 79.0104Z" fill="#DA5113"/>
<path d="M183.352 117.96C192.941 117.96 192.941 104.043 183.352 104.043C173.763 104.043 173.763 117.96 183.352 117.96Z" fill="#DA5113"/>
<path d="M417.878 518.081C427.468 518.081 427.468 504.164 417.878 504.164C408.289 504.164 408.289 518.081 417.878 518.081Z" fill="#DA5113"/>
<path d="M211.728 544.632C221.317 544.632 221.317 530.715 211.728 530.715C202.139 530.715 202.139 544.632 211.728 544.632Z" fill="#DA5113"/>
<path d="M54.7506 371.124C64.3398 371.124 64.3398 357.207 54.7506 357.207C45.1613 357.207 45.1613 371.124 54.7506 371.124Z" fill="#DA5113"/>
<path d="M771.569 275.53C781.158 275.53 781.158 261.613 771.569 261.613C761.98 261.613 761.98 275.53 771.569 275.53Z" fill="#DA5113"/>
<path d="M743.188 479.128C752.777 479.128 752.777 465.211 743.188 465.211C733.599 465.211 733.599 479.128 743.188 479.128Z" fill="#DA5113"/>
<path d="M675.098 229.503C684.687 229.503 684.687 215.586 675.098 215.586C665.509 215.586 665.509 229.503 675.098 229.503Z" fill="#DA5113"/>
<path d="M115.26 195.858C124.849 195.858 124.849 181.941 115.26 181.941C105.689 181.941 105.689 195.858 115.26 195.858Z" fill="#DA5113"/>
<path d="M561.625 102.948C567.609 102.948 567.609 94.25 561.625 94.25C555.622 94.25 555.622 102.948 561.625 102.948Z" fill="#E8AE29"/>
<path d="M775.342 202.104C781.326 202.104 781.326 193.406 775.342 193.406C769.358 193.406 769.358 202.104 775.342 202.104Z" fill="#E8AE29"/>
<path d="M120.945 141.897C126.929 141.897 126.929 133.199 120.945 133.199C114.943 133.199 114.943 141.897 120.945 141.897Z" fill="#E8AE29"/>
<path d="M54.7508 283.534C60.7348 283.534 60.7348 274.836 54.7508 274.836C48.7668 274.836 48.7482 283.534 54.7508 283.534Z" fill="#E8AE29"/>
<path d="M644.844 457.038C650.828 457.038 650.828 448.34 644.844 448.34C638.841 448.34 638.841 457.038 644.844 457.038Z" fill="#E8AE29"/>
<path d="M707.25 147.221C713.234 147.221 713.234 138.523 707.25 138.523C701.266 138.523 701.266 147.221 707.25 147.221Z" fill="#E8AE29"/>
<path d="M711.041 522.553C717.025 522.553 717.025 513.855 711.041 513.855C705.038 513.855 705.038 522.553 711.041 522.553Z" fill="#E8AE29"/>
<path d="M431.128 550.874C437.112 550.874 437.112 542.176 431.128 542.176C425.125 542.176 425.125 550.874 431.128 550.874Z" fill="#E8AE29"/>
<path d="M470.843 494.217C476.827 494.217 476.827 485.52 470.843 485.52C464.84 485.52 464.84 494.217 470.843 494.217Z" fill="#E8AE29"/>
<path d="M268.462 573.885C274.446 573.885 274.446 565.188 268.462 565.188C262.478 565.188 262.478 573.885 268.462 573.885Z" fill="#E8AE29"/>
<path d="M158.765 517.229C164.749 517.229 164.749 508.531 158.765 508.531C152.781 508.531 152.781 517.229 158.765 517.229Z" fill="#E8AE29"/>
<path d="M32.0427 414.561C38.0267 414.561 38.0267 405.863 32.0427 405.863C26.0587 405.863 26.0587 414.561 32.0427 414.561Z" fill="#E8AE29"/>
<path d="M37.7285 198.557C43.7125 198.557 43.7125 189.859 37.7285 189.859C31.7259 189.859 31.7259 198.557 37.7285 198.557Z" fill="#E8AE29"/>
<path d="M149.304 246.358C155.288 246.358 155.288 237.66 149.304 237.66C143.32 237.66 143.32 246.358 149.304 246.358Z" fill="#E8AE29"/>
</svg>
