<svg width="19" height="18" viewBox="0 0 19 18" fill="none" xmlns="http://www.w3.org/2000/svg">
<path d="M8.21418 0C7.30488 0 6.43282 0.361218 5.78985 1.00419C5.14688 1.64717 4.78566 2.51922 4.78566 3.42853C4.78566 4.33783 5.14688 5.20989 5.78985 5.85286C6.43282 6.49583 7.30488 6.85705 8.21418 6.85705C9.12348 6.85705 9.99554 6.49583 10.6385 5.85286C11.2815 5.20989 11.6427 4.33783 11.6427 3.42853C11.6427 2.51922 11.2815 1.64717 10.6385 1.00419C9.99554 0.361218 9.12348 0 8.21418 0ZM13.357 8.57131C10.957 8.57131 9.07131 10.457 9.07131 12.857C9.07131 15.2569 10.957 17.1426 13.357 17.1426C14.2141 17.1426 15.0719 16.8848 15.7576 16.4563L17.0366 17.7486C17.3717 18.0838 17.9144 18.0838 18.2486 17.7486C18.5838 17.4144 18.5838 16.8709 18.2486 16.5366L16.9563 15.2576C17.3848 14.5719 17.6426 13.7141 17.6426 12.857C17.6426 10.457 15.7569 8.57131 13.357 8.57131ZM8.43014 9.43179C5.94103 9.35465 0.5 10.6464 0.5 13.2855V14.5712C0.5 15.0444 0.883995 15.4284 1.35713 15.4284H7.94298C7.57184 14.6484 7.35705 13.7784 7.35705 12.857C7.35705 11.5841 7.75639 10.4054 8.43181 9.43514L8.43014 9.43179ZM13.357 10.2856C14.8141 10.2856 15.9284 11.3998 15.9284 12.857C15.9284 14.3141 14.8141 15.4284 13.357 15.4284C11.8998 15.4284 10.7856 14.3141 10.7856 12.857C10.7856 11.3998 11.8998 10.2856 13.357 10.2856Z" fill="white"/>
</svg>
