
<svg width="20" height="20" viewBox="0 0 20 20" fill="none" xmlns="http://www.w3.org/2000/svg">
<path d="M15.3451 1.66699C15.1318 1.66699 14.9184 1.74822 14.7559 1.91113L13.3333 3.33366L16.6667 6.66699L18.0892 5.24447C18.415 4.91863 18.415 4.39108 18.0892 4.06608L15.9342 1.91113C15.7713 1.74822 15.5583 1.66699 15.3451 1.66699ZM12.0833 4.58366L4.16667 12.5003C4.16667 12.5003 5.00417 12.5045 5.41667 12.917C5.82917 13.3295 5.82031 14.154 5.82031 14.154C5.82031 14.154 6.67 14.1703 7.08333 14.5837C7.49667 14.997 7.5 15.8337 7.5 15.8337L15.4167 7.91699L12.0833 4.58366ZM3.05827 14.167L2.5 17.5003L5.83333 16.9421L3.05827 14.167Z" fill="white"/>
</svg>
