<svg width="20" height="20" viewBox="0 0 20 20" fill="none" xmlns="http://www.w3.org/2000/svg">
<path d="M15 1.66699C14.337 1.66699 13.7011 1.93038 13.2322 2.39923C12.7634 2.86807 12.5 3.50395 12.5 4.16699C12.5005 4.32378 12.5158 4.48018 12.5456 4.63411L6.61621 8.09277C6.16459 7.7102 5.59188 7.50026 5 7.50033C4.33696 7.50033 3.70107 7.76372 3.23223 8.23256C2.76339 8.7014 2.5 9.33728 2.5 10.0003C2.5 10.6634 2.76339 11.2993 3.23223 11.7681C3.70107 12.2369 4.33696 12.5003 5 12.5003C5.59097 12.4992 6.16242 12.2887 6.61296 11.9062L12.5456 15.3665C12.5158 15.5205 12.5005 15.6769 12.5 15.8337C12.5 16.4967 12.7634 17.1326 13.2322 17.6014C13.7011 18.0703 14.337 18.3337 15 18.3337C15.663 18.3337 16.2989 18.0703 16.7678 17.6014C17.2366 17.1326 17.5 16.4967 17.5 15.8337C17.5 15.1706 17.2366 14.5347 16.7678 14.0659C16.2989 13.5971 15.663 13.3337 15 13.3337C14.4085 13.3344 13.8364 13.5449 13.3854 13.9277L7.45443 10.4674C7.48423 10.3135 7.49949 10.1571 7.5 10.0003C7.49949 9.84353 7.48423 9.68714 7.45443 9.5332L13.3838 6.07454C13.8354 6.45712 14.4081 6.66706 15 6.66699C15.663 6.66699 16.2989 6.4036 16.7678 5.93476C17.2366 5.46592 17.5 4.83003 17.5 4.16699C17.5 3.50395 17.2366 2.86807 16.7678 2.39923C16.2989 1.93038 15.663 1.66699 15 1.66699Z" fill="white"/>
</svg>
