<svg width="24" height="24" viewBox="0 0 24 24" fill="none" xmlns="http://www.w3.org/2000/svg">
<g clip-path="url(#clip0_3167_245403)">
<circle cx="12" cy="12" r="11.5" stroke="#BCE0FF"/>
<path d="M17.9062 5.8125C14.25 5.8125 12.5625 4.6875 12.5625 4.6875H11.4375C11.4375 4.6875 9.75 5.8125 6.09375 5.8125L5.53125 6.375V12C5.53125 17.3438 12 19.3125 12 19.3125C12 19.3125 18.4688 17.3438 18.4688 12V6.375L17.9062 5.8125ZM13.9887 14.2216L12 12.5867L10.0113 14.2219L9.21591 13.4265L10.8508 11.4375L9.21563 9.44878L10.011 8.65341L12 10.2883L13.9887 8.65313L14.7841 9.4485L13.1492 11.4375L14.7844 13.4262L13.9887 14.2216Z" fill="#4C5BD4"/>
</g>
<defs>
<clipPath id="clip0_3167_245403">
<rect width="24" height="24" fill="white"/>
</clipPath>
</defs>
</svg>
