<svg width="50" height="50" viewBox="0 0 50 50" fill="none" xmlns="http://www.w3.org/2000/svg">
<circle cx="25" cy="25" r="24.5" stroke="#C4C4C4" stroke-linecap="round" stroke-linejoin="round" stroke-dasharray="4 4"/>
<path d="M28.2549 14.6579C27.7828 14.6364 27.3036 14.711 26.8257 14.7852L19.4831 16.5505C19.1994 16.6174 18.9361 16.7442 18.6734 16.9474L14.4235 20.7846C13.6523 21.474 13.1363 22.636 13.7237 23.6787C14.0048 24.1787 14.4592 24.5353 15.0021 24.6836C15.5442 24.8303 16.1078 24.7535 16.6591 24.4157L20.8074 20.664L23.3495 19.989L21.3941 23.188C20.7824 23.9975 20.4288 25.7442 20.9156 26.8342L25.5014 34.3493L21.8137 39.7976C21.2716 40.8293 21.6213 42.1406 22.5955 42.7203C22.906 42.9055 23.2495 43 23.5969 43C23.7782 43 23.9591 42.9744 24.1378 42.923C24.6732 42.7686 25.1171 42.4022 25.3621 41.9314L29.4956 35.8265C29.7256 35.3883 29.8009 34.8704 29.7136 34.3962C29.712 34.3165 29.7093 34.2351 29.6841 34.0679L27.4059 26.449L31.5526 19.9253C32.3632 18.6914 32.1965 17.133 31.1559 16.2205C31.1467 16.2128 31.1373 16.2056 31.1281 16.1988L29.6464 15.1067C29.1933 14.7976 28.7271 14.6793 28.2549 14.6579ZM32.7654 20.2553C32.7067 20.3608 32.6605 20.4706 32.5917 20.5735L29.5448 25.2799C29.5633 25.3193 29.5722 25.3644 29.5924 25.4022C29.6066 25.4502 29.6203 25.4977 29.653 25.568L32.0492 30.1822C32.3958 30.9592 33.1645 31.4216 33.9701 31.4216C34.2504 31.4216 34.5357 31.3666 34.8076 31.2474C35.3296 31.0193 35.7273 30.6016 35.9287 30.0717C36.1234 29.5537 36.108 28.9912 35.8713 28.4638L33.4767 23.8445C33.4684 23.8274 33.4589 23.8106 33.4505 23.7943L32.7654 20.2553ZM20.0469 27.6348L18.5358 33.3193L13.4877 39.4627C12.7459 40.3742 12.8638 41.7344 13.7499 42.4959C14.1309 42.8252 14.6021 43 15.0939 43C15.156 43 15.2194 42.9976 15.2824 42.9916C15.8421 42.941 16.3483 42.6695 16.7066 42.2279L22.13 35.6306C22.3759 35.327 22.5356 34.9507 22.5742 34.6223L23.2003 32.7079L20.0469 27.6348Z" fill="#4C5BD4"/>
<path d="M19.5405 16.7938L19.5415 16.7936L26.8742 15.0306C27.3531 14.9563 27.8039 14.8877 28.2436 14.9076C28.6774 14.9273 29.0952 15.0344 29.5019 15.3108L30.979 16.3994C30.9791 16.3996 30.9793 16.3997 30.9795 16.3998C30.9835 16.4028 30.9867 16.4053 30.9896 16.4075C30.9911 16.4087 30.9925 16.4098 30.9937 16.4108C31.929 17.2332 32.092 18.6488 31.3436 19.7881L31.3416 19.7912L27.195 26.3148L27.1337 26.4112L27.1664 26.5206L29.4395 34.1224C29.4603 34.265 29.4622 34.3327 29.4637 34.4015L29.4641 34.4216L29.4678 34.4415C29.5442 34.8567 29.4794 35.3126 29.2805 35.6983L25.1551 41.7913L25.147 41.8032L25.1404 41.816C24.9274 42.2252 24.5391 42.547 24.0686 42.6827C23.912 42.7278 23.7544 42.75 23.5969 42.75C23.2955 42.75 22.9961 42.6681 22.7236 42.5056L22.7234 42.5055C21.8725 41.9992 21.5545 40.8437 22.0288 39.9259L25.7085 34.4894L25.7986 34.3563L25.7148 34.2191L21.1376 26.7181C20.9265 26.2344 20.8911 25.5852 20.99 24.944C21.0899 24.2969 21.32 23.7008 21.5936 23.3387L21.601 23.3289L21.6075 23.3184L23.5628 20.1194L23.8879 19.5873L23.2853 19.7474L20.7432 20.4223L20.6846 20.4379L20.6397 20.4785L16.5091 24.2143C16.0195 24.5082 15.5332 24.5683 15.0675 24.4424C14.5905 24.3119 14.1905 23.9988 13.9416 23.5562L13.9415 23.556C13.4362 22.659 13.8629 21.6211 14.5902 20.9709L14.5911 20.9701L18.8338 17.1395C19.0681 16.9596 19.2971 16.8512 19.5405 16.7938ZM29.8249 25.3072L32.6454 20.9506L33.2051 23.8418L33.2119 23.8769L33.2283 23.9088C33.2357 23.9232 33.2397 23.9305 33.2427 23.9361C33.2459 23.9419 33.248 23.9459 33.2522 23.9544L33.2521 23.9544L33.2548 23.9596L35.646 28.5724C35.8532 29.0384 35.8651 29.53 35.6948 29.9832C35.5173 30.4501 35.1679 30.8172 34.7075 31.0184L34.7072 31.0185C34.4686 31.1231 34.2176 31.1716 33.9701 31.1716C33.2586 31.1716 32.582 30.7631 32.2775 30.0804L32.2745 30.0736L32.2711 30.067L29.8775 25.4578C29.8553 25.4095 29.846 25.378 29.8332 25.335L29.832 25.331L29.8249 25.3072ZM18.7774 33.3835L20.1399 28.258L22.9265 32.741L22.3366 34.5446L22.3288 34.5683L22.3259 34.5931C22.2934 34.8702 22.1549 35.2025 21.9363 35.4726C21.9361 35.4728 21.9359 35.473 21.9358 35.4732L16.5135 42.0691L16.5125 42.0704C16.1961 42.4603 15.7514 42.6982 15.2599 42.7426L15.2586 42.7428C15.2051 42.7479 15.1498 42.75 15.0939 42.75C14.6627 42.75 14.2494 42.5971 13.9134 42.3067L13.9128 42.3063C13.1305 41.634 13.0246 40.4285 13.6811 39.6211C13.6812 39.6209 13.6814 39.6207 13.6816 39.6205L18.7289 33.478L18.7634 33.436L18.7774 33.3835ZM36.75 10.816C36.75 12.7906 35.185 14.382 33.2657 14.382C31.3465 14.382 29.7815 12.7906 29.7815 10.816C29.7815 8.84143 31.3465 7.25 33.2657 7.25C35.185 7.25 36.75 8.84143 36.75 10.816Z" stroke="#F4BD76" stroke-width="0.5"/>
</svg>
