<svg width="24" height="24" viewBox="0 0 24 24" fill="none" xmlns="http://www.w3.org/2000/svg">
<g clip-path="url(#clip0_3167_245429)">
<circle cx="12" cy="12" r="11.5" stroke="#BCE0FF"/>
<path d="M12.5 18.9397C17.1941 18.9397 21 15.3715 21 10.9698C21 6.56821 17.1941 3 12.5 3C7.80587 3 4 6.56821 4 10.9698C4 12.9737 4.78944 14.8068 6.09313 16.2072C5.99006 17.3639 5.65006 18.6323 5.27394 19.5841C5.19 19.7959 5.35256 20.0327 5.564 19.9963C7.961 19.575 9.38581 18.9283 10.0052 18.5913C10.819 18.8239 11.6578 18.941 12.5 18.9397Z" fill="#4C5BD4"/>
<mask id="path-3-inside-1_3167_245429" fill="white">
<path d="M9.58536 11.3347C9.58536 11.6419 9.49793 11.8825 9.32248 12.0572C9.1441 12.2299 8.89765 12.3162 8.58255 12.3162H7V11.5984H8.31087C8.46461 11.5984 8.57668 11.5694 8.64651 11.512C8.71634 11.4527 8.75154 11.361 8.75154 11.2358C8.75154 11.1204 8.7181 11.0301 8.6512 10.9648C8.58138 10.9022 8.46813 10.8712 8.31146 10.8712L7.24175 10.8759V10.1586H8.29151C8.44994 10.1586 8.56377 10.1309 8.6336 10.0749C8.70049 10.0208 8.73394 9.9312 8.73394 9.80594C8.73394 9.68729 8.70049 9.59895 8.6336 9.53962C8.59957 9.50732 8.55439 9.48425 8.49864 9.46974C8.43996 9.45722 8.37131 9.45063 8.29151 9.45063H7V8.7334H8.51624C8.86714 8.7334 9.13295 8.8125 9.31368 8.97072C9.49206 9.13091 9.58125 9.37943 9.58125 9.71695C9.58125 9.88637 9.54781 10.0367 9.48091 10.1679C9.41109 10.299 9.32072 10.4144 9.20923 10.5133C9.33187 10.5983 9.42106 10.6998 9.47681 10.8178C9.54898 10.9563 9.58536 11.1283 9.58536 11.3347Z"/>
</mask>
<path d="M9.58536 11.3347C9.58536 11.6419 9.49793 11.8825 9.32248 12.0572C9.1441 12.2299 8.89765 12.3162 8.58255 12.3162H7V11.5984H8.31087C8.46461 11.5984 8.57668 11.5694 8.64651 11.512C8.71634 11.4527 8.75154 11.361 8.75154 11.2358C8.75154 11.1204 8.7181 11.0301 8.6512 10.9648C8.58138 10.9022 8.46813 10.8712 8.31146 10.8712L7.24175 10.8759V10.1586H8.29151C8.44994 10.1586 8.56377 10.1309 8.6336 10.0749C8.70049 10.0208 8.73394 9.9312 8.73394 9.80594C8.73394 9.68729 8.70049 9.59895 8.6336 9.53962C8.59957 9.50732 8.55439 9.48425 8.49864 9.46974C8.43996 9.45722 8.37131 9.45063 8.29151 9.45063H7V8.7334H8.51624C8.86714 8.7334 9.13295 8.8125 9.31368 8.97072C9.49206 9.13091 9.58125 9.37943 9.58125 9.71695C9.58125 9.88637 9.54781 10.0367 9.48091 10.1679C9.41109 10.299 9.32072 10.4144 9.20923 10.5133C9.33187 10.5983 9.42106 10.6998 9.47681 10.8178C9.54898 10.9563 9.58536 11.1283 9.58536 11.3347Z" fill="white"/>
<path d="M9.32248 12.0572L10.0182 12.7757L10.0281 12.7658L9.32248 12.0572ZM7 12.3162H6V13.3162H7V12.3162ZM7 11.5984V10.5984H6V11.5984H7ZM8.64651 11.512L9.28121 12.2848L9.28765 12.2795L9.29401 12.2741L8.64651 11.512ZM8.6512 10.9648L9.34953 10.2491L9.33451 10.2344L9.31888 10.2204L8.6512 10.9648ZM8.31146 10.8712V9.87123L8.30714 9.87125L8.31146 10.8712ZM7.24175 10.8759H6.24175V11.8802L7.24607 11.8758L7.24175 10.8759ZM7.24175 10.1586V9.15863H6.24175V10.1586H7.24175ZM8.6336 10.0749L9.25947 10.8548L9.26213 10.8527L8.6336 10.0749ZM8.6336 9.53962L7.94519 10.2649L7.95743 10.2766L7.97006 10.2878L8.6336 9.53962ZM8.49864 9.46974L8.75043 8.50196L8.72902 8.49639L8.70739 8.49178L8.49864 9.46974ZM7 9.45063H6V10.4506H7V9.45063ZM7 8.7334V7.7334H6V8.7334H7ZM9.31368 8.97072L9.98188 8.22663L9.97236 8.21829L9.31368 8.97072ZM9.48091 10.1679L10.3637 10.6377L10.3678 10.63L10.3718 10.6221L9.48091 10.1679ZM9.20923 10.5133L8.54569 9.76515L7.59342 10.6097L8.63941 11.335L9.20923 10.5133ZM9.47681 10.8178L8.57262 11.245L8.58101 11.2627L8.59008 11.2801L9.47681 10.8178ZM8.58536 11.3347C8.58536 11.3944 8.5768 11.4125 8.57995 11.4038C8.58159 11.3993 8.58545 11.3903 8.59264 11.3789C8.59989 11.3675 8.60837 11.357 8.6169 11.3485L10.0281 12.7658C10.4354 12.3602 10.5854 11.8395 10.5854 11.3347H8.58536ZM8.62688 11.3387C8.63553 11.3304 8.6454 11.3228 8.65534 11.3167C8.66514 11.3107 8.67186 11.3082 8.67327 11.3077C8.67549 11.3069 8.65 11.3162 8.58255 11.3162V13.3162C9.08453 13.3162 9.60674 13.1739 10.0181 12.7756L8.62688 11.3387ZM8.58255 11.3162H7V13.3162H8.58255V11.3162ZM8 12.3162V11.5984H6V12.3162H8ZM7 12.5984H8.31087V10.5984H7V12.5984ZM8.31087 12.5984C8.54993 12.5984 8.94518 12.5607 9.28121 12.2848L8.01181 10.7392C8.11614 10.6536 8.21318 10.6205 8.26064 10.6083C8.30759 10.5962 8.32898 10.5984 8.31087 10.5984V12.5984ZM9.29401 12.2741C9.65889 11.964 9.75154 11.5456 9.75154 11.2358H7.75154C7.75154 11.2077 7.75514 11.136 7.79082 11.0424C7.8291 10.942 7.89707 10.8365 7.99901 10.7499L9.29401 12.2741ZM9.75154 11.2358C9.75154 10.9182 9.65267 10.5448 9.34953 10.2491L7.95288 11.6806C7.87689 11.6065 7.82186 11.5184 7.7887 11.4288C7.75701 11.3432 7.75154 11.2738 7.75154 11.2358H9.75154ZM9.31888 10.2204C8.9756 9.91252 8.55853 9.87124 8.31146 9.87124V11.8712C8.3285 11.8712 8.30207 11.8734 8.24871 11.8588C8.19326 11.8435 8.08965 11.8045 7.98353 11.7093L9.31888 10.2204ZM8.30714 9.87125L7.23744 9.87586L7.24607 11.8758L8.31577 11.8712L8.30714 9.87125ZM8.24175 10.8759V10.1586H6.24175V10.8759H8.24175ZM7.24175 11.1586H8.29151V9.15863H7.24175V11.1586ZM8.29151 11.1586C8.51912 11.1586 8.91896 11.1281 9.25947 10.8548L8.00774 9.29497C8.11659 9.20762 8.216 9.17672 8.25841 9.16636C8.30108 9.15593 8.31705 9.15863 8.29151 9.15863V11.1586ZM9.26213 10.8527C9.65612 10.5343 9.73394 10.0906 9.73394 9.80594H7.73394C7.73394 9.77184 7.74487 9.50738 8.00508 9.29712L9.26213 10.8527ZM9.73394 9.80594C9.73394 9.49794 9.64103 9.09648 9.29715 8.79148L7.97006 10.2878C7.87532 10.2037 7.8105 10.1023 7.77321 10.0035C7.73822 9.91071 7.73394 9.83816 7.73394 9.80594H9.73394ZM9.32201 8.8143C9.13658 8.6383 8.92675 8.54783 8.75043 8.50196L8.24686 10.4375C8.18203 10.4207 8.06256 10.3763 7.94519 10.2649L9.32201 8.8143ZM8.70739 8.49178C8.56503 8.46139 8.42418 8.45063 8.29151 8.45063V10.4506C8.29772 10.4506 8.30236 10.4508 8.30552 10.4509C8.30869 10.451 8.3102 10.4512 8.31018 10.4512C8.31016 10.4512 8.3084 10.451 8.30506 10.4505C8.30173 10.45 8.29661 10.4491 8.28989 10.4477L8.70739 8.49178ZM8.29151 8.45063H7V10.4506H8.29151V8.45063ZM8 9.45063V8.7334H6V9.45063H8ZM7 9.7334H8.51624V7.7334H7V9.7334ZM8.51624 9.7334C8.61943 9.7334 8.67394 9.74535 8.69354 9.75118C8.70982 9.75603 8.68836 9.75234 8.655 9.72314L9.97236 8.21829C9.5411 7.84076 9.00007 7.7334 8.51624 7.7334V9.7334ZM8.64553 9.71474C8.62448 9.69584 8.60715 9.67512 8.59404 9.65509C8.58118 9.63544 8.57514 9.6207 8.57307 9.61492C8.57115 9.60957 8.57331 9.61384 8.57591 9.63093C8.57853 9.64814 8.58125 9.67617 8.58125 9.71695H10.5813C10.5813 9.21447 10.4461 8.64364 9.98183 8.22669L8.64553 9.71474ZM8.58125 9.71695C8.58125 9.73581 8.57941 9.7424 8.58005 9.73952C8.58035 9.73814 8.58118 9.73486 8.58287 9.73011C8.58457 9.72534 8.58693 9.71971 8.59005 9.71359L10.3718 10.6221C10.5205 10.3304 10.5813 10.0204 10.5813 9.71695H8.58125ZM8.59818 9.69799C8.58348 9.72559 8.56689 9.74635 8.54569 9.76515L9.87278 11.2614C10.0746 11.0825 10.2387 10.8725 10.3637 10.6377L8.59818 9.69799ZM8.63941 11.335C8.64077 11.336 8.63118 11.3295 8.61686 11.3132C8.60205 11.2964 8.58601 11.2733 8.57262 11.245L10.381 10.3907C10.2401 10.0925 10.0248 9.86193 9.77906 9.69152L8.63941 11.335ZM8.59008 11.2801C8.57921 11.2593 8.57798 11.2491 8.57957 11.2567C8.58131 11.2649 8.58536 11.2895 8.58536 11.3347H10.5854C10.5854 11.0156 10.5296 10.6741 10.3635 10.3555L8.59008 11.2801Z" fill="white" mask="url(#path-3-inside-1_3167_245429)"/>
<mask id="path-5-inside-2_3167_245429" fill="white">
<path d="M12.7479 11.2164C12.7479 11.5921 12.6264 11.8769 12.3841 12.0707C12.1417 12.2645 11.7926 12.3608 11.3361 12.3608C10.7974 12.3608 10.399 12.2151 10.1408 11.9237C9.88436 11.6343 9.75586 11.1801 9.75586 10.5604C9.75586 9.93483 9.89317 9.47338 10.1684 9.17608C10.4395 8.88009 10.8619 8.73242 11.4364 8.73242H12.5824L12.58 9.44965H11.42C11.1319 9.44965 10.923 9.51228 10.7933 9.63687C10.7323 9.6962 10.6859 9.77135 10.6542 9.86232C10.6184 9.95857 10.6008 10.0687 10.6008 10.1932H11.6359C12.0091 10.1932 12.2878 10.277 12.4721 10.4437C12.6557 10.6125 12.7479 10.8696 12.7479 11.2164ZM11.9199 11.2546C11.9199 11.1392 11.8935 11.0522 11.8407 10.9929C11.7879 10.9388 11.7075 10.9111 11.5989 10.9111H10.6049C10.6049 11.1557 10.666 11.3409 10.7886 11.4655C10.9083 11.5934 11.1002 11.6574 11.3636 11.6574C11.5649 11.6574 11.7069 11.6244 11.7914 11.5591C11.8777 11.4939 11.9199 11.3924 11.9199 11.2546Z"/>
</mask>
<path d="M12.7479 11.2164C12.7479 11.5921 12.6264 11.8769 12.3841 12.0707C12.1417 12.2645 11.7926 12.3608 11.3361 12.3608C10.7974 12.3608 10.399 12.2151 10.1408 11.9237C9.88436 11.6343 9.75586 11.1801 9.75586 10.5604C9.75586 9.93483 9.89317 9.47338 10.1684 9.17608C10.4395 8.88009 10.8619 8.73242 11.4364 8.73242H12.5824L12.58 9.44965H11.42C11.1319 9.44965 10.923 9.51228 10.7933 9.63687C10.7323 9.6962 10.6859 9.77135 10.6542 9.86232C10.6184 9.95857 10.6008 10.0687 10.6008 10.1932H11.6359C12.0091 10.1932 12.2878 10.277 12.4721 10.4437C12.6557 10.6125 12.7479 10.8696 12.7479 11.2164ZM11.9199 11.2546C11.9199 11.1392 11.8935 11.0522 11.8407 10.9929C11.7879 10.9388 11.7075 10.9111 11.5989 10.9111H10.6049C10.6049 11.1557 10.666 11.3409 10.7886 11.4655C10.9083 11.5934 11.1002 11.6574 11.3636 11.6574C11.5649 11.6574 11.7069 11.6244 11.7914 11.5591C11.8777 11.4939 11.9199 11.3924 11.9199 11.2546Z" fill="white"/>
<path d="M10.1408 11.9237L9.39233 12.5869L9.39234 12.5869L10.1408 11.9237ZM10.1684 9.17608L10.9022 9.85538L10.9058 9.85149L10.1684 9.17608ZM12.5824 8.73242L13.5824 8.73569L13.5857 7.73242H12.5824V8.73242ZM12.58 9.44965V10.4497H13.5768L13.58 9.45292L12.58 9.44965ZM10.7933 9.63687L10.1005 8.91575L10.0962 8.91987L10.7933 9.63687ZM10.6542 9.86232L11.5915 10.2109L11.5951 10.2011L11.5986 10.1912L10.6542 9.86232ZM10.6008 10.1932H9.60083V11.1932H10.6008V10.1932ZM12.4721 10.4437L13.1487 9.70738L13.1432 9.70237L12.4721 10.4437ZM11.8407 10.9929L12.5876 10.328L12.5722 10.3107L12.556 10.2941L11.8407 10.9929ZM10.6049 10.9111V9.91113H9.60493V10.9111H10.6049ZM10.7886 11.4655L11.5187 10.7822L11.5101 10.773L11.5013 10.764L10.7886 11.4655ZM11.7914 11.5591L11.188 10.7616L11.1801 10.7677L11.7914 11.5591ZM11.7479 11.2164C11.7479 11.2975 11.7347 11.3247 11.7368 11.3198C11.7379 11.3174 11.7411 11.311 11.747 11.3032C11.7529 11.2954 11.758 11.2909 11.7595 11.2897L13.0086 12.8517C13.5382 12.4281 13.7479 11.8256 13.7479 11.2164H11.7479ZM11.7595 11.2897C11.7593 11.2899 11.7544 11.2938 11.7418 11.3C11.7289 11.3063 11.7072 11.3153 11.6739 11.3246C11.6053 11.3435 11.4967 11.3608 11.3361 11.3608V13.3608C11.9151 13.3608 12.5217 13.2411 13.0086 12.8517L11.7595 11.2897ZM11.3361 11.3608C10.9695 11.3608 10.8932 11.265 10.8892 11.2605L9.39234 12.5869C9.90474 13.1652 10.6253 13.3608 11.3361 13.3608V11.3608ZM10.8892 11.2605C10.8678 11.2363 10.7559 11.0742 10.7559 10.5604H8.75586C8.75586 11.286 8.90095 12.0323 9.39233 12.5869L10.8892 11.2605ZM10.7559 10.5604C10.7559 10.0538 10.8709 9.88921 10.9022 9.85537L9.4345 8.49678C8.91543 9.05755 8.75586 9.81583 8.75586 10.5604H10.7559ZM10.9058 9.85149C10.9175 9.83874 11.0186 9.73242 11.4364 9.73242V7.73242C10.7053 7.73242 9.96144 7.92143 9.43093 8.50066L10.9058 9.85149ZM11.4364 9.73242H12.5824V7.73242H11.4364V9.73242ZM11.5824 8.72915L11.58 9.44638L13.58 9.45292L13.5824 8.73569L11.5824 8.72915ZM12.58 8.44965H11.42V10.4497H12.58V8.44965ZM11.42 8.44965C11.021 8.44965 10.5009 8.53108 10.1005 8.91576L11.4861 10.358C11.4146 10.4267 11.3499 10.4498 11.3337 10.4546C11.321 10.4584 11.344 10.4497 11.42 10.4497V8.44965ZM10.0962 8.91987C9.9098 9.1011 9.7859 9.3151 9.70987 9.53339L11.5986 10.1912C11.5859 10.2276 11.5547 10.2913 11.4904 10.3539L10.0962 8.91987ZM9.71694 9.51375C9.63142 9.7437 9.60083 9.97586 9.60083 10.1932H11.6008C11.6008 10.1615 11.6054 10.1734 11.5915 10.2109L9.71694 9.51375ZM10.6008 11.1932H11.6359V9.19325H10.6008V11.1932ZM11.6359 11.1932C11.751 11.1932 11.8133 11.2065 11.8377 11.2138C11.8586 11.2201 11.8363 11.2171 11.801 11.1851L13.1432 9.70237C12.702 9.30307 12.1369 9.19325 11.6359 9.19325V11.1932ZM11.7955 11.1801C11.7781 11.1642 11.7639 11.1468 11.7531 11.1302C11.7426 11.114 11.7382 11.1026 11.7371 11.0998C11.7358 11.0961 11.7479 11.1285 11.7479 11.2164H13.7479C13.7479 10.7008 13.6081 10.1295 13.1487 9.7074L11.7955 11.1801ZM12.9199 11.2546C12.9199 11.0023 12.8634 10.6378 12.5876 10.328L11.0937 11.6578C10.9236 11.4667 10.9199 11.2761 10.9199 11.2546H12.9199ZM12.556 10.2941C12.2493 9.98013 11.8654 9.91113 11.5989 9.91113V11.9111C11.5496 11.9111 11.3265 11.8975 11.1254 11.6917L12.556 10.2941ZM11.5989 9.91113H10.6049V11.9111H11.5989V9.91113ZM9.60493 10.9111C9.60493 11.31 9.70512 11.7903 10.0759 12.167L11.5013 10.764C11.5596 10.8233 11.5883 10.8835 11.6002 10.9192C11.6105 10.9505 11.6049 10.9531 11.6049 10.9111H9.60493ZM10.0585 12.1489C10.4452 12.562 10.963 12.6574 11.3636 12.6574V10.6574C11.3086 10.6574 11.3068 10.6502 11.3386 10.6608C11.3759 10.6732 11.4483 10.707 11.5187 10.7822L10.0585 12.1489ZM11.3636 12.6574C11.6202 12.6574 12.0461 12.6259 12.4027 12.3506L11.1801 10.7677C11.2855 10.6863 11.3754 10.6632 11.3969 10.6582C11.4207 10.6528 11.4144 10.6574 11.3636 10.6574V12.6574ZM12.3948 12.3566C12.8014 12.049 12.9199 11.6051 12.9199 11.2546H10.9199C10.9199 11.224 10.9243 11.146 10.9662 11.0464C11.0113 10.9391 11.0872 10.8379 11.188 10.7617L12.3948 12.3566Z" fill="white" mask="url(#path-5-inside-2_3167_245429)"/>
<mask id="path-7-inside-3_3167_245429" fill="white">
<path d="M15.6572 11.2312C15.6572 11.5812 15.5592 11.8502 15.3644 12.0374C15.1678 12.2233 14.8902 12.3156 14.5323 12.3156H12.8535V11.5984H14.3868C14.5376 11.5984 14.6444 11.5694 14.7054 11.512C14.7641 11.456 14.7928 11.3624 14.7928 11.2312C14.7928 11.0967 14.7635 10.9998 14.7054 10.9411C14.6444 10.8851 14.5376 10.8574 14.3868 10.8574H12.8535V8.7334H15.5011L15.4987 9.45063H13.638V10.1441H14.6749C14.9759 10.1441 15.2165 10.2377 15.3978 10.4249C15.4817 10.5225 15.5468 10.6372 15.5926 10.7684C15.6354 10.9022 15.6572 11.0571 15.6572 11.2312Z"/>
</mask>
<path d="M15.6572 11.2312C15.6572 11.5812 15.5592 11.8502 15.3644 12.0374C15.1678 12.2233 14.8902 12.3156 14.5323 12.3156H12.8535V11.5984H14.3868C14.5376 11.5984 14.6444 11.5694 14.7054 11.512C14.7641 11.456 14.7928 11.3624 14.7928 11.2312C14.7928 11.0967 14.7635 10.9998 14.7054 10.9411C14.6444 10.8851 14.5376 10.8574 14.3868 10.8574H12.8535V8.7334H15.5011L15.4987 9.45063H13.638V10.1441H14.6749C14.9759 10.1441 15.2165 10.2377 15.3978 10.4249C15.4817 10.5225 15.5468 10.6372 15.5926 10.7684C15.6354 10.9022 15.6572 11.0571 15.6572 11.2312Z" fill="white"/>
<path d="M15.3644 12.0374L16.0515 12.764L16.0573 12.7584L15.3644 12.0374ZM12.8535 12.3156H11.8535V13.3156H12.8535V12.3156ZM12.8535 11.5984V10.5984H11.8535V11.5984H12.8535ZM14.7054 11.512L15.3903 12.2407L15.396 12.2352L14.7054 11.512ZM14.7054 10.9411L15.416 10.2375L15.3993 10.2206L15.3817 10.2045L14.7054 10.9411ZM12.8535 10.8574H11.8535V11.8574H12.8535V10.8574ZM12.8535 8.7334V7.7334H11.8535V8.7334H12.8535ZM15.5011 8.7334L16.5011 8.73667L16.5044 7.7334H15.5011V8.7334ZM15.4987 9.45063V10.4506H16.4955L16.4987 9.4539L15.4987 9.45063ZM13.638 9.45063V8.45063H12.638V9.45063H13.638ZM13.638 10.1441H12.638V11.1441H13.638V10.1441ZM15.3978 10.4249L16.156 9.77289L16.1367 9.75048L16.1161 9.72926L15.3978 10.4249ZM15.5926 10.7684L16.545 10.4635L16.5411 10.4512L16.5368 10.439L15.5926 10.7684ZM14.6572 11.2312C14.6572 11.3146 14.6453 11.35 14.644 11.3537C14.6435 11.3551 14.6451 11.3502 14.6507 11.3416C14.6563 11.3328 14.6635 11.324 14.6714 11.3164L16.0573 12.7584C16.5011 12.3319 16.6572 11.7701 16.6572 11.2312H14.6572ZM14.6772 11.3108C14.6935 11.2955 14.7045 11.2936 14.6921 11.2977C14.6758 11.3031 14.6272 11.3156 14.5323 11.3156V13.3156C15.059 13.3156 15.6145 13.1772 16.0515 12.7639L14.6772 11.3108ZM14.5323 11.3156H12.8535V13.3156H14.5323V11.3156ZM13.8535 12.3156V11.5984H11.8535V12.3156H13.8535ZM12.8535 12.5984H14.3868V10.5984H12.8535V12.5984ZM14.3868 12.5984C14.6084 12.5984 15.0432 12.5668 15.3902 12.2407L14.0206 10.7833C14.1415 10.6697 14.2614 10.6269 14.318 10.6115C14.3747 10.5962 14.4035 10.5984 14.3868 10.5984V12.5984ZM15.396 12.2352C15.7474 11.8997 15.7928 11.4679 15.7928 11.2312H13.7928C13.7928 11.229 13.7924 11.1795 13.816 11.1034C13.8412 11.0225 13.8972 10.901 14.0148 10.7888L15.396 12.2352ZM15.7928 11.2312C15.7928 10.9896 15.7463 10.5711 15.416 10.2375L13.9948 11.6447C13.8861 11.5349 13.8357 11.4202 13.8135 11.3466C13.7924 11.2765 13.7928 11.232 13.7928 11.2312H15.7928ZM15.3817 10.2045C15.033 9.88427 14.5991 9.8574 14.3868 9.8574V11.8574C14.4066 11.8574 14.3806 11.8598 14.3264 11.8456C14.2729 11.8316 14.1522 11.7908 14.0291 11.6777L15.3817 10.2045ZM14.3868 9.8574H12.8535V11.8574H14.3868V9.8574ZM13.8535 10.8574V8.7334H11.8535V10.8574H13.8535ZM12.8535 9.7334H15.5011V7.7334H12.8535V9.7334ZM14.5011 8.73013L14.4987 9.44735L16.4987 9.4539L16.5011 8.73667L14.5011 8.73013ZM15.4987 8.45063H13.638V10.4506H15.4987V8.45063ZM12.638 9.45063V10.1441H14.638V9.45063H12.638ZM13.638 11.1441H14.6749V9.14412H13.638V11.1441ZM14.6749 11.1441C14.6984 11.1441 14.7126 11.146 14.7191 11.1471C14.7253 11.1481 14.7246 11.1486 14.719 11.1464C14.7132 11.1442 14.7052 11.1403 14.6967 11.1346C14.6882 11.129 14.6824 11.1237 14.6795 11.1206L16.1161 9.72926C15.7173 9.31739 15.2016 9.14412 14.6749 9.14412V11.1441ZM14.6396 11.077C14.6384 11.0756 14.6385 11.0754 14.6398 11.0775C14.641 11.0798 14.6443 11.0861 14.6484 11.0978L16.5368 10.439C16.4529 10.1986 16.3275 9.97239 16.156 9.77289L14.6396 11.077ZM14.6402 11.0733C14.6452 11.0889 14.6572 11.1377 14.6572 11.2312H16.6572C16.6572 10.9766 16.6257 10.7156 16.545 10.4635L14.6402 11.0733Z" fill="white" mask="url(#path-7-inside-3_3167_245429)"/>
<path d="M17.8625 13.497C17.7246 13.4475 17.3302 13.3242 16.9748 13.2143L17.3496 12.8348L18.291 13.1418C18.3024 13.1483 18.3172 13.1573 18.3341 13.1684C18.3817 13.2001 18.4301 13.2395 18.4644 13.2807C18.4983 13.3214 18.5005 13.3416 18.5006 13.3425L18.5006 13.3425C18.5007 13.343 18.5013 13.3483 18.4975 13.3613C18.4939 13.3733 18.4853 13.3958 18.4643 13.4288C18.3697 13.5319 18.3473 13.5444 18.3205 13.5534C18.2917 13.5631 18.1763 13.5903 17.8625 13.497Z" fill="white" stroke="white"/>
<path d="M12.7858 14.0463L12.7859 14.0462C13.8998 13.6608 14.9493 13.0854 15.8434 12.1834L15.8447 12.1821C15.8576 12.169 15.8659 12.1605 15.874 12.1527L15.8741 12.1528L15.8832 12.1435C16.1763 11.8439 16.5301 11.4573 16.7985 11.0067C17.0682 10.554 17.2711 10.0043 17.2149 9.3884L17.2149 9.38818C17.2043 9.27255 17.18 9.16466 17.1452 9.06434C17.2147 9.15124 17.2697 9.2488 17.3092 9.35745C17.3672 9.57301 17.3827 9.81997 17.3643 10.0725L17.3643 10.0729C17.3297 10.5511 17.1645 11.0184 16.9173 11.4366L16.9172 11.4369C16.5011 12.1419 15.8836 12.7025 15.204 13.1706L15.2039 13.1707C14.6361 13.5621 14.055 13.8632 13.4291 14.082L13.429 14.082C12.9746 14.241 12.523 14.3675 12.0701 14.4392C11.5569 14.5204 11.0644 14.5307 10.6188 14.4055L10.6185 14.4055C10.4425 14.3561 10.2759 14.2819 10.1241 14.1827C10.2622 14.2359 10.4024 14.2752 10.5419 14.3029C10.8843 14.371 11.2248 14.3715 11.5452 14.3373C11.9774 14.2912 12.3941 14.1817 12.7858 14.0463Z" fill="white" stroke="white"/>
<mask id="path-11-inside-4_3167_245429" fill="white">
<path fill-rule="evenodd" clip-rule="evenodd" d="M9.60352 12.5477C9.60352 12.5477 11.2283 14.199 14.0179 12.4297C13.7069 12.8424 10.2337 14.7297 9.60352 12.5477Z"/>
</mask>
<path fill-rule="evenodd" clip-rule="evenodd" d="M9.60352 12.5477C9.60352 12.5477 11.2283 14.199 14.0179 12.4297C13.7069 12.8424 10.2337 14.7297 9.60352 12.5477Z" fill="white"/>
<path d="M9.60352 12.5477L10.3163 11.8463L8.64278 12.8252L9.60352 12.5477ZM14.0179 12.4297L14.8165 13.0315L13.4823 11.5852L14.0179 12.4297ZM9.60352 12.5477C8.8907 13.249 8.89119 13.2495 8.89168 13.25C8.89185 13.2502 8.89235 13.2507 8.8927 13.2511C8.89339 13.2518 8.89411 13.2525 8.89486 13.2532C8.89635 13.2547 8.89796 13.2563 8.89968 13.2581C8.90311 13.2615 8.90699 13.2653 8.91132 13.2695C8.91997 13.2779 8.9304 13.2879 8.94262 13.2992C8.96703 13.3218 8.99865 13.35 9.03738 13.3824C9.11469 13.447 9.22131 13.5291 9.35652 13.6169C9.62635 13.792 10.0164 13.994 10.5185 14.1214C11.5576 14.3852 12.9421 14.2962 14.5535 13.2741L13.4823 11.5852C12.3041 12.3325 11.4815 12.3025 11.0107 12.1829C10.7579 12.1188 10.5674 12.0185 10.4454 11.9393C10.3847 11.8999 10.3426 11.8667 10.3202 11.848C10.309 11.8387 10.303 11.8331 10.3023 11.8324C10.3019 11.8321 10.3029 11.833 10.3052 11.8352C10.3064 11.8364 10.3079 11.8379 10.3097 11.8397C10.3107 11.8406 10.3117 11.8416 10.3128 11.8427C10.3133 11.8433 10.3139 11.8439 10.3145 11.8445C10.3148 11.8448 10.3152 11.8452 10.3154 11.8454C10.3159 11.8459 10.3163 11.8463 9.60352 12.5477ZM13.2193 11.8278C13.2868 11.7383 13.32 11.7347 13.1972 11.8194C13.1087 11.8804 12.9793 11.9597 12.8174 12.0454C12.4906 12.2185 12.0825 12.3912 11.684 12.4925C11.2663 12.5987 10.968 12.5987 10.798 12.5486C10.7051 12.5212 10.6266 12.4861 10.5642 12.2702L8.64278 12.8252C8.89553 13.7003 9.48751 14.2475 10.2328 14.4671C10.9009 14.6639 11.6086 14.5753 12.1768 14.4309C12.7642 14.2815 13.3221 14.0414 13.7537 13.8127C13.971 13.6976 14.1688 13.5788 14.3323 13.466C14.4614 13.3771 14.6712 13.2243 14.8165 13.0315L13.2193 11.8278Z" fill="white" mask="url(#path-11-inside-4_3167_245429)"/>
</g>
<defs>
<clipPath id="clip0_3167_245429">
<rect width="24" height="24" fill="white"/>
</clipPath>
</defs>
</svg>
