<svg width="50" height="50" viewBox="0 0 50 50" fill="none" xmlns="http://www.w3.org/2000/svg">
<circle cx="25" cy="25" r="24.5" stroke="#C4C4C4" stroke-linecap="round" stroke-linejoin="round" stroke-dasharray="4 4"/>
<path d="M10.7623 40.0828C10.2592 39.845 10.0794 39.4494 10.1085 38.8976C10.1556 37.9997 10.1116 37.0962 10.1838 36.2014C10.2827 34.9707 11.0865 33.528 11.9781 32.8318C13.1233 34.8922 14.8375 36.0837 17.2284 36.0884C19.6216 36.0931 21.3382 34.9063 22.5155 32.7949C22.7667 33.083 23.0273 33.3451 23.2455 33.6387C23.9472 34.5829 24.3271 35.6465 24.3459 36.8278C24.3577 37.5318 24.3279 38.2375 24.3593 38.9408C24.3836 39.4855 24.1976 39.8677 23.6913 40.0836C19.3822 40.0828 15.0722 40.0828 10.7623 40.0828Z" fill="#4C5BD4"/>
<path d="M24.638 20.5329C24.638 21.1954 24.6278 21.8201 24.6411 22.4441C24.6505 22.8868 24.5203 23.2432 24.0917 23.4198C23.6647 23.5956 23.3201 23.4363 23.0124 23.1184C22.2432 22.3233 21.4591 21.5415 20.6899 20.7464C20.5423 20.5941 20.3948 20.5274 20.1789 20.5282C18.5235 20.5368 16.8682 20.5376 15.2136 20.5313C14.1932 20.5274 13.4413 19.923 13.2576 18.9741C13.2301 18.8312 13.2285 18.6821 13.2285 18.5361C13.227 16.3619 13.2254 14.1885 13.2278 12.0143C13.2293 10.8055 14.0276 10.0026 15.2301 10.0018C18.6578 9.99941 22.0862 9.99941 25.5139 10.0018C26.7204 10.0026 27.517 10.8 27.5186 12.0103C27.5217 14.1845 27.5217 16.358 27.5186 18.5322C27.517 19.7284 26.7345 20.5156 25.5375 20.5329C25.2549 20.5368 24.9716 20.5329 24.638 20.5329ZM23.4018 14.6861C23.4112 12.9522 21.9395 11.9766 20.5659 12.5472C20.4521 12.5943 20.2849 12.5873 20.1687 12.5402C18.9772 12.0535 17.6617 12.7301 17.3894 13.9875C17.2473 14.6445 17.4145 15.2489 17.7465 15.8132C18.2779 16.7159 19.0643 17.3509 19.9599 17.8611C20.2543 18.029 20.5604 17.9976 20.8539 17.8281C21.5109 17.4474 22.1027 16.9859 22.5902 16.4011C23.0642 15.8336 23.3947 15.201 23.4018 14.6861Z" fill="#4C5BD4"/>
<path d="M38.1437 29.7149C38.8188 30.3161 39.2968 31.0296 39.6202 31.8506C39.8855 32.5233 39.9993 33.2242 39.9993 33.9455C39.9985 34.6213 40.0032 35.2964 39.9985 35.9722C39.9938 36.6409 39.6523 36.9745 38.9781 36.9745C34.9052 36.9753 30.8323 36.9753 26.7602 36.9745C26.1158 36.9745 25.7524 36.6221 25.7579 35.9808C25.7665 35.042 25.7328 34.0978 25.8207 33.1653C25.9494 31.7988 26.5914 30.663 27.611 29.7109C28.7696 31.7894 30.4846 32.9817 32.8754 32.9832C35.267 32.984 36.9852 31.7988 38.1437 29.7149Z" fill="#F4BD76"/>
<path d="M30.7749 20.3338C31.6258 20.3338 32.4813 20.2757 33.3259 20.3456C35.4145 20.5167 37.0291 22.4154 36.9278 24.5103C36.9027 25.0275 36.5369 25.369 35.9749 25.3745C35.1822 25.3831 34.3902 25.3808 33.5975 25.376C32.8251 25.3713 32.0496 25.3957 31.2804 25.3376C29.2184 25.1822 27.5223 23.3188 27.5254 21.2553C27.5262 20.6846 27.8974 20.3071 28.4853 20.3008C29.2483 20.293 30.012 20.2993 30.7749 20.2993C30.7749 20.311 30.7749 20.322 30.7749 20.3338Z" fill="#F4BD76"/>
<path d="M16.4306 28.4789C15.6771 28.4789 14.9236 28.482 14.1701 28.4781C13.528 28.4749 13.1771 28.1154 13.1787 27.4726C13.1842 25.2615 14.9597 23.4429 17.1692 23.4146C18.6558 23.3958 20.1432 23.4076 21.6306 23.4123C22.2311 23.4138 22.5866 23.7898 22.5819 24.395C22.5631 26.6265 20.7115 28.4475 18.4258 28.4773C17.761 28.4859 17.0962 28.4789 16.4306 28.4789Z" fill="#4C5BD4"/>
<path d="M28.8338 26.4355C29.2082 26.5847 29.548 26.7762 29.913 26.8539C30.5504 26.9897 31.2003 27.1176 31.8478 27.1388C33.1971 27.1812 34.5495 27.1577 35.9003 27.1475C36.2299 27.1451 36.5596 27.0862 36.9293 27.0493C36.9505 28.4167 36.4442 29.5595 35.3438 30.3852C33.9835 31.4064 32.4993 31.5257 30.9821 30.7525C29.4452 29.9684 28.6995 28.4386 28.8338 26.4355Z" fill="#F4BD76"/>
<path d="M21.269 29.5371C21.4244 31.2498 20.9331 32.683 19.4755 33.6477C18.0995 34.5582 16.6325 34.599 15.2048 33.7756C13.8281 32.9829 13.1931 31.7278 13.1719 30.1556C14.8335 30.3432 16.4811 30.2113 18.1254 30.2482C19.1788 30.2718 20.1858 30.0763 21.1269 29.5842C21.1677 29.5638 21.2148 29.5552 21.269 29.5371Z" fill="#4C5BD4"/>
<path d="M23.4021 14.6848C23.3943 15.1997 23.0646 15.8324 22.5905 16.4006C22.1031 16.9854 21.5113 17.4469 20.8543 17.8276C20.5608 17.9971 20.2554 18.0285 19.9603 17.8606C19.0647 17.3504 18.2782 16.7154 17.7469 15.8127C17.4148 15.2484 17.2477 14.6432 17.3897 13.987C17.6621 12.7296 18.9768 12.0522 20.1691 12.5397C20.2845 12.5868 20.4524 12.5938 20.5663 12.5467C21.9406 11.9753 23.4116 12.951 23.4021 14.6848ZM20.2515 16.0969C20.9626 15.6424 21.4626 15.0796 21.5937 14.6526C21.6471 14.4792 21.6965 14.2916 21.4932 14.1888C21.3009 14.0914 21.2005 14.2351 21.0937 14.3779C20.713 14.8897 20.0341 14.8842 19.6487 14.3756C19.6251 14.3442 19.6126 14.2939 19.582 14.2814C19.4823 14.239 19.3583 14.1589 19.2798 14.1888C19.2013 14.2194 19.1055 14.3779 19.1244 14.4556C19.1754 14.6683 19.2453 14.896 19.374 15.0679C19.6487 15.4321 19.9642 15.7649 20.2515 16.0969Z" fill="white"/>
<path d="M20.2528 16.099C19.9655 15.7669 19.65 15.4341 19.376 15.0692C19.2473 14.8973 19.1774 14.6704 19.1264 14.4569C19.1076 14.38 19.2033 14.2207 19.2818 14.1901C19.3595 14.1602 19.4843 14.2403 19.584 14.2827C19.6139 14.2952 19.6272 14.3455 19.6507 14.3769C20.0361 14.8863 20.7151 14.891 21.0958 14.3792C21.2025 14.2364 21.303 14.0927 21.4953 14.1901C21.6986 14.2929 21.6491 14.4805 21.5958 14.6539C21.4639 15.0817 20.9639 15.6445 20.2528 16.099Z" fill="#4C5BD4"/>
</svg>
