<svg width="50" height="50" viewBox="0 0 50 50" fill="none" xmlns="http://www.w3.org/2000/svg">
<circle cx="25" cy="25" r="24.5" stroke="#C4C4C4" stroke-linecap="round" stroke-linejoin="round" stroke-dasharray="4 4"/>
<path d="M21.2438 16.9259C19.9209 18.4493 18.7294 19.9887 17.2622 21.2787C16.6725 21.7972 16.6509 22.1412 17.1816 22.7197C18.6262 24.2956 20.3559 24.6612 22.3772 23.7425C23.1291 23.4012 23.8378 22.9522 24.5306 22.4975C25.7728 21.6818 26.8238 21.7615 27.8756 22.8115C30.0309 24.965 32.1834 27.1222 34.3425 29.2719C34.6631 29.5906 34.8553 29.945 34.7616 30.4015C34.5853 31.2528 33.5634 31.5715 32.9175 30.9734C32.5313 30.6153 32.1684 30.2319 31.7953 29.8587C30.4772 28.5415 29.1619 27.2215 27.8391 25.91C27.7013 25.774 27.5353 25.6344 27.3563 25.579C27.0375 25.4806 26.7488 25.5903 26.5631 25.88C26.3878 26.1528 26.3991 26.4369 26.5866 26.7022C26.6597 26.8062 26.7563 26.8953 26.8472 26.9862C28.5459 28.685 30.2503 30.3781 31.9359 32.089C32.1384 32.2943 32.3081 32.5812 32.3738 32.8587C32.4844 33.3256 32.2059 33.7803 31.7841 33.9875C31.3613 34.1956 30.8513 34.1131 30.4903 33.754C29.2688 32.539 28.0528 31.3194 26.835 30.1006C26.205 29.4706 25.5788 28.8378 24.9431 28.2144C24.6619 27.9378 24.3422 27.8872 24.0469 28.0578C23.7525 28.2275 23.5969 28.4975 23.6859 28.8237C23.7403 29.0244 23.8866 29.2194 24.0366 29.3712C25.3134 30.6631 26.6081 31.9372 27.8784 33.2356C28.0725 33.4334 28.2366 33.71 28.2994 33.9762C28.4109 34.4553 28.1513 34.9006 27.7322 35.1153C27.3038 35.3337 26.8013 35.2625 26.4366 34.9025C25.5113 33.9884 24.5953 33.065 23.6756 32.1453C23.0953 31.565 22.5206 30.98 21.9328 30.4081C21.5569 30.0425 21.0478 30.0809 20.7769 30.4756C20.5622 30.7887 20.6053 31.144 20.9156 31.4581C21.5578 32.1087 22.2141 32.7453 22.8478 33.4044C23.0128 33.5759 23.1656 33.7915 23.2359 34.0137C23.3897 34.5031 23.1638 35.0028 22.7334 35.2494C22.2788 35.51 21.7678 35.435 21.3544 35.0272C19.7269 33.4231 18.1031 31.8162 16.4775 30.2094C15.3938 29.1387 14.3156 28.0625 13.2253 26.9984C13.0303 26.8081 12.9638 26.644 13.0294 26.36C13.7325 23.3403 14.4216 20.3178 15.1013 17.2934C15.1659 17.0065 15.2662 16.9015 15.5775 16.9044C17.3822 16.9222 19.1869 16.9128 20.9916 16.9137C21.0469 16.9128 21.1031 16.9184 21.2438 16.9259Z" fill="#4C5BD4"/>
<path d="M18.6406 22.0945C20.2963 20.2401 21.9228 18.3979 23.5756 16.5792C24.1016 16.0008 24.7316 15.5583 25.5556 15.4758C26.1894 15.4129 26.7716 15.5854 27.3097 15.8761C28.5341 16.5379 29.7303 17.2523 30.9584 17.9076C31.4056 18.1467 31.8988 18.3258 32.3919 18.4476C33.095 18.6211 33.7869 18.4758 34.4497 18.1973C34.6325 18.1204 34.8144 18.0436 35.0469 17.9451C35.7753 21.1242 36.5 24.2836 37.2313 27.4758C36.6659 27.727 36.1184 27.9858 35.5559 28.2061C35.4678 28.2408 35.2831 28.132 35.1913 28.0411C33.065 25.9261 30.9491 23.8008 28.8228 21.6867C27.6809 20.5514 26.3272 20.2092 24.7925 20.7164C24.4325 20.8354 24.1081 21.0661 23.7706 21.2508C22.9616 21.6933 22.1834 22.2061 21.3397 22.5651C20.3759 22.9776 19.4338 22.8192 18.6406 22.0945Z" fill="#F4BD76"/>
<path d="M10.4118 28.2545C9.71899 28.0914 8.91649 27.9227 8.12618 27.7089C7.77649 27.6142 7.64899 27.2589 7.74461 26.8389C8.18336 24.9105 8.62399 22.982 9.06461 21.0545C9.50055 19.1495 9.9393 17.2455 10.3752 15.3405C10.5224 14.6945 10.7877 14.5173 11.4243 14.6589C12.0187 14.7902 12.6112 14.927 13.2037 15.0667C13.8468 15.2177 14.0202 15.4923 13.8749 16.127C13.1699 19.2067 12.464 22.2864 11.758 25.3661C11.5799 26.1414 11.4046 26.9177 11.219 27.6911C11.1281 28.0717 10.8768 28.2648 10.4118 28.2545Z" fill="#4C5BD4"/>
<path d="M39.4895 28.2597C39.1061 28.2532 38.8755 28.0563 38.7827 27.6579C38.3149 25.6404 37.8527 23.621 37.3886 21.6026C36.9752 19.8007 36.5645 17.9979 36.1502 16.196C35.9823 15.4676 36.1314 15.2276 36.872 15.0551C37.4533 14.9201 38.0345 14.7832 38.6177 14.6547C39.2074 14.5244 39.4895 14.7101 39.6264 15.3072C40.0183 17.0182 40.4102 18.7291 40.8011 20.4401C41.2858 22.5616 41.7705 24.6841 42.2533 26.8057C42.3789 27.356 42.1961 27.6522 41.6467 27.7835C41.0205 27.9335 40.3923 28.0741 39.7652 28.2166C39.663 28.241 39.557 28.2494 39.4895 28.2597Z" fill="#4C5BD4"/>
</svg>
