<svg width="50" height="50" viewBox="0 0 50 50" fill="none" xmlns="http://www.w3.org/2000/svg">
<circle cx="25" cy="25" r="24.5" stroke="#C4C4C4" stroke-linecap="round" stroke-linejoin="round" stroke-dasharray="4 4"/>
<path d="M28.7488 24.0105C29.5635 25.2527 29.6479 26.5783 29.1698 27.9517C28.9251 28.6548 28.5042 29.2473 27.9876 29.7948C26.3948 31.4813 24.381 32.2856 22.1545 32.6634C20.737 32.9034 19.3148 32.8894 17.8935 32.6747C17.4707 32.6109 17.1698 32.8256 16.8735 33.0891C16.3429 33.5615 15.7963 34.0172 15.2179 34.514C15.1373 34.1493 15.1767 33.8362 15.1598 33.5287C15.141 33.1781 15.1138 32.8275 15.1167 32.4769C15.1204 32.056 14.9057 31.8113 14.5457 31.6369C13.4826 31.1232 12.5582 30.4313 11.7745 29.5379C10.4085 27.9808 10.1788 25.5264 11.2842 23.9355C11.3929 24.0687 11.5438 24.0152 11.677 24.0162C12.8676 24.0199 14.0573 24.0171 15.2479 24.0209C15.3726 24.0218 15.5451 23.9515 15.5835 24.1671C15.411 24.6171 15.5188 24.8027 15.9698 24.8027C18.6698 24.8055 21.3707 24.8036 24.0707 24.8046C24.2535 24.8046 24.4232 24.783 24.5198 24.603C24.6295 24.3996 24.4842 24.2768 24.3679 24.1465C24.4617 23.9759 24.6257 24.019 24.772 24.018C26.0976 24.0152 27.4232 24.0134 28.7488 24.0105ZM19.9729 28.5985C21.2957 28.5985 22.6185 28.5985 23.9423 28.5985C24.0473 28.5985 24.1542 28.6032 24.2573 28.5882C24.4485 28.5611 24.5507 28.4261 24.5479 28.2489C24.5451 28.0661 24.4326 27.947 24.2348 27.9376C24.141 27.9339 24.0473 27.9339 23.9535 27.9339C21.3313 27.9339 18.7082 27.9339 16.086 27.9339C15.981 27.9339 15.8751 27.9414 15.7701 27.9404C15.6088 27.9386 15.5442 28.0379 15.5132 28.1739C15.4542 28.4354 15.592 28.5948 15.8976 28.5957C17.257 28.5995 18.6145 28.5976 19.9729 28.5985Z" fill="#F4BD76"/>
<path d="M29.63 24.0357C28.311 21.6132 26.1369 20.358 23.5775 19.6755C21.351 19.0811 19.0991 19.0717 16.8135 19.5789C16.8547 19.4355 16.956 19.3633 17.0357 19.2808C18.4485 17.8211 20.18 16.8959 22.0954 16.2884C24.8591 15.4128 27.6716 15.2722 30.5104 15.8121C31.5172 16.0043 32.4988 16.3193 33.4588 16.6971C34.7207 17.193 35.855 17.899 36.8722 18.7764C37.9325 19.6914 38.7454 20.8014 39.1522 22.1673C39.3247 22.7476 39.4419 23.3382 39.4044 23.9485C36.2872 23.9485 33.171 23.9475 30.0538 23.9513C29.9113 23.9504 29.7472 23.8876 29.63 24.0357Z" fill="#4C5BD4"/>
<path d="M29.6296 24.0336C29.7468 23.8854 29.9118 23.9492 30.0543 23.9492C33.1715 23.9454 36.2877 23.9464 39.4049 23.9464C39.4152 25.2542 38.9709 26.4147 38.234 27.4722C37.7184 28.2119 37.0996 28.8616 36.3777 29.3997C35.7552 29.8628 35.1327 30.3296 34.3968 30.6156C33.8437 30.8312 33.5643 31.2231 33.569 31.8474C33.5755 32.708 33.524 33.5686 33.4949 34.5033C32.9315 34.0402 32.4205 33.6202 31.9087 33.2011C31.5205 32.8843 31.1249 32.5749 30.7424 32.2515C30.509 32.0546 30.2484 31.9946 29.9577 32.0452C28.6827 32.2665 27.3984 32.274 26.1102 32.2327C26.069 32.2318 26.0277 32.2262 25.8965 32.2158C26.1974 32.0387 26.4252 31.9093 26.6493 31.7715C28.123 30.8668 29.2959 29.7015 29.8696 28.0253C30.2746 26.8413 30.2371 25.661 29.804 24.491C29.7459 24.3382 29.6868 24.1854 29.6296 24.0336Z" fill="#4C5BD4"/>
<path d="M28.7489 24.0093C27.4233 24.0121 26.0977 24.0131 24.773 24.0178C24.6267 24.0178 24.4627 23.9746 24.3689 24.1462C24.2873 24.1415 24.2058 24.1331 24.1242 24.1331C21.4055 24.1321 18.6867 24.1321 15.967 24.134C15.8395 24.134 15.712 24.1556 15.5845 24.1668C15.547 23.9512 15.3745 24.0206 15.2489 24.0206C14.0583 24.0159 12.8686 24.0196 11.678 24.0159C11.5448 24.0159 11.3939 24.0693 11.2852 23.9353C11.902 22.8647 12.7992 22.0762 13.8577 21.4819C16.9261 19.7597 20.1848 19.5001 23.5411 20.3841C25.1311 20.8032 26.5964 21.5297 27.7814 22.7109C28.1639 23.0906 28.5455 23.4881 28.7489 24.0093Z" fill="#F4BD76"/>
<path d="M15.5833 24.1668C15.7108 24.1555 15.8383 24.134 15.9658 24.134C18.6846 24.1321 21.4033 24.133 24.123 24.133C24.2046 24.133 24.2861 24.1415 24.3677 24.1462C24.4839 24.2765 24.6293 24.3993 24.5196 24.6027C24.4221 24.7827 24.2533 24.8043 24.0705 24.8043C21.3705 24.8024 18.6696 24.8043 15.9696 24.8024C15.5186 24.8024 15.4118 24.6168 15.5833 24.1668Z" fill="#FEFEFE"/>
<path d="M19.9731 28.5974C18.6147 28.5974 17.2572 28.5993 15.8987 28.5955C15.5931 28.5946 15.4553 28.4343 15.5144 28.1737C15.5453 28.0377 15.61 27.9374 15.7712 27.9402C15.8762 27.9421 15.9822 27.9337 16.0872 27.9337C18.7094 27.9337 21.3325 27.9337 23.9547 27.9337C24.0484 27.9337 24.1422 27.9327 24.2359 27.9374C24.4337 27.9459 24.5462 28.0659 24.5491 28.2487C24.5519 28.4268 24.4497 28.5608 24.2584 28.588C24.1553 28.603 24.0484 28.5983 23.9434 28.5983C22.6187 28.5974 21.2959 28.5974 19.9731 28.5974Z" fill="#FEFEFE"/>
</svg>
