<svg width="24" height="24" viewBox="0 0 24 24" fill="none" xmlns="http://www.w3.org/2000/svg">
<circle cx="12" cy="12" r="11.5" stroke="#BCE0FF"/>
<path d="M12.3712 8.54004C11.8536 8.54004 11.4373 8.88087 11.3295 9.32333C10.6924 9.42514 10.1954 9.91089 10.1954 10.5181C10.1954 10.5803 10.2085 10.6348 10.2182 10.6914C10.0439 10.9254 9.92338 11.2 9.92338 11.5071C9.92338 11.951 10.166 12.3269 10.5082 12.598C10.4843 12.6847 10.4673 12.7738 10.4673 12.867C10.4673 13.4785 11.0185 13.9796 11.6912 13.9796C11.6985 13.9796 11.7022 13.9783 11.7093 13.9782C11.8678 14.2565 12.1411 14.4741 12.5072 14.4741C12.7723 14.4741 13.0128 14.373 13.1861 14.2119C13.3591 14.3733 13.6001 14.4741 13.8671 14.4741C14.0142 14.4741 14.1525 14.4401 14.2777 14.3848C14.5503 14.7356 14.9986 14.9686 15.4989 14.9686C15.8253 14.9686 16.0972 14.8697 16.342 14.7214L17.1579 15.4631L17.5388 15.1169L16.7228 14.3751C16.886 14.1526 16.9948 13.8807 16.9948 13.6087C16.9948 13.072 16.638 12.6016 16.1321 12.3816C16.3354 12.1313 16.4509 11.8274 16.4509 11.5071C16.4509 11.2106 16.353 10.9266 16.1661 10.6789C16.1746 10.624 16.1789 10.5707 16.1789 10.5181C16.1789 9.9118 15.6965 9.40594 15.0623 9.3016C14.9489 8.86544 14.5168 8.54004 14.003 8.54004C13.6761 8.54004 13.3856 8.67431 13.1861 8.88243C12.9861 8.67471 12.6962 8.54004 12.3712 8.54004ZM12.3712 9.03454C12.6749 9.03454 12.9151 9.25295 12.9151 9.52905V10.0236C12.9151 10.4361 12.553 10.7653 12.0992 10.7653V11.2598C12.4121 11.2598 12.6905 11.1545 12.9151 10.9875V13.6087C12.9151 13.8166 12.7359 13.9796 12.5072 13.9796C12.3041 13.9796 12.1415 13.8483 12.1072 13.6749L12.0599 13.4373L11.7975 13.4745C11.7498 13.4813 11.7159 13.4851 11.6912 13.4851C11.3125 13.4851 11.0113 13.2113 11.0113 12.867C11.0113 12.7847 11.0293 12.707 11.0623 12.6337C11.147 12.4444 11.3307 12.3028 11.5552 12.2614L11.4469 11.7765C11.1654 11.8284 10.9193 11.9687 10.7441 12.1634C10.5723 11.9892 10.4673 11.7608 10.4673 11.5071C10.4673 11.2748 10.5584 11.0657 10.7096 10.8938L10.7914 10.8006L10.7622 10.6842C10.7476 10.6264 10.7393 10.5715 10.7393 10.5181C10.7393 10.1055 11.1015 9.7763 11.5552 9.7763H11.8272V9.52905C11.8272 9.25295 12.0675 9.03454 12.3712 9.03454ZM14.003 9.03454C14.303 9.03454 14.547 9.25633 14.547 9.52905V9.7763H14.819C15.2688 9.7763 15.6349 10.1091 15.6349 10.5181C15.6349 10.5692 15.6276 10.6234 15.6121 10.6837L15.5829 10.8001L15.6647 10.8938C15.823 11.074 15.9069 11.286 15.9069 11.5071C15.9069 11.7943 15.7691 12.0633 15.5335 12.2503C15.5219 12.25 15.5106 12.2488 15.4989 12.2488C14.683 12.2488 14.003 12.867 14.003 13.6087C14.003 13.721 14.0205 13.8298 14.0498 13.9347C13.9939 13.9608 13.9335 13.9796 13.8671 13.9796C13.6421 13.9796 13.4591 13.8132 13.4591 13.6087V10.9875C13.6837 11.1545 13.9621 11.2598 14.275 11.2598V10.7653C13.8212 10.7653 13.4591 10.4361 13.4591 10.0236V9.52905C13.4591 9.25633 13.7031 9.03454 14.003 9.03454ZM15.4989 12.7433C16.0157 12.7433 16.4509 13.1389 16.4509 13.6087C16.4509 14.0785 16.0157 14.4741 15.4989 14.4741C14.9822 14.4741 14.547 14.0785 14.547 13.6087C14.547 13.1389 14.9822 12.7433 15.4989 12.7433Z" fill="#4C5BD4"/>
<path d="M5.77244 6.625C5.31681 6.625 4.87984 6.80784 4.55766 7.13329C4.23548 7.45875 4.05449 7.90016 4.05449 8.36042C4.05449 8.82068 4.23548 9.26209 4.55766 9.58754C4.87984 9.913 5.31681 10.0958 5.77244 10.0958C6.22806 10.0958 6.66503 9.913 6.98721 9.58754C7.30939 9.26209 7.49038 8.82068 7.49038 8.36042C7.49038 7.90016 7.30939 7.45875 6.98721 7.13329C6.66503 6.80784 6.22806 6.625 5.77244 6.625ZM7.68919 6.625C8.00744 6.98336 8.22831 7.43067 8.31077 7.92656H18.2276V16.1698H8.34936V17.4714H19.7308C20.0864 17.4714 20.375 17.1802 20.375 16.8206C20.375 16.4609 20.0864 16.1698 19.7308 16.1698H19.516V7.27578C19.516 6.91612 19.2274 6.625 18.8718 6.625H7.68919Z" fill="#4C5BD4"/>
<path d="M4.91346 10.9635C4.2018 10.9635 3.625 11.5462 3.625 12.2651V17.4714H7.49038V12.5543L8.92201 14.2898C10.0673 14.579 9.63782 13.5667 9.63782 13.5667C9.63782 13.5667 7.81497 11.1451 7.49038 11.0359C7.1658 10.9266 5.34295 10.9635 5.34295 10.9635H4.91346Z" fill="#4C5BD4"/>
</svg>
