<svg width="50" height="50" viewBox="0 0 50 50" fill="none" xmlns="http://www.w3.org/2000/svg">
<circle cx="25" cy="25" r="24.5" stroke="#C4C4C4" stroke-linecap="round" stroke-linejoin="round" stroke-dasharray="4 4"/>
<path d="M18.7742 39.9945C15.9305 39.9945 13.0867 39.9922 10.243 40C10.05 40.0008 10 39.9711 10 39.764C10.007 29.918 10.0062 20.0711 10.0016 10.225C10.0016 10.0422 10.043 10.0016 10.225 10.0016C20.0711 10.007 29.918 10.007 39.7641 10C39.9711 10 40 10.05 40 10.243C39.9922 13.1062 39.9945 15.9695 39.9945 18.8328C39.5297 18.1047 39.0188 18.0273 38.343 18.5883C37.9016 18.9555 37.4609 19.3227 36.9945 19.6594C34.7234 21.2961 32.1289 21.932 29.3906 22.0969C28.0789 22.1758 26.7641 22.1937 25.4508 22.243C23.9234 22.3008 22.3953 22.3375 20.8805 22.5664C20.6984 22.5937 20.6523 22.5312 20.6242 22.3625C20.4852 21.5281 20.3352 20.6953 20.1781 19.8641C20.1406 19.6672 20.2063 19.5375 20.3336 19.3984C21.6969 17.9102 22.6922 16.2312 22.9555 14.193C23.0734 13.2812 23.0031 12.3828 22.5609 11.5492C21.5984 9.73359 19.2938 9.54375 18.1102 11.193C17.4422 12.1234 17.318 13.2016 17.4695 14.2937C17.6797 15.8055 17.9609 17.307 18.2219 18.8117C18.2539 18.9953 18.225 19.118 18.0969 19.2539C17.6484 19.7273 17.2063 20.2078 16.7742 20.6969C15.7773 21.8234 14.868 23.0117 14.268 24.407C14.2172 24.5258 14.125 24.5797 14.0187 24.6344C13.2492 25.0336 12.5102 25.4859 11.7937 25.9726C11.3023 26.3062 10.8094 26.6391 10.3609 27.0297C10.0609 27.2906 9.98672 27.6562 10.132 28.0117C10.2742 28.3594 10.5969 28.5555 10.9883 28.55C11.2633 28.5461 11.4648 28.3914 11.6633 28.2367C12.2008 27.8172 12.7547 27.4203 13.3344 27.0609C13.4023 27.0187 13.4617 26.9336 13.5773 26.9844C13.5719 27.0976 13.5703 27.2141 13.5602 27.3297C13.4609 28.3937 13.6 29.4281 13.9672 30.4281C14.0484 30.65 14.0063 30.7445 13.8063 30.8523C12.5945 31.507 11.4961 32.3312 10.4062 33.1656C10.0227 33.4594 9.95703 33.9812 10.232 34.3664C10.4984 34.7398 10.9977 34.8445 11.4008 34.6031C11.5422 34.5187 11.6734 34.4156 11.8047 34.3148C12.7086 33.6203 13.6359 32.9617 14.6281 32.3961C14.8375 32.2766 14.9484 32.275 15.1227 32.4812C16.6281 34.2719 18.5258 35.1844 20.8969 34.9859C21.05 34.9734 21.1008 35.0141 21.1219 35.1633C21.1625 35.4516 21.2336 35.7359 21.2758 36.025C21.343 36.4812 21.2789 36.9172 21.0344 37.318C20.5828 38.0594 19.6922 38.4062 18.8578 38.1648C18.0203 37.9226 17.4914 37.1898 17.4945 36.2758C17.4969 35.6476 17.1633 35.257 16.6266 35.2578C16.0898 35.2586 15.7484 35.65 15.7398 36.2719C15.7172 38.0062 16.843 39.468 18.5203 39.8914C18.6055 39.9109 18.7172 39.8937 18.7742 39.9945ZM35.8445 13.7195C35.8445 12.8039 35.8469 11.8891 35.8438 10.9734C35.8414 10.3297 35.3258 9.92969 34.7023 10.1031C32.5805 10.693 30.4609 11.2898 28.3422 11.8891C27.8773 12.0203 27.6609 12.3289 27.6602 12.8164C27.6594 13.6445 27.6578 14.4719 27.6617 15.3C27.6625 15.4602 27.6414 15.5312 27.4492 15.4734C27.0914 15.3648 26.725 15.368 26.3539 15.4352C24.9711 15.6852 24.0086 16.9375 24.1641 18.2984C24.3289 19.7422 25.5461 20.7227 27.0766 20.6453C28.3219 20.582 29.4125 19.3602 29.4133 18.0227C29.4148 16.5719 29.4133 15.1203 29.4148 13.6695C29.4148 13.55 29.3828 13.4352 29.5703 13.3836C31.0195 12.9852 32.4656 12.5742 33.9109 12.1609C34.0547 12.1195 34.0961 12.1406 34.093 12.2937C34.0844 12.7023 34.0813 13.1117 34.0938 13.5203C34.1008 13.7305 34.0438 13.7469 33.8461 13.7031C31.9125 13.2727 30.2688 14.8734 30.6414 16.8141C30.8898 18.1062 32.1336 19.0055 33.5117 18.8891C34.7547 18.7836 35.8227 17.6445 35.843 16.3789C35.857 15.4922 35.8453 14.6055 35.8445 13.7195ZM13.625 16.2633C13.6258 15.7891 13.2273 15.3891 12.7531 15.3891C12.2758 15.3883 11.8812 15.7828 11.8805 16.2602C11.8797 16.7383 12.2734 17.1336 12.75 17.1344C13.225 17.1352 13.6242 16.7375 13.625 16.2633Z" fill="#FEFEFE"/>
<path d="M18.7741 39.9937C18.7163 39.8921 18.6053 39.9101 18.5178 39.8882C16.8397 39.4648 15.7147 38.0038 15.7373 36.2687C15.7452 35.6468 16.0873 35.2554 16.6241 35.2546C17.1608 35.2538 17.4944 35.6445 17.492 36.2726C17.4889 37.1874 18.017 37.9195 18.8553 38.1617C19.6897 38.4031 20.5803 38.0562 21.0319 37.3148C21.2764 36.914 21.3405 36.4781 21.2733 36.0218C21.2311 35.7335 21.16 35.4492 21.1194 35.1601C21.0983 35.0109 21.0475 34.9703 20.8944 34.9828C18.5225 35.182 16.6256 34.2695 15.1202 32.4781C14.9459 32.271 14.835 32.2734 14.6256 32.3929C13.6334 32.9585 12.7061 33.6171 11.8022 34.3117C11.6709 34.4124 11.5397 34.5148 11.3983 34.5999C10.9952 34.8413 10.4959 34.7367 10.2295 34.3632C9.95531 33.9781 10.0202 33.4554 10.4038 33.1624C11.4944 32.3281 12.592 31.5031 13.8038 30.8492C14.0038 30.7413 14.0459 30.6468 13.9647 30.4249C13.5975 29.4249 13.4584 28.3906 13.5577 27.3265C13.5686 27.2109 13.5694 27.0945 13.5748 26.9812C13.46 26.9304 13.3998 27.0156 13.3319 27.0578C12.7522 27.4179 12.1991 27.814 11.6608 28.2335C11.4623 28.3882 11.2608 28.5429 10.9858 28.5468C10.5944 28.5531 10.2717 28.3562 10.1295 28.0085C9.98422 27.6531 10.0584 27.2874 10.3584 27.0265C10.8069 26.6359 11.2998 26.3031 11.7913 25.9695C12.5084 25.4828 13.2467 25.0312 14.0163 24.6312C14.1225 24.5757 14.2147 24.5218 14.2655 24.4038C14.8663 23.0085 15.7748 21.821 16.7717 20.6937C17.2038 20.2054 17.6459 19.7249 18.0944 19.2507C18.2233 19.1148 18.2514 18.9921 18.2194 18.8085C17.9577 17.3046 17.6764 15.8023 17.467 14.2906C17.3155 13.1984 17.4397 12.1203 18.1077 11.1898C19.2913 9.54058 21.5959 9.73042 22.5584 11.546C22.9998 12.3796 23.0709 13.2781 22.953 14.1898C22.6889 16.2281 21.6944 17.9078 20.3311 19.3953C20.2038 19.5343 20.1381 19.6648 20.1756 19.8609C20.3334 20.6921 20.4827 21.5249 20.6217 22.3593C20.6498 22.5289 20.6959 22.5913 20.878 22.5632C22.3928 22.3343 23.9217 22.2976 25.4483 22.2398C26.7616 22.1906 28.0772 22.1726 29.3881 22.0937C32.1264 21.9288 34.7209 21.2929 36.992 19.6562C37.4584 19.3195 37.8991 18.9523 38.3405 18.5851C39.0163 18.0242 39.5272 18.1015 39.992 18.8296C39.992 19.0242 39.992 19.2195 39.992 19.414C39.7772 19.7726 39.428 19.9937 39.1202 20.2554C37.4772 21.6562 35.6233 22.657 33.5358 23.2273C31.3975 23.8117 29.2077 23.9234 27.01 23.9765C26.0655 23.9992 25.1209 24.007 24.1772 24.0453C23.2045 24.0843 22.2334 24.1515 21.267 24.2773C21.1561 24.2921 20.9608 24.2406 20.9936 24.4742C21.0178 24.6445 21.0116 24.8062 21.2827 24.7937C23.1944 24.7046 25.0006 25.9835 25.6897 27.8015C25.7772 28.032 25.8874 28.082 26.1116 28.0718C27.2006 28.021 28.2913 27.9945 29.3803 27.9429C30.6334 27.8835 31.8772 27.7413 33.0998 27.4499C35.0733 26.9788 36.8264 26.0765 38.3694 24.7601C38.5311 24.6218 38.6897 24.4773 38.9123 24.4351C39.3717 24.3476 39.678 24.5117 39.9913 25.0249C39.9913 25.1999 39.9913 25.3757 39.9913 25.5507C39.8897 25.7015 39.8194 25.871 39.6749 25.9945C38.6202 26.8976 37.4741 27.6562 36.2139 28.2429C33.8991 29.3203 31.4311 29.6546 28.9147 29.7617C28.0202 29.7999 27.1248 29.8398 26.2295 29.8195C26.0311 29.8148 25.9881 29.8992 25.9639 30.0703C25.735 31.7327 24.9116 33.0304 23.5584 34.0117C23.3061 34.1945 22.8834 34.2367 22.8186 34.5507C22.7584 34.8429 22.9006 35.1781 22.9608 35.4929C23.3709 37.6413 22.1842 39.4562 20.0577 39.9281C20.0116 39.9382 19.9584 39.9296 19.9405 39.9898C19.5538 39.9937 19.1639 39.9937 18.7741 39.9937ZM18.6397 21.2359C17.5678 22.3953 16.585 23.5382 15.9623 24.9359C15.2538 26.5265 15.0155 28.1624 15.6178 29.8445C16.3756 31.9609 18.3756 33.3538 20.4873 33.2718C20.7217 33.2624 20.7741 33.2062 20.7288 32.9632C20.4545 31.4906 20.2006 30.0148 19.9381 28.5398C19.8702 28.157 19.7959 27.7749 19.7163 27.3484C19.6483 27.4249 19.6202 27.4515 19.5983 27.4828C19.2483 27.9695 19.1405 28.4968 19.2881 29.0867C19.4225 29.6234 19.1569 30.082 18.6702 30.2101C18.2053 30.332 17.7538 30.0499 17.5998 29.5445C17.4467 29.0406 17.4248 28.5265 17.5178 28.0132C17.7131 26.9328 18.2936 26.0968 19.1889 25.4734C19.2866 25.4054 19.3772 25.3562 19.3498 25.2023C19.1131 23.9023 18.8834 22.6007 18.6397 21.2359ZM22.4506 32.6413C23.3952 32.0085 23.96 31.1773 24.1905 30.1242C24.5498 28.482 23.4545 26.8562 21.8045 26.5679C21.3803 26.4937 21.3561 26.5234 21.4327 26.9476C21.6413 28.1038 21.8444 29.2617 22.0506 30.4187C22.1803 31.1429 22.3116 31.8679 22.4506 32.6413ZM19.7334 17.3234C19.7952 17.271 19.8209 17.2562 19.8366 17.2343C19.9498 17.0765 20.0709 16.9226 20.1717 16.7562C20.8288 15.6742 21.2913 14.5312 21.2288 13.2351C21.2092 12.8296 21.1053 12.4453 20.8295 12.1304C20.4514 11.6984 19.9413 11.7117 19.578 12.1562C19.4467 12.3171 19.3639 12.5039 19.3038 12.6999C19.16 13.1648 19.1366 13.6453 19.2061 14.1171C19.3616 15.1742 19.5506 16.2257 19.7334 17.3234Z" fill="#4C5BD4"/>
<path d="M19.9434 39.9957C19.9621 39.9355 20.0152 39.9441 20.0605 39.934C22.1871 39.4621 23.3746 37.6473 22.9637 35.4988C22.9035 35.184 22.7613 34.8488 22.8215 34.5566C22.8863 34.2426 23.309 34.2004 23.5613 34.0176C24.9152 33.0363 25.7387 31.7387 25.9668 30.0762C25.9902 29.9051 26.0332 29.8207 26.2324 29.8254C27.1277 29.8457 28.023 29.8059 28.9176 29.7676C31.4332 29.6613 33.902 29.3262 36.2168 28.2488C37.477 27.6621 38.6238 26.9035 39.6777 26.0004C39.8223 25.877 39.8926 25.7066 39.9941 25.5566C39.9941 30.2918 39.9926 35.0269 39.9996 39.7613C39.9996 39.9613 39.9605 40.0012 39.7605 40.0004C33.1543 39.9949 26.5488 39.9957 19.9434 39.9957ZM33.8535 33.4277C34.0262 33.4363 34.1426 33.5316 34.273 33.5902C34.7777 33.816 35.2871 33.6723 35.5082 33.2355C35.7426 32.773 35.5676 32.2746 35.0574 32.0176C34.502 31.7379 33.9402 31.4676 33.3723 31.2145C32.7191 30.923 32.1074 31.3215 32.1004 32.0324C32.0949 32.5676 32.0949 33.1035 32.1012 33.6387C32.1035 33.8113 32.0848 33.8855 31.8746 33.8254C31.4871 33.7137 31.091 33.716 30.691 33.7949C29.4184 34.0465 28.5004 35.2574 28.5988 36.5699C28.6973 37.8871 29.8066 38.959 31.1145 38.9996C32.6277 39.0473 33.8504 37.8652 33.8527 36.3512C33.8551 35.3793 33.8535 34.4074 33.8535 33.4277Z" fill="#FEFEFE"/>
<path d="M39.9945 25.0289C39.6812 24.5156 39.375 24.3516 38.9156 24.4391C38.6921 24.482 38.5343 24.6258 38.3726 24.7641C36.8304 26.0805 35.0765 26.9828 33.1031 27.4539C31.8804 27.7461 30.6367 27.8875 29.3836 27.9469C28.2945 27.9984 27.2046 28.025 26.1148 28.0758C25.8906 28.0859 25.7804 28.0359 25.6929 27.8055C25.0039 25.9875 23.1976 24.7086 21.2859 24.7977C21.0148 24.8102 21.021 24.6484 20.9968 24.4781C20.964 24.2445 21.1593 24.2953 21.2703 24.2812C22.2359 24.1547 23.2078 24.0883 24.1804 24.0492C25.1242 24.0109 26.0687 24.0031 27.0132 23.9805C29.2109 23.9273 31.4 23.8148 33.539 23.2312C35.6273 22.6609 37.4804 21.6602 39.1234 20.2594C39.4312 19.9969 39.7796 19.7766 39.9953 19.418C39.9945 21.2875 39.9945 23.1586 39.9945 25.0289Z" fill="#FEFEFE"/>
<path d="M35.8452 13.7202C35.8452 14.6061 35.8569 15.4929 35.8428 16.3788C35.8225 17.6444 34.7553 18.7835 33.5116 18.8889C32.1335 19.0054 30.8897 18.1061 30.6413 16.8139C30.2686 14.8733 31.9124 13.2725 33.846 13.703C34.0436 13.7468 34.1006 13.7304 34.0936 13.5202C34.0803 13.1116 34.0842 12.7022 34.0928 12.2936C34.096 12.1397 34.0545 12.1194 33.9108 12.1608C32.4655 12.5741 31.0194 12.985 29.5702 13.3835C29.3819 13.435 29.4147 13.5499 29.4147 13.6694C29.4131 15.1202 29.4147 16.5718 29.4131 18.0225C29.4116 19.36 28.3217 20.5827 27.0764 20.6452C25.546 20.7225 24.3288 19.7421 24.1639 18.2983C24.0084 16.9374 24.971 15.6858 26.3538 15.435C26.7256 15.3679 27.0913 15.3655 27.4491 15.4733C27.6413 15.5311 27.6624 15.46 27.6616 15.2999C27.6577 14.4718 27.6592 13.6444 27.66 12.8163C27.6608 12.3288 27.8772 12.0202 28.342 11.889C30.4608 11.289 32.5803 10.6929 34.7022 10.103C35.3256 9.92958 35.8413 10.3304 35.8436 10.9733C35.8475 11.8897 35.8444 12.8046 35.8452 13.7202Z" fill="#F7C14C"/>
<path d="M13.6244 16.2629C13.6236 16.7379 13.2244 17.1348 12.7494 17.134C12.2729 17.1332 11.8791 16.7371 11.8799 16.2598C11.8807 15.7816 12.2752 15.3879 12.7525 15.3887C13.2268 15.3887 13.6252 15.7879 13.6244 16.2629Z" fill="#F7C14C"/>
<path d="M18.6397 21.2363C18.8826 22.6012 19.1123 23.9027 19.3498 25.2027C19.3779 25.3566 19.2873 25.4059 19.1889 25.4738C18.2936 26.0973 17.7131 26.9324 17.5178 28.0137C17.4248 28.5269 17.4467 29.041 17.5998 29.5449C17.7537 30.0496 18.2053 30.3324 18.6701 30.2105C19.1568 30.0824 19.4232 29.6238 19.2881 29.0871C19.1404 28.4973 19.2475 27.9699 19.5982 27.4832C19.6201 27.4527 19.6482 27.4262 19.7162 27.3488C19.7959 27.7754 19.8701 28.1574 19.9381 28.5402C20.2006 30.0152 20.4545 31.491 20.7287 32.9637C20.774 33.2066 20.7217 33.2629 20.4873 33.2723C18.3756 33.3551 16.3756 31.9613 15.6178 29.8449C15.0154 28.1629 15.2529 26.5269 15.9623 24.9363C16.5857 23.5379 17.5678 22.3957 18.6397 21.2363Z" fill="#FEFEFE"/>
<path d="M22.4505 32.641C22.3114 31.8683 22.1802 31.1433 22.0505 30.4175C21.8442 29.2605 21.6411 28.1035 21.4325 26.9464C21.356 26.523 21.3802 26.4925 21.8044 26.5667C23.4536 26.855 24.5497 28.4808 24.1903 30.123C23.9599 31.1761 23.395 32.0074 22.4505 32.641Z" fill="#FEFEFE"/>
<path d="M19.7342 17.3249C19.5513 16.2264 19.3631 15.1756 19.2068 14.1194C19.1373 13.6467 19.1599 13.1663 19.3045 12.7022C19.3654 12.5061 19.4482 12.3194 19.5787 12.1585C19.9412 11.7131 20.4521 11.7006 20.8303 12.1327C21.106 12.4475 21.2099 12.8319 21.2295 13.2374C21.2912 14.5342 20.8295 15.6772 20.1724 16.7585C20.0717 16.9241 19.9506 17.078 19.8373 17.2366C19.8217 17.2585 19.7959 17.2725 19.7342 17.3249Z" fill="#FEFEFE"/>
<path d="M33.8529 33.4274C33.8529 34.4071 33.8537 35.3782 33.8529 36.35C33.8514 37.8641 32.6279 39.0469 31.1147 38.9985C29.8068 38.9571 28.6975 37.886 28.599 36.5688C28.5006 35.2563 29.4186 34.0446 30.6912 33.7938C31.0912 33.7149 31.4873 33.7133 31.8748 33.8243C32.085 33.8844 32.1029 33.8102 32.1014 33.6375C32.0951 33.1024 32.0951 32.5664 32.1006 32.0313C32.1076 31.3211 32.7193 30.9219 33.3725 31.2133C33.9404 31.4672 34.5014 31.7368 35.0576 32.0164C35.5678 32.2735 35.7428 32.7719 35.5084 33.2344C35.2873 33.6711 34.7771 33.8149 34.2732 33.5891C34.1428 33.5313 34.0256 33.436 33.8529 33.4274Z" fill="#F7C14C"/>
</svg>
