<svg width="50" height="50" viewBox="0 0 50 50" fill="none" xmlns="http://www.w3.org/2000/svg">
<circle cx="25" cy="25" r="24.5" stroke="#C4C4C4" stroke-linecap="round" stroke-linejoin="round" stroke-dasharray="4 4"/>
<path d="M23.5 33.3242H26.5V39.9992H23.5V33.3242Z" fill="#795548"/>
<path d="M25 16.6758L15.25 33.2508C15.25 33.2508 18.325 36.2508 25 36.2508C31.675 36.2508 34.75 33.2508 34.75 33.2508L25 16.6758Z" fill="#4C5BD4"/>
<path d="M25 12.4746L17.5 24.9996C17.5 24.9996 18.775 27.2496 25 27.2496C31.225 27.2496 32.5 24.9996 32.5 24.9996L25 12.4746Z" fill="#4C5BD4"/>
<path d="M25 10L19.75 17.5C19.75 17.5 20.8 19 25 19C29.2 19 30.25 17.5 30.25 17.5L25 10Z" fill="#4C5BD4"/>
<path d="M31.4498 27.6246L30.6998 26.3496C29.5748 26.7996 27.7748 27.2496 24.9998 27.2496C22.2248 27.2496 20.4248 26.7996 19.2998 26.3496L18.5498 27.6246C19.8998 28.2246 21.9248 28.7496 24.9998 28.7496C28.0748 28.7496 30.0998 28.2246 31.4498 27.6246ZM29.3498 19.8246L28.5998 18.5496C27.7748 18.7746 26.6498 18.9996 24.9998 18.9996C23.3498 18.9996 22.2248 18.7746 21.3998 18.4746L20.6498 19.7496C21.6248 20.1246 23.0498 20.4246 24.9998 20.4246C26.9498 20.4246 28.3748 20.1996 29.3498 19.8246Z" fill="#00796B"/>
</svg>
