<svg width="43" height="44" viewBox="0 0 43 44" fill="none" xmlns="http://www.w3.org/2000/svg">
<path d="M35.8333 36.3327H7.1666C6.52429 36.3327 5.93304 35.9896 5.61323 35.4333C5.29431 34.877 5.2961 34.1925 5.6195 33.638L19.9528 8.55468C20.2735 8.00464 20.863 7.66602 21.4999 7.66602C22.1369 7.66602 22.7263 8.00464 23.0479 8.55468L37.3813 33.638C37.7047 34.1925 37.7065 34.877 37.3875 35.4333C37.0686 35.9896 36.4747 36.3327 35.8333 36.3327Z" fill="white"/>
<path d="M19.7083 31.0855C19.7083 30.8446 19.7504 30.6242 19.8364 30.4172C19.9206 30.213 20.0415 30.0356 20.1974 29.8869C20.3506 29.7364 20.5396 29.6191 20.7564 29.5349C20.975 29.4524 21.2204 29.4085 21.4945 29.4085C21.7687 29.4085 22.0159 29.4524 22.2363 29.5349C22.4603 29.6191 22.6493 29.7364 22.8025 29.8869C22.9592 30.0356 23.0802 30.213 23.1635 30.4172C23.2495 30.6242 23.2916 30.8446 23.2916 31.0855C23.2916 31.3274 23.2495 31.5478 23.1635 31.7485C23.0793 31.95 22.9583 32.1238 22.8025 32.2752C22.6493 32.4239 22.4603 32.5404 22.2363 32.6264C22.0159 32.7088 21.7687 32.75 21.4945 32.75C21.2195 32.75 20.975 32.7088 20.7564 32.6255C20.5396 32.5395 20.3506 32.423 20.1974 32.2743C20.0406 32.1229 19.9197 31.9491 19.8364 31.7476C19.7504 31.5469 19.7083 31.3265 19.7083 31.0855ZM22.8258 27.375H20.1624L19.7853 16.625H23.202L22.8258 27.375Z" fill="#FA5555"/>
</svg>
