<svg width="16" height="16" viewBox="0 0 16 16" fill="none" xmlns="http://www.w3.org/2000/svg">
<path d="M1.9335 4.7666C2.10016 4.59993 2.2975 4.5166 2.5255 4.5166C2.7535 4.5166 2.95061 4.59993 3.11683 4.7666L8.00016 9.64993L12.9002 4.74993C13.0557 4.59438 13.2502 4.5166 13.4835 4.5166C13.7168 4.5166 13.9168 4.59993 14.0835 4.7666C14.2502 4.93327 14.3335 5.1306 14.3335 5.3586C14.3335 5.5866 14.2502 5.78371 14.0835 5.94993L8.46683 11.5499C8.40016 11.6166 8.32794 11.6639 8.25016 11.6919C8.17239 11.7199 8.08905 11.7337 8.00016 11.7333C7.91127 11.7333 7.82794 11.7193 7.75016 11.6913C7.67239 11.6633 7.60016 11.6162 7.5335 11.5499L1.91683 5.93327C1.76127 5.77771 1.6835 5.58593 1.6835 5.35793C1.6835 5.12993 1.76683 4.93282 1.9335 4.7666Z" fill="#4C5BD4"/>
</svg>
