<svg width="16" height="16" viewBox="0 0 16 16" fill="none" xmlns="http://www.w3.org/2000/svg">
<path d="M5.78125 9.48806C5.78125 10.3481 6.44125 11.0414 7.26125 11.0414H8.93458C9.64792 11.0414 10.2279 10.4347 10.2279 9.68806C10.2279 8.87473 9.87458 8.58806 9.34792 8.4014L6.66125 7.46806C6.13458 7.2814 5.78125 6.99473 5.78125 6.1814C5.78125 5.43473 6.36125 4.82806 7.07458 4.82806H8.74792C9.56792 4.82806 10.2279 5.5214 10.2279 6.3814" stroke="#C80FF6" stroke-linecap="round" stroke-linejoin="round"/>
<path d="M8 3.93481V11.9348" stroke="#C80FF6" stroke-linecap="round" stroke-linejoin="round"/>
<path d="M7.99949 14.6015C11.6814 14.6015 14.6662 11.6167 14.6662 7.93479C14.6662 4.2529 11.6814 1.26813 7.99949 1.26813C4.31759 1.26813 1.33282 4.2529 1.33282 7.93479C1.33282 11.6167 4.31759 14.6015 7.99949 14.6015Z" stroke="#C80FF6" stroke-linecap="round" stroke-linejoin="round"/>
</svg>
