<svg width="21" height="20" viewBox="0 0 21 20" fill="none" xmlns="http://www.w3.org/2000/svg">
<g clip-path="url(#clip0_3055_111660)">
<path d="M15.1341 17.5C15.0008 17.5005 14.8694 17.4691 14.7508 17.4083L10.5008 15.1833L6.25078 17.4083C6.11277 17.4809 5.95718 17.5133 5.80168 17.5018C5.64618 17.4903 5.49701 17.4355 5.37114 17.3435C5.24526 17.2514 5.14773 17.126 5.08962 16.9813C5.03152 16.8366 5.01517 16.6785 5.04245 16.525L5.87578 11.8333L2.44245 8.49997C2.33533 8.39307 2.25934 8.25902 2.22264 8.11221C2.18593 7.9654 2.1899 7.81136 2.23411 7.66663C2.28241 7.51853 2.37126 7.38693 2.49057 7.28676C2.60988 7.1866 2.75488 7.12189 2.90911 7.09997L7.65911 6.4083L9.75078 2.1333C9.81902 1.99241 9.92556 1.87358 10.0582 1.79044C10.1908 1.7073 10.3442 1.66321 10.5008 1.66321C10.6573 1.66321 10.8107 1.7073 10.9434 1.79044C11.076 1.87358 11.1825 1.99241 11.2508 2.1333L13.3674 6.39997L18.1174 7.09163C18.2717 7.11355 18.4167 7.17827 18.536 7.27843C18.6553 7.37859 18.7441 7.51019 18.7924 7.6583C18.8367 7.80303 18.8406 7.95706 18.8039 8.10388C18.7672 8.25069 18.6912 8.38474 18.5841 8.49163L15.1508 11.825L15.9841 16.5166C16.0139 16.6729 15.9983 16.8343 15.9392 16.982C15.8802 17.1297 15.7801 17.2573 15.6508 17.35C15.4999 17.4557 15.3182 17.5085 15.1341 17.5Z" fill="#414141"/>
</g>
<defs>
<clipPath id="clip0_3055_111660">
<rect width="20" height="20" fill="white" transform="translate(0.5)"/>
</clipPath>
</defs>
</svg>
