<svg width="12" height="12" viewBox="0 0 12 12" fill="none" xmlns="http://www.w3.org/2000/svg">
<path d="M5.52229 0.545907C5.66748 0.0760682 6.33252 0.0760674 6.47771 0.545906L7.42555 3.61318C7.49029 3.82268 7.68398 3.96556 7.90326 3.96556H11.0219C11.5001 3.96556 11.7054 4.57255 11.3254 4.86289L8.75993 6.82272C8.59342 6.94992 8.52388 7.16746 8.58575 7.36767L9.55537 10.5054C9.69909 10.9705 9.16097 11.3459 8.77413 11.0504L6.30353 9.16299C6.12433 9.0261 5.87567 9.0261 5.69647 9.16299L3.22588 11.0504C2.83903 11.3459 2.30091 10.9705 2.44463 10.5054L3.41425 7.36767C3.47612 7.16746 3.40658 6.94992 3.24007 6.82272L0.674616 4.86288C0.294559 4.57255 0.499881 3.96556 0.978148 3.96556H4.09674C4.31602 3.96556 4.50971 3.82268 4.57445 3.61318L5.52229 0.545907Z" fill="#C0C0C0"/>
</svg>
