<svg width="11" height="12" viewBox="0 0 11 12" fill="none" xmlns="http://www.w3.org/2000/svg">
<path fill-rule="evenodd" clip-rule="evenodd" d="M4.75658 1.15377C4.70153 1.20818 4.65799 1.27315 4.62855 1.34479C4.59911 1.41643 4.58438 1.49329 4.58524 1.57077C4.58609 1.64824 4.60252 1.72475 4.63353 1.79572C4.66455 1.8667 4.7095 1.93068 4.76574 1.98386L7.67649 4.76303H0.733306C0.6571 4.76288 0.581617 4.77781 0.511185 4.80697C0.440753 4.83612 0.376754 4.87891 0.322869 4.9329C0.268983 4.98689 0.226273 5.05101 0.197176 5.12158C0.168079 5.19215 0.153179 5.26778 0.153321 5.34413V6.11858C0.153179 6.19493 0.168079 6.27056 0.197176 6.34112C0.226273 6.41169 0.268983 6.47581 0.322869 6.5298C0.376754 6.58379 0.440753 6.6266 0.511185 6.65576C0.581617 6.68491 0.6571 6.69984 0.733306 6.69969H7.67755L4.76683 9.47886C4.71112 9.53235 4.66663 9.59644 4.63595 9.66738C4.60528 9.73831 4.58904 9.81467 4.58818 9.89197C4.58733 9.96927 4.60188 10.046 4.63098 10.1176C4.66009 10.1892 4.70315 10.2542 4.75766 10.3089L5.29669 10.849C5.35034 10.9031 5.41412 10.946 5.48438 10.9752C5.55464 11.0045 5.62998 11.0196 5.70607 11.0196C5.78217 11.0196 5.85751 11.0045 5.92776 10.9752C5.99802 10.946 6.06181 10.9031 6.11546 10.849L10.8125 6.14289C10.8664 6.08905 10.9092 6.02508 10.9384 5.95465C10.9676 5.88422 10.9826 5.80869 10.9826 5.73243C10.9826 5.65617 10.9676 5.58066 10.9384 5.51023C10.9092 5.4398 10.8664 5.37583 10.8125 5.32199L6.11546 0.618568C6.06184 0.564438 5.99808 0.521473 5.92781 0.492155C5.85755 0.462837 5.78219 0.447754 5.70607 0.447754C5.62996 0.447754 5.55459 0.462837 5.48433 0.492155C5.41407 0.521473 5.3503 0.564438 5.29669 0.618568L4.75658 1.15377Z" fill="#4C5BD4"/>
</svg>
