<svg width="9" height="18" viewBox="0 0 9 18" fill="none" xmlns="http://www.w3.org/2000/svg">
<path d="M7.96649 6.52549L2.61265 1.17516C2.39051 0.974305 2.09964 0.866568 1.80025 0.874256C1.50087 0.881943 1.21591 1.00447 1.00437 1.21646C0.792827 1.42845 0.67091 1.71367 0.663858 2.01307C0.656807 2.31247 0.76516 2.60311 0.966485 2.82483L6.31682 8.17516C6.53554 8.39394 6.6584 8.69063 6.6584 8.99999C6.6584 9.30935 6.53554 9.60604 6.31682 9.82483L0.966485 15.1752C0.747726 15.3941 0.624891 15.6909 0.625 16.0004C0.625109 16.3099 0.748155 16.6066 0.96707 16.8254C1.18598 17.0442 1.48283 17.167 1.79232 17.1669C2.1018 17.1668 2.39856 17.0437 2.61732 16.8248L7.96649 11.4745C8.62263 10.8181 8.99124 9.92807 8.99124 8.99999C8.99124 8.07192 8.62263 7.18184 7.96649 6.52549Z" fill="#4C5BD4"/>
</svg>
