<svg width="16" height="16" viewBox="0 0 16 16" fill="none" xmlns="http://www.w3.org/2000/svg">
<path d="M8.0001 1.53479C8.96659 1.53535 9.9204 1.75479 10.79 2.17666C11.6595 2.59853 12.4222 3.21185 13.0209 3.97062C13.6195 4.72938 14.0385 5.61388 14.2465 6.55773C14.4544 7.50158 14.4459 8.48028 14.2216 9.42037C13.9973 10.3605 13.5629 11.2375 12.9512 11.9858C12.3394 12.734 11.5661 13.334 10.6894 13.7406C9.8126 14.1473 8.85511 14.3501 7.88876 14.3339C6.92241 14.3176 5.97229 14.0827 5.1097 13.6468L5.0129 13.5948L2.0969 14.3228C2.04078 14.3369 1.98227 14.3387 1.9254 14.328C1.86853 14.3173 1.81466 14.2944 1.7675 14.2608C1.72035 14.2273 1.68103 14.1839 1.65227 14.1337C1.62351 14.0835 1.60598 14.0276 1.6009 13.97V13.9044L1.6121 13.838L2.3401 10.9228L2.2897 10.8268C1.92361 10.1061 1.69825 9.32226 1.6257 8.51719L1.6057 8.21159L1.6001 7.93479C1.6001 6.2374 2.27438 4.60954 3.47461 3.40931C4.67485 2.20907 6.30271 1.53479 8.0001 1.53479ZM8.0001 2.33479C7.02287 2.33463 6.06261 2.5902 5.21474 3.0761C4.36687 3.562 3.66092 4.26132 3.16703 5.10456C2.67314 5.9478 2.40851 6.9056 2.39943 7.88279C2.39036 8.85997 2.63715 9.82253 3.1153 10.6748C3.15242 10.7411 3.1699 10.8165 3.1657 10.8924L3.1545 10.9676L2.5497 13.3844L4.9689 12.7812C5.01808 12.7691 5.06911 12.7663 5.1193 12.7732L5.1921 12.79L5.2617 12.8212C6.00837 13.2392 6.84091 13.4805 7.69539 13.5267C8.54986 13.5728 9.40354 13.4225 10.1909 13.0873C10.9782 12.752 11.6782 12.2409 12.2372 11.593C12.7962 10.9451 13.1993 10.1777 13.4155 9.34971C13.6317 8.52176 13.6553 7.65527 13.4845 6.81678C13.3136 5.97829 12.9529 5.1901 12.43 4.51274C11.9071 3.83538 11.2359 3.28687 10.468 2.90932C9.70005 2.53177 8.85582 2.33523 8.0001 2.33479ZM8.4001 8.73479C8.50005 8.73461 8.59646 8.77185 8.67032 8.8392C8.74419 8.90654 8.79017 8.9991 8.7992 9.09865C8.80823 9.1982 8.77966 9.29752 8.71912 9.37706C8.65858 9.45659 8.57046 9.51058 8.4721 9.52839L8.4001 9.53479H6.0001C5.90014 9.53497 5.80374 9.49773 5.72987 9.43038C5.656 9.36304 5.61003 9.27048 5.601 9.17093C5.59197 9.07138 5.62053 8.97206 5.68107 8.89252C5.74161 8.81299 5.82974 8.759 5.9281 8.74119L6.0001 8.73479H8.4001ZM10.0001 6.33479C10.1001 6.33461 10.1965 6.37185 10.2703 6.4392C10.3442 6.50654 10.3902 6.5991 10.3992 6.69865C10.4082 6.7982 10.3797 6.89752 10.3191 6.97706C10.2586 7.05659 10.1705 7.11058 10.0721 7.12839L10.0001 7.13479H6.0001C5.90014 7.13497 5.80374 7.09773 5.72987 7.03038C5.656 6.96304 5.61003 6.87048 5.601 6.77093C5.59197 6.67138 5.62053 6.57206 5.68107 6.49252C5.74161 6.41299 5.82974 6.359 5.9281 6.34119L6.0001 6.33479H10.0001Z" fill="#292D32"/>
</svg>
