<svg width="10" height="18" viewBox="0 0 10 18" fill="none" xmlns="http://www.w3.org/2000/svg">
<path d="M3.36623 9.82482C3.14752 9.60604 3.02465 9.30935 3.02465 8.99999C3.02465 8.69063 3.14752 8.39394 3.36623 8.17515L8.7154 2.82482C8.92792 2.60478 9.04551 2.31008 9.04285 2.00419C9.04019 1.69829 8.9175 1.40567 8.70119 1.18937C8.48488 0.973056 8.19226 0.850359 7.88637 0.8477C7.58047 0.845042 7.28577 0.962636 7.06573 1.17515L1.72007 6.52549C1.06392 7.18183 0.695312 8.07191 0.695312 8.99999C0.695312 9.92806 1.06392 10.8181 1.72007 11.4745L7.0704 16.8248C7.29043 17.0373 7.58514 17.1549 7.89103 17.1523C8.19693 17.1496 8.48954 17.0269 8.70585 16.8106C8.92216 16.5943 9.04486 16.3017 9.04752 15.9958C9.05018 15.6899 8.93258 15.3952 8.72007 15.1752L3.36623 9.82482Z" fill="#666666"/>
</svg>
