<svg width="40" height="40" viewBox="0 0 40 40" fill="none" xmlns="http://www.w3.org/2000/svg">
<path d="M40 20C40 25.5196 37.7513 30.5281 34.1397 34.1397C30.5281 37.7513 25.5196 40 20 40C8.96082 40 0 31.0392 0 20C0 14.4804 2.24872 9.47189 5.86031 5.86031C9.47189 2.24872 14.4804 0 20 0C25.5196 0 30.5281 2.24872 34.1397 5.86031C37.7513 9.47189 40 14.4804 40 20Z" fill="url(#paint0_linear_4_29)"/>
<path d="M31.2091 13.6627C32.095 12.6406 31.9246 11.1074 30.8343 10.3237C29.8122 9.57415 28.4153 9.77857 27.6657 10.7666C26.2006 12.6406 23.6452 15.8092 20.3403 19.1823C17.7509 16.4225 15.7747 13.9353 14.5481 12.368C13.7986 11.3799 12.3676 11.1755 11.3795 11.9251C10.2892 12.7087 10.1188 14.276 11.0047 15.2641C12.2994 16.7632 14.48 19.0801 17.6827 21.7718C14.9911 24.259 11.9246 26.7121 8.65377 28.7224C8.27898 28.9268 8.17677 29.4038 8.41527 29.7786C8.6197 30.0852 9.02856 30.1874 9.36927 30.0171C13.526 27.9046 17.0694 25.7241 20.0337 23.6457C22.555 25.5878 25.6214 27.6321 29.233 29.6764C29.6418 29.9149 30.187 29.7786 30.4596 29.4038C30.7662 28.9949 30.664 28.3816 30.2551 28.075C27.4953 26.0648 24.974 23.816 22.7594 21.6355C26.9161 18.3305 29.6759 15.4685 31.2091 13.6627Z" fill="white"/>
<defs>
<linearGradient id="paint0_linear_4_29" x1="0.0154003" y1="19.9882" x2="40.0059" y2="19.9882" gradientUnits="userSpaceOnUse">
<stop stop-color="#E64A4A"/>
<stop offset="1" stop-color="#B03F67"/>
</linearGradient>
</defs>
</svg>
