<svg width="25" height="25" viewBox="0 0 25 25" fill="none" xmlns="http://www.w3.org/2000/svg">
<rect width="25" height="25" rx="12.5" fill="white"/>
<path d="M16.1828 17.6535L12.5 13.9707L8.81715 17.6535C8.6218 17.8489 8.35685 17.9586 8.08058 17.9586C7.80431 17.9586 7.53936 17.8489 7.34401 17.6535C7.14866 17.4582 7.03891 17.1932 7.03892 16.9169C7.03892 16.6407 7.14866 16.3757 7.34401 16.1804L11.0269 12.4975L7.34401 8.81467C7.14866 8.61932 7.03892 8.35437 7.03892 8.0781C7.03892 7.80184 7.14866 7.53688 7.34401 7.34153C7.53936 7.14618 7.80432 7.03644 8.08058 7.03644C8.35685 7.03644 8.6218 7.14618 8.81715 7.34153L12.5 11.0244L16.1828 7.34153C16.3782 7.14618 16.6432 7.03644 16.9194 7.03644C17.1957 7.03644 17.4606 7.14618 17.656 7.34153C17.8513 7.53688 17.9611 7.80184 17.9611 8.0781C17.9611 8.35437 17.8513 8.61932 17.656 8.81467L13.9731 12.4975L17.656 16.1804C17.8513 16.3757 17.9611 16.6407 17.9611 16.9169C17.9611 17.1932 17.8513 17.4582 17.656 17.6535C17.4606 17.8489 17.1957 17.9586 16.9194 17.9586C16.6431 17.9586 16.3782 17.8489 16.1828 17.6535Z" fill="#474747"/>
</svg>
