<svg width="20" height="21" viewBox="0 0 20 21" fill="none" xmlns="http://www.w3.org/2000/svg">
<path d="M17.0833 9.91668V6.36669C17.0833 3.00836 16.3 2.16669 13.15 2.16669H6.84996C3.69996 2.16669 2.91663 3.00836 2.91663 6.36669V15.75C2.91663 17.9667 4.1333 18.4917 5.6083 16.9084L5.61662 16.9C6.29995 16.175 7.34162 16.2333 7.93328 17.025L8.77496 18.15" stroke="#4C5BD4" stroke-width="1.5" stroke-linecap="round" stroke-linejoin="round"/>
<path d="M6.66663 6.33331H13.3333" stroke="#4C5BD4" stroke-width="1.5" stroke-linecap="round" stroke-linejoin="round"/>
<path d="M7.5 9.66669H12.5" stroke="#4C5BD4" stroke-width="1.5" stroke-linecap="round" stroke-linejoin="round"/>
<path d="M15.175 12.8083L12.225 15.7583C12.1084 15.875 12 16.0917 11.975 16.25L11.8167 17.375C11.7584 17.7833 12.0417 18.0667 12.45 18.0083L13.575 17.85C13.7334 17.825 13.9584 17.7167 14.0667 17.6L17.0167 14.65C17.525 14.1417 17.7667 13.55 17.0167 12.8C16.275 12.0583 15.6834 12.3 15.175 12.8083Z" stroke="#4C5BD4" stroke-width="1.5" stroke-miterlimit="10" stroke-linecap="round" stroke-linejoin="round"/>
<path d="M14.75 13.2333C15 14.1333 15.7 14.8333 16.6 15.0833" stroke="#4C5BD4" stroke-width="1.5" stroke-miterlimit="10" stroke-linecap="round" stroke-linejoin="round"/>
</svg>
