<svg width="20" height="20" viewBox="0 0 20 20" fill="none" xmlns="http://www.w3.org/2000/svg">
<g clip-path="url(#clip0_105_20)">
<path d="M8.00004 0.800049C6.25764 0.800049 5.07229 1.57498 4.55629 3.04458C3.52109 3.25298 2.60399 3.93765 2.06879 4.91646C1.38679 6.16446 1.36229 7.72991 1.97269 9.38911C2.62469 8.87871 3.56244 8.40005 4.80004 8.40005C6.54564 8.40005 7.44525 9.27964 7.48285 9.31724C7.63925 9.47364 7.63925 9.72646 7.48285 9.88286C7.32725 10.0389 7.07519 10.0392 6.91879 9.88442C6.88279 9.85002 6.18884 9.20005 4.80004 9.20005C3.21964 9.20005 2.22032 10.1487 1.78832 10.6719C1.56752 11.2419 1.51255 11.8728 1.66175 12.4516C1.86415 13.2376 2.40814 13.8607 3.21254 14.2415C2.91174 14.9579 2.93622 15.6783 3.29222 16.3071C3.73902 17.0967 4.65044 17.6316 5.66644 17.7204C5.93204 18.4508 6.55604 19.2 8.00004 19.2C8.98684 19.2 9.60004 18.4845 9.60004 17.3329V3.27505C9.60004 1.82585 9.48524 0.800049 8.00004 0.800049ZM11.868 0.800049C10.4004 0.800049 10.4 1.83825 10.4 3.27505V17.3336C10.4 18.8676 11.1965 19.196 11.8649 19.2008H11.8805C12.5681 19.2008 13.2031 18.8777 13.7711 18.2485C13.7772 18.2503 13.7838 18.2506 13.7899 18.2524C13.9284 18.2931 14.0708 18.3239 14.2157 18.3477C14.2521 18.3538 14.2883 18.3599 14.325 18.3649C14.4809 18.3856 14.6386 18.4 14.8 18.4C15.1719 18.4 15.531 18.3428 15.8688 18.2375C16.0942 18.1672 16.3107 18.0761 16.5149 17.9649C16.6722 17.8793 16.8189 17.7784 16.961 17.6711C16.9884 17.6504 17.0169 17.6309 17.0438 17.6094L19.3172 19.8829L19.8828 19.3172L17.6094 17.0438C17.6309 17.017 17.6504 16.9884 17.6711 16.961C17.7784 16.8189 17.8793 16.6722 17.9649 16.5149V16.5141C18.0203 16.4123 18.0709 16.3074 18.1164 16.2V16.1993C18.162 16.0919 18.2024 15.982 18.2375 15.8696V15.8688C18.2727 15.7562 18.3026 15.6413 18.3266 15.5243C18.3746 15.2902 18.4 15.0481 18.4 14.8C18.4 14.6617 18.3903 14.5258 18.375 14.3915C18.3714 14.3601 18.3654 14.3296 18.361 14.2985C18.3461 14.1928 18.327 14.0885 18.3032 13.986C18.2962 13.9563 18.2882 13.9271 18.2805 13.8977C18.2534 13.7936 18.2219 13.6917 18.186 13.5915C18.1775 13.568 18.1699 13.5444 18.161 13.5211C18.1171 13.4064 18.0675 13.2948 18.0125 13.186C18.0106 13.1822 18.0098 13.178 18.0078 13.1743C18.5898 12.2143 18.411 11.0707 17.8922 10.2399C17.5137 10.7627 17.0327 11.2516 16.4203 11.5899C16.0195 11.3865 15.5767 11.2557 15.1078 11.2157C15.1173 11.2134 15.1247 11.2071 15.1344 11.2055C16.97 10.8995 17.7889 8.95076 18.2289 7.90396C18.2553 7.84116 18.2792 7.7877 18.3032 7.7313C18.438 6.6609 18.2853 5.67275 17.8289 4.83755C17.3093 3.88715 16.449 3.2442 15.4414 3.0438C15.1354 2.2166 14.262 0.800049 11.868 0.800049ZM7.60004 4.40005C7.82084 4.40005 8.00004 4.57925 8.00004 4.80005C8.00004 5.72285 7.37164 6.80005 5.60004 6.80005C5.37924 6.80005 5.20004 6.62085 5.20004 6.40005C5.20004 6.17925 5.37924 6.00005 5.60004 6.00005C7.04404 6.00005 7.20004 5.16085 7.20004 4.80005C7.20004 4.57925 7.37924 4.40005 7.60004 4.40005ZM12.8 5.20005C13.0208 5.20005 13.2 5.37925 13.2 5.60005C13.2 6.19445 13.7056 7.20005 15.6 7.20005C15.8208 7.20005 16 7.37925 16 7.60005C16 7.82085 15.8208 8.00005 15.6 8.00005C13.0688 8.00005 12.4 6.43005 12.4 5.60005C12.4 5.37925 12.5792 5.20005 12.8 5.20005ZM14.8 12C14.993 12 15.1812 12.0197 15.3633 12.0571C16.456 12.2812 17.3188 13.1441 17.543 14.2368C17.5804 14.4189 17.6 14.607 17.6 14.8C17.6 14.993 17.5804 15.1812 17.543 15.3633C17.3188 16.456 16.456 17.3189 15.3633 17.543C15.1812 17.5804 14.993 17.6 14.8 17.6C14.607 17.6 14.4189 17.5804 14.2368 17.543C13.1441 17.3189 12.2812 16.456 12.0571 15.3633C12.0197 15.1812 12 14.993 12 14.8C12 14.607 12.0197 14.4189 12.0571 14.2368C12.2812 13.1441 13.1441 12.2812 14.2368 12.0571C14.4189 12.0197 14.607 12 14.8 12ZM4.86566 12.0055C7.02846 12.3651 7.60004 14.2524 7.60004 15.2C7.60004 15.4208 7.42084 15.6 7.20004 15.6C6.97924 15.6 6.80004 15.4208 6.80004 15.2C6.80004 15.116 6.77641 13.1342 4.73441 12.7946C4.51641 12.7586 4.36911 12.5524 4.40551 12.3344C4.44151 12.1168 4.64566 11.9683 4.86566 12.0055Z" fill="#4C5BD4"/>
</g>
<defs>
<clipPath id="clip0_105_20">
<rect width="20" height="20" fill="white"/>
</clipPath>
</defs>
</svg>
