<svg width="20" height="20" viewBox="0 0 20 20" fill="none" xmlns="http://www.w3.org/2000/svg">
<path d="M3.0805 4.02783C2.57424 4.02783 2.08873 4.23099 1.73075 4.5926C1.37277 4.95422 1.17167 5.44467 1.17167 5.95607C1.17167 6.46748 1.37277 6.95793 1.73075 7.31955C2.08873 7.68116 2.57424 7.88432 3.0805 7.88432C3.58675 7.88432 4.07227 7.68116 4.43025 7.31955C4.78822 6.95793 4.98933 6.46748 4.98933 5.95607C4.98933 5.44467 4.78822 4.95422 4.43025 4.5926C4.07227 4.23099 3.58675 4.02783 3.0805 4.02783ZM5.21023 4.02783C5.56384 4.42601 5.80925 4.92302 5.90087 5.47401H16.9195V14.6332H5.94375V16.0793H18.5898C18.9849 16.0793 19.3056 15.7559 19.3056 15.3563C19.3056 14.9566 18.9849 14.6332 18.5898 14.6332H18.3512V4.75092C18.3512 4.35129 18.0305 4.02783 17.6353 4.02783H5.21023Z" fill="#4C5BD4"/>
<path d="M2.12608 8.84844C1.33535 8.84844 0.694458 9.49584 0.694458 10.2946V16.0793H4.98933V10.616L6.58002 12.5442C7.85258 12.8656 7.37537 11.7408 7.37537 11.7408C7.37537 11.7408 5.34998 9.05022 4.98933 8.92878C4.62868 8.80734 2.60329 8.84844 2.60329 8.84844H2.12608Z" fill="#4C5BD4"/>
<path d="M14.0569 6.5V7.06H14.8969L13.4092 8.34625L12.9892 7.98313L12.7615 7.78188L12.5338 7.98313L10.8185 9.46625L10.3985 9.10313L10.1708 8.90188L9.94307 9.10313L8 10.7831L8.45541 11.1769L10.1708 9.69375L10.5908 10.0569L10.8185 10.2581L11.0462 10.0569L12.7615 8.57375L13.1815 8.93688L13.4092 9.13813L13.6369 8.93688L15.3523 7.45375V8.18H16V6.5H14.0569ZM15.0285 8.6V13.5H15.6762V8.6H15.0285ZM12.7615 9.3V13.5H13.4092V9.3H12.7615ZM13.895 9.3V13.5H14.5427V9.3H13.895ZM11.6281 9.86V13.5H12.2758V9.86H11.6281ZM10.4946 10.7V13.5H11.1423V10.7H10.4946ZM9.36116 10.84V13.5H10.0089V10.84H9.36116ZM8.2277 11.82V13.5H8.8754V11.82H8.2277Z" fill="#4C5BD4"/>
</svg>
