<svg width="17" height="16" viewBox="0 0 17 16" fill="none" xmlns="http://www.w3.org/2000/svg">
<path d="M2.16663 3.33325V5.99992H5.16663" stroke="#292D32" stroke-linecap="round" stroke-linejoin="round"/>
<path d="M2.5 6L3.16667 5.33333C3.65459 4.33425 4.41312 3.49217 5.35597 2.90289C6.29883 2.31361 7.38814 2.00078 8.5 2C9.60014 1.99936 10.6793 2.3012 11.6194 2.87252C12.5596 3.44385 13.3246 4.26267 13.8307 5.23945C14.3369 6.21623 14.5648 7.31338 14.4894 8.41094C14.4141 9.5085 14.0384 10.5642 13.4035 11.4627C12.7686 12.3611 11.8989 13.0677 10.8895 13.5052C9.88008 13.9427 8.76981 14.0942 7.68008 13.9432C6.59035 13.7922 5.5631 13.3446 4.71066 12.6491C3.85821 11.9537 3.21338 11.0372 2.84667 10" stroke="#292D32" stroke-linecap="round" stroke-linejoin="round"/>
<path d="M8.33325 5.33325V7.99992L10.9999 9.99992" stroke="#292D32" stroke-linecap="round" stroke-linejoin="round"/>
</svg>
