<svg width="20" height="20" viewBox="0 0 20 20" fill="none" xmlns="http://www.w3.org/2000/svg">
<g clip-path="url(#clip0_105_17)">
<path d="M15.8333 3.33329H12.3467C12.0025 2.36413 11.0867 1.66663 10 1.66663C8.91333 1.66663 7.9975 2.36413 7.65333 3.33329H4.16667C3.24583 3.33329 2.5 4.07913 2.5 4.99996V16.6666C2.5 17.5875 3.24583 18.3333 4.16667 18.3333H15.8333C16.7542 18.3333 17.5 17.5875 17.5 16.6666V4.99996C17.5 4.07913 16.7542 3.33329 15.8333 3.33329ZM9.16667 15H5V13.3333H9.16667V15ZM9.16667 9.99996H5V8.33329H9.16667V9.99996ZM10 4.99996C9.54 4.99996 9.16667 4.62663 9.16667 4.16663C9.16667 3.70663 9.54 3.33329 10 3.33329C10.46 3.33329 10.8333 3.70663 10.8333 4.16663C10.8333 4.62663 10.46 4.99996 10 4.99996ZM15 14.655L13.8217 15.8333L12.9167 14.9283L12.0117 15.8333L10.8333 14.655L11.7383 13.75L10.8333 12.845L12.0117 11.6666L12.9167 12.5716L13.8217 11.6666L15 12.845L14.095 13.75L15 14.655ZM12.845 9.99996H10.8333V8.33329H12.155L13.8217 6.66663L15 7.84496L12.845 9.99996Z" fill="#4C5BD4"/>
</g>
<defs>
<clipPath id="clip0_105_17">
<rect width="20" height="20" fill="white"/>
</clipPath>
</defs>
</svg>
