<svg width="13" height="10" viewBox="0 0 13 10" fill="none" xmlns="http://www.w3.org/2000/svg">
<path fill-rule="evenodd" clip-rule="evenodd" d="M11.4842 1.06147C12.0292 1.20572 12.4585 1.62848 12.6047 2.16427C12.8763 3.14218 12.8635 5.18106 12.8635 5.18106C12.8635 5.18106 12.8616 7.20869 12.5984 8.18598C12.4502 8.72114 12.019 9.14328 11.4747 9.28691C10.4789 9.54294 6.49486 9.53857 6.49486 9.53857C6.49486 9.53857 2.52167 9.5342 1.51565 9.26568C0.970037 9.12143 0.540796 8.69866 0.394535 8.1635C0.133811 7.19558 0.136353 5.15733 0.136353 5.15733C0.136353 5.15733 0.138898 3.12907 0.40153 2.15116C0.549062 1.61599 0.990387 1.18386 1.52455 1.04086C2.52103 0.784208 6.50439 0.788579 6.50439 0.788579C6.50439 0.788579 10.4884 0.79295 11.4842 1.06147ZM5.23308 3.28991L5.2299 7.03669L8.54429 5.16642L5.23308 3.28991Z" fill="white"/>
</svg>
