<svg width="27" height="14" viewBox="0 0 27 14" fill="none" xmlns="http://www.w3.org/2000/svg">
<path d="M6.2573 6.46602C6.2573 7.02451 6.07185 7.46196 5.69971 7.77956C5.32134 8.09356 4.79859 8.25056 4.13022 8.25056H0.773438V6.94541H3.55395C3.88005 6.94541 4.11777 6.89268 4.26589 6.78841C4.414 6.68055 4.48868 6.51396 4.48868 6.28625C4.48868 6.07652 4.41773 5.91232 4.27584 5.79367C4.12773 5.67982 3.88752 5.62349 3.5552 5.62349L1.28623 5.63188V4.32793H3.51288C3.84893 4.32793 4.09039 4.2776 4.2385 4.17572C4.38039 4.07745 4.45134 3.91446 4.45134 3.68674C4.45134 3.47102 4.38039 3.31042 4.2385 3.20256C4.16631 3.14383 4.07048 3.10189 3.95224 3.07552C3.82777 3.05275 3.68215 3.04076 3.51288 3.04076H0.773438V1.73682H3.98958C4.73387 1.73682 5.29769 1.88063 5.68104 2.16827C6.05941 2.4595 6.24859 2.91133 6.24859 3.52495C6.24859 3.83296 6.17765 4.10621 6.03576 4.34471C5.88765 4.58321 5.69597 4.79294 5.45949 4.97271C5.71962 5.12732 5.9088 5.31188 6.02705 5.52641C6.18014 5.77809 6.2573 6.0909 6.2573 6.46602Z" fill="white"/>
<path d="M12.966 6.25098C12.966 6.93412 12.7084 7.45186 12.1944 7.80422C11.6803 8.15657 10.9398 8.33155 9.97143 8.33155C8.82886 8.33155 7.98375 8.06668 7.43611 7.53695C6.8922 7.01082 6.61963 6.18507 6.61963 5.0585C6.61963 3.92114 6.91087 3.0822 7.49461 2.54169C8.06963 2.00357 8.96577 1.73511 10.1843 1.73511H12.615L12.6101 3.03905H10.1494C9.5383 3.03905 9.09521 3.15291 8.82015 3.37942C8.6907 3.48729 8.59238 3.62391 8.52517 3.7893C8.44924 3.96428 8.4119 4.16443 8.4119 4.39094H10.6074C11.399 4.39094 11.9902 4.54315 12.381 4.84636C12.7706 5.15318 12.966 5.62058 12.966 6.25098ZM11.2098 6.3205C11.2098 6.11076 11.1538 5.95256 11.0418 5.8447C10.9298 5.74642 10.7593 5.69609 10.529 5.69609H8.42062C8.42062 6.14072 8.55006 6.4775 8.81019 6.70401C9.06409 6.93652 9.47109 7.05277 10.0299 7.05277C10.4568 7.05277 10.758 6.99284 10.9373 6.87419C11.1202 6.75555 11.2098 6.57098 11.2098 6.3205Z" fill="white"/>
<path d="M19.1366 6.27786C19.1366 6.91425 18.9287 7.40323 18.5155 7.7436C18.0985 8.08157 17.5098 8.24936 16.7506 8.24936H13.1897V6.94542H16.4419C16.7618 6.94542 16.9883 6.89268 17.1178 6.78841C17.2422 6.68654 17.3032 6.51636 17.3032 6.27786C17.3032 6.03337 17.241 5.85719 17.1178 5.75053C16.9883 5.64866 16.7618 5.59832 16.4419 5.59832H13.1897V1.73682H18.8055L18.8005 3.04076H14.8538V4.30157H17.053C17.6915 4.30157 18.2018 4.47175 18.5864 4.81212C18.7644 4.98949 18.9026 5.19803 18.9997 5.43653C19.0905 5.67982 19.1366 5.96146 19.1366 6.27786Z" fill="white"/>
<path fill-rule="evenodd" clip-rule="evenodd" d="M19.9419 10.3113L22.4274 8.15405L25.1333 8.91029C25.1333 8.91029 26.9181 9.63058 25.9211 10.8363C25.4718 11.2629 25.0461 11.6668 23.4754 11.2593C23.0298 11.1167 19.9419 10.3113 19.9419 10.3113Z" fill="white"/>
<path fill-rule="evenodd" clip-rule="evenodd" d="M5.54882 8.78583C5.57496 8.84336 5.59736 8.90208 5.62474 8.95961C5.67328 9.06148 5.7268 9.15976 5.7853 9.25683C5.93217 9.49893 6.11015 9.72304 6.31427 9.92319C6.57067 10.1737 6.86813 10.3846 7.19049 10.5488C7.59749 10.7573 8.04058 10.8928 8.49238 10.9695C9.08856 11.0713 9.69968 11.0749 10.3021 11.0198C11.1161 10.9455 11.9189 10.7669 12.6993 10.5356C14.9458 9.86926 17.0206 8.8877 18.7781 7.36803C18.8042 7.34526 18.8303 7.32249 18.8577 7.29972C20.0737 6.23427 21.5685 4.73856 21.3843 3.00915C21.2673 1.91614 19.8895 1.30491 18.9175 1.082C18.503 0.987317 18.5814 0.392871 19.0071 0.402458C20.9699 0.448001 22.975 0.959752 23.6458 2.5801C23.6496 2.58969 23.6533 2.59927 23.657 2.61006C23.825 3.1314 23.8611 3.69588 23.8151 4.2364C23.728 5.26949 23.3147 6.25344 22.7223 7.11275C21.7328 8.54973 20.289 9.65833 18.7768 10.5512C17.5011 11.305 16.1842 11.8911 14.7604 12.3178C13.7572 12.6186 12.7353 12.8655 11.6936 13.0069C10.5274 13.1651 9.3126 13.1998 8.16255 12.923C7.00504 12.6449 5.98071 12.0169 5.32354 11.045C4.92277 10.4529 4.67135 9.77937 4.52075 9.09025C4.47594 8.8877 4.53195 8.61325 4.71616 8.48142C4.9514 8.31363 5.33101 8.46344 5.4841 8.66838C5.51024 8.70793 5.5314 8.74628 5.54882 8.78583Z" fill="white"/>
<path fill-rule="evenodd" clip-rule="evenodd" d="M6.29541 8.67156C6.29541 8.67156 9.74181 11.6738 15.6588 8.45703C14.9991 9.20728 7.63215 12.6385 6.29541 8.67156Z" fill="white"/>
</svg>
