<svg width="20" height="20" viewBox="0 0 20 20" fill="none" xmlns="http://www.w3.org/2000/svg">
<g clip-path="url(#clip0_105_12)">
<path d="M10.4124 6.15527C9.83734 6.15527 9.37476 6.53398 9.25497 7.02559C8.54706 7.13871 7.99482 7.67844 7.99482 8.35308C7.99482 8.42222 8.00943 8.48279 8.0202 8.54571C7.82649 8.80567 7.69263 9.11073 7.69263 9.45198C7.69263 9.94527 7.96226 10.3629 8.34247 10.6641C8.31589 10.7604 8.29702 10.8594 8.29702 10.963C8.29702 11.6425 8.90945 12.1992 9.65691 12.1992C9.66504 12.1992 9.66913 12.1978 9.67698 12.1976C9.85312 12.5069 10.1567 12.7487 10.5635 12.7487C10.8581 12.7487 11.1253 12.6363 11.3178 12.4573C11.5101 12.6367 11.7779 12.7487 12.0745 12.7487C12.238 12.7487 12.3916 12.7109 12.5307 12.6494C12.8337 13.0392 13.3318 13.2981 13.8877 13.2981C14.2503 13.2981 14.5524 13.1882 14.8244 13.0234L15.731 13.8476L16.1542 13.4629L15.2476 12.6387C15.4289 12.3914 15.5498 12.0893 15.5498 11.7871C15.5498 11.1908 15.1533 10.6681 14.5912 10.4237C14.8171 10.1456 14.9454 9.80788 14.9454 9.45198C14.9454 9.12258 14.8366 8.80703 14.629 8.53175C14.6384 8.47077 14.6432 8.41159 14.6432 8.35308C14.6432 7.67945 14.1072 7.11738 13.4025 7.00145C13.2765 6.51683 12.7964 6.15527 12.2256 6.15527C11.8623 6.15527 11.5396 6.30446 11.3178 6.5357C11.0957 6.30491 10.7736 6.15527 10.4124 6.15527ZM10.4124 6.70472C10.7499 6.70472 11.0168 6.9474 11.0168 7.25417V7.80362C11.0168 8.262 10.6144 8.6278 10.1102 8.6278V9.17725C10.4579 9.17725 10.7672 9.06021 11.0168 8.87462V11.7871C11.0168 12.0181 10.8176 12.1992 10.5635 12.1992C10.3379 12.1992 10.1572 12.0533 10.1191 11.8607L10.0665 11.5967L9.77496 11.638C9.72195 11.6455 9.68433 11.6498 9.65691 11.6498C9.23608 11.6498 8.90142 11.3455 8.90142 10.963C8.90142 10.8716 8.92141 10.7852 8.95808 10.7038C9.05219 10.4934 9.25628 10.3361 9.50581 10.2901L9.38541 9.75138C9.07264 9.80903 8.79918 9.96488 8.60453 10.1812C8.41367 9.9877 8.29702 9.73389 8.29702 9.45198C8.29702 9.19392 8.39826 8.96161 8.56617 8.77053L8.65706 8.66697L8.6246 8.53766C8.60841 8.47343 8.59922 8.41248 8.59922 8.35308C8.59922 7.8947 9.0016 7.5289 9.50581 7.5289H9.80801V7.25417C9.80801 6.9474 10.075 6.70472 10.4124 6.70472ZM12.2256 6.70472C12.5589 6.70472 12.83 6.95115 12.83 7.25417V7.5289H13.1322C13.632 7.5289 14.0388 7.89868 14.0388 8.35308C14.0388 8.40994 14.0306 8.47009 14.0134 8.53712L13.9809 8.66643L14.0718 8.77053C14.2477 8.9708 14.341 9.20637 14.341 9.45198C14.341 9.77115 14.1878 10.07 13.926 10.2778C13.9132 10.2775 13.9006 10.2762 13.8877 10.2762C12.9811 10.2762 12.2256 10.963 12.2256 11.7871C12.2256 11.9119 12.245 12.0328 12.2775 12.1493C12.2154 12.1783 12.1483 12.1992 12.0745 12.1992C11.8246 12.1992 11.6212 12.0143 11.6212 11.7871V8.87462C11.8708 9.06021 12.1801 9.17725 12.5278 9.17725V8.6278C12.0236 8.6278 11.6212 8.262 11.6212 7.80362V7.25417C11.6212 6.95115 11.8923 6.70472 12.2256 6.70472ZM13.8877 10.8256C14.4619 10.8256 14.9454 11.2652 14.9454 11.7871C14.9454 12.3091 14.4619 12.7487 13.8877 12.7487C13.3135 12.7487 12.83 12.3091 12.83 11.7871C12.83 11.2652 13.3135 10.8256 13.8877 10.8256Z" fill="#4C5BD4"/>
<path d="M3.0805 4.02783C2.57424 4.02783 2.08873 4.23099 1.73075 4.5926C1.37277 4.95422 1.17167 5.44467 1.17167 5.95607C1.17167 6.46748 1.37277 6.95793 1.73075 7.31955C2.08873 7.68116 2.57424 7.88432 3.0805 7.88432C3.58675 7.88432 4.07227 7.68116 4.43025 7.31955C4.78822 6.95793 4.98933 6.46748 4.98933 5.95607C4.98933 5.44467 4.78822 4.95422 4.43025 4.5926C4.07227 4.23099 3.58675 4.02783 3.0805 4.02783ZM5.21023 4.02783C5.56384 4.42601 5.80925 4.92302 5.90087 5.47401H16.9195V14.6332H5.94375V16.0793H18.5898C18.9849 16.0793 19.3056 15.7559 19.3056 15.3563C19.3056 14.9566 18.9849 14.6332 18.5898 14.6332H18.3512V4.75092C18.3512 4.35129 18.0305 4.02783 17.6353 4.02783H5.21023Z" fill="#4C5BD4"/>
<path d="M2.12608 8.84844C1.33535 8.84844 0.694458 9.49584 0.694458 10.2946V16.0793H4.98933V10.616L6.58002 12.5442C7.85258 12.8656 7.37537 11.7408 7.37537 11.7408C7.37537 11.7408 5.34998 9.05022 4.98933 8.92878C4.62868 8.80734 2.60329 8.84844 2.60329 8.84844H2.12608Z" fill="#4C5BD4"/>
</g>
<defs>
<clipPath id="clip0_105_12">
<rect width="20" height="20" fill="white"/>
</clipPath>
</defs>
</svg>
