<svg width="13" height="11" viewBox="0 0 13 11" fill="none" xmlns="http://www.w3.org/2000/svg">
<path d="M12.8636 1.42145C12.3955 1.62918 11.8927 1.7696 11.364 1.83273C11.9036 1.50964 12.3169 0.997665 12.5121 0.388329C11.9995 0.692737 11.4386 0.907041 10.8537 1.02193C10.3777 0.514537 9.69888 0.197754 8.94789 0.197754C7.50642 0.197754 6.33738 1.36631 6.33738 2.80862C6.33738 3.01298 6.3604 3.21235 6.40465 3.40377C4.23471 3.29471 2.31091 2.25529 1.02322 0.675894C0.798365 1.06163 0.669663 1.51011 0.669663 1.98862C0.669663 2.89432 1.13065 3.69342 1.83112 4.16152C1.41645 4.14867 1.01089 4.03674 0.648331 3.8351V3.86809C0.648331 5.1332 1.54817 6.18809 2.74265 6.428C2.52323 6.48812 2.29295 6.51953 2.05472 6.51953C1.88629 6.51953 1.72287 6.50359 1.56323 6.47356C1.89549 7.51049 2.85972 8.26528 4.0019 8.28661C3.10833 8.98707 1.9824 9.40462 0.759509 9.40462C0.548881 9.40462 0.340713 9.39205 0.136353 9.36741C1.29198 10.1084 2.66409 10.541 4.13859 10.541C8.94078 10.541 11.5671 6.5626 11.5671 3.1125C11.5671 2.99923 11.5646 2.8868 11.5592 2.77478C12.0709 2.40467 12.5126 1.94641 12.8636 1.42145Z" fill="white"/>
</svg>
