<svg width="21" height="20" viewBox="0 0 21 20" fill="none" xmlns="http://www.w3.org/2000/svg">
<path d="M2.79199 4.16666V7.49999H6.54199" stroke="#474747" stroke-width="1.5" stroke-linecap="round" stroke-linejoin="round"/>
<path d="M3.20898 7.5L4.04232 6.66667C4.65222 5.41782 5.60038 4.36522 6.77895 3.62861C7.95752 2.89201 9.31916 2.50098 10.709 2.5C12.0842 2.49919 13.4331 2.8765 14.6083 3.59065C15.7835 4.30481 16.7397 5.32833 17.3724 6.54931C18.0051 7.77029 18.29 9.14173 18.1958 10.5137C18.1016 11.8856 17.632 13.2053 16.8384 14.3283C16.0448 15.4514 14.9576 16.3346 13.6959 16.8815C12.4341 17.4283 11.0463 17.6178 9.68409 17.429C8.32192 17.2403 7.03786 16.6807 5.97231 15.8114C4.90675 14.9421 4.10071 13.7965 3.64232 12.5" stroke="#474747" stroke-width="1.5" stroke-linecap="round" stroke-linejoin="round"/>
<path d="M10.5 6.66666V9.99999L13.8333 12.5" stroke="#474747" stroke-width="1.5" stroke-linecap="round" stroke-linejoin="round"/>
</svg>
