<svg width="30" height="30" viewBox="0 0 30 30" fill="none" xmlns="http://www.w3.org/2000/svg">
<path d="M13.9568 8.2H8.8432C8.68407 8.2 8.53146 8.26321 8.41894 8.37574C8.30641 8.48826 8.2432 8.64087 8.2432 8.8V14C8.2432 14.1591 8.30641 14.3117 8.41894 14.4243C8.53146 14.5368 8.68407 14.6 8.8432 14.6H13.9568C14.1159 14.6 14.2685 14.5368 14.3811 14.4243C14.4936 14.3117 14.5568 14.1591 14.5568 14V8.8C14.5568 8.64087 14.4936 8.48826 14.3811 8.37574C14.2685 8.26321 14.1159 8.2 13.9568 8.2V8.2ZM13.3568 13.4H9.4432V9.4H13.3568V13.4ZM12.2 10.6H10.6V12.2H12.2V10.6ZM5.8 13C6.01217 13 6.21566 12.9157 6.36569 12.7657C6.51571 12.6157 6.6 12.4122 6.6 12.2V7.4C6.60021 7.18789 6.68457 6.98453 6.83455 6.83455C6.98453 6.68457 7.18789 6.60021 7.4 6.6H12.2C12.4122 6.6 12.6157 6.51571 12.7657 6.36569C12.9157 6.21566 13 6.01217 13 5.8C13 5.58783 12.9157 5.38434 12.7657 5.23431C12.6157 5.08429 12.4122 5 12.2 5H7.4C6.76368 5.00064 6.1536 5.2537 5.70365 5.70365C5.2537 6.1536 5.00064 6.76368 5 7.4V12.2C5 12.4122 5.08429 12.6157 5.23431 12.7657C5.38434 12.9157 5.58783 13 5.8 13ZM13.9568 15.4H8.8432C8.68407 15.4 8.53146 15.4632 8.41894 15.5757C8.30641 15.6883 8.2432 15.8409 8.2432 16V21.2C8.2432 21.3591 8.30641 21.5117 8.41894 21.6243C8.53146 21.7368 8.68407 21.8 8.8432 21.8H13.9568C14.1159 21.8 14.2685 21.7368 14.3811 21.6243C14.4936 21.5117 14.5568 21.3591 14.5568 21.2V16C14.5568 15.8409 14.4936 15.6883 14.3811 15.5757C14.2685 15.4632 14.1159 15.4 13.9568 15.4V15.4ZM13.3568 20.6H9.4432V16.6H13.3568V20.6ZM12.2 17.8H10.6V19.4H12.2V17.8ZM12.2 23.4H7.4C7.18789 23.3998 6.98453 23.3154 6.83455 23.1655C6.68457 23.0155 6.60021 22.8121 6.6 22.6V17.8C6.6 17.5878 6.51571 17.3843 6.36569 17.2343C6.21566 17.0843 6.01217 17 5.8 17C5.58783 17 5.38434 17.0843 5.23431 17.2343C5.08429 17.3843 5 17.5878 5 17.8V22.6C5.00064 23.2363 5.2537 23.8464 5.70365 24.2964C6.1536 24.7463 6.76368 24.9994 7.4 25H12.2C12.4122 25 12.6157 24.9157 12.7657 24.7657C12.9157 24.6157 13 24.4122 13 24.2C13 23.9878 12.9157 23.7843 12.7657 23.6343C12.6157 23.4843 12.4122 23.4 12.2 23.4ZM24.2 17C23.9878 17 23.7843 17.0843 23.6343 17.2343C23.4843 17.3843 23.4 17.5878 23.4 17.8V22.6C23.3998 22.8121 23.3154 23.0155 23.1655 23.1655C23.0155 23.3154 22.8121 23.3998 22.6 23.4H17.8C17.5878 23.4 17.3843 23.4843 17.2343 23.6343C17.0843 23.7843 17 23.9878 17 24.2C17 24.4122 17.0843 24.6157 17.2343 24.7657C17.3843 24.9157 17.5878 25 17.8 25H22.6C23.2363 24.9994 23.8464 24.7463 24.2964 24.2964C24.7463 23.8464 24.9994 23.2363 25 22.6V17.8C25 17.5878 24.9157 17.3843 24.7657 17.2343C24.6157 17.0843 24.4122 17 24.2 17ZM17.4 19.8H15.8V21.4H17.4V19.8ZM15.8 17.3952H17.4V15.7952H15.8V17.3952ZM22.6 5H17.8C17.5878 5 17.3843 5.08429 17.2343 5.23431C17.0843 5.38434 17 5.58783 17 5.8C17 6.01217 17.0843 6.21566 17.2343 6.36569C17.3843 6.51571 17.5878 6.6 17.8 6.6H22.6C22.8121 6.60021 23.0155 6.68457 23.1655 6.83455C23.3154 6.98453 23.3998 7.18789 23.4 7.4V12.2C23.4 12.4122 23.4843 12.6157 23.6343 12.7657C23.7843 12.9157 23.9878 13 24.2 13C24.4122 13 24.6157 12.9157 24.7657 12.7657C24.9157 12.6157 25 12.4122 25 12.2V7.4C24.9994 6.76368 24.7463 6.1536 24.2964 5.70365C23.8464 5.2537 23.2363 5.00064 22.6 5V5ZM17.8 12.2H19.4V10.6H17.8V12.2ZM19.4 19.4V17.8H17.8V19.4H19.4ZM21.1568 14.6C21.3159 14.6 21.4685 14.5368 21.5811 14.4243C21.6936 14.3117 21.7568 14.1591 21.7568 14V8.8C21.7568 8.64087 21.6936 8.48826 21.5811 8.37574C21.4685 8.26321 21.3159 8.2 21.1568 8.2H16.0432C15.8841 8.2 15.7315 8.26321 15.6189 8.37574C15.5064 8.48826 15.4432 8.64087 15.4432 8.8V14C15.4432 14.1591 15.5064 14.3117 15.6189 14.4243C15.7315 14.5368 15.8841 14.6 16.0432 14.6H21.1568ZM16.6432 9.4H20.5568V13.4H16.6432V9.4ZM21.4 15.7952H19.8V17.3952H21.4V15.7952ZM19.8 21.4H21.4V19.8H19.8V21.4Z" fill="#4C5BD4"/>
</svg>
